<?xml version="1.0" encoding="UTF-8"?>
<svg id="Layer_2" data-name="Layer 2" xmlns="http://www.w3.org/2000/svg" xmlns:xlink="http://www.w3.org/1999/xlink" viewBox="0 0 1031.83 229.36">
  <defs>
    <style>
      .cls-1 {
        font-family: Arial-BoldMT, Arial;
        font-size: 90px;
      }

      .cls-2 {
        fill: none;
        stroke: #fff;
        stroke-miterlimit: 10;
        stroke-width: 2px;
      }

      .cls-3 {
        fill: url(#linear-gradient);
      }
    </style>
    <linearGradient id="linear-gradient" x1="502.96" y1="-49.84" x2="502.96" y2="277.28" gradientUnits="userSpaceOnUse">
      <stop offset=".44" stop-color="#153177"/>
      <stop offset=".89" stop-color="#2695ad"/>
      <stop offset="1" stop-color="#2aacba"/>
    </linearGradient>
  </defs>
  <g id="element">
    <g>
      <text class="cls-1" transform="translate(1.73 87.48)"><tspan x="0" y="0">GIÁO DỤC PHÁT TRIỂN </tspan><tspan x="277.65" y="108">BỀN VỮNG</tspan></text>
      <g>
        <path class="cls-3" d="M37.9,63.8v-10.85h27.77v25.66c-2.7,2.64-6.61,4.96-11.73,6.96-5.12,2.01-10.31,3.01-15.56,3.01-6.67,0-12.49-1.41-17.45-4.24-4.96-2.83-8.69-6.87-11.19-12.13-2.5-5.26-3.74-10.98-3.74-17.16,0-6.71,1.39-12.67,4.18-17.89,2.79-5.21,6.86-9.21,12.23-12,4.09-2.14,9.18-3.21,15.28-3.21,7.92,0,14.11,1.68,18.56,5.03,4.45,3.35,7.32,7.99,8.6,13.91l-12.8,2.42c-.9-3.16-2.59-5.66-5.07-7.49-2.48-1.83-5.58-2.75-9.29-2.75-5.63,0-10.11,1.8-13.43,5.41-3.32,3.6-4.98,8.95-4.98,16.04,0,7.65,1.68,13.38,5.05,17.21,3.37,3.82,7.78,5.73,13.23,5.73,2.7,0,5.4-.53,8.12-1.6,2.71-1.07,5.04-2.37,6.99-3.89v-8.17h-14.76Z"/>
        <path class="cls-3" d="M77.17,87.48V23.06h12.88V87.48h-12.88Z"/>
        <path class="cls-3" d="M159.87,87.48h-14.02l-5.57-14.63h-25.51l-5.27,14.63h-13.67L120.69,23.06h13.62l25.55,64.42Zm-23.72-25.49l-8.79-23.91-8.62,23.91h17.41Zm-16.19-42.63l6.01-13.14h13.71l-11.97,13.14h-7.75Z"/>
        <path class="cls-3" d="M164.09,55.67c0-6.56,.97-12.07,2.92-16.52,1.45-3.28,3.43-6.23,5.94-8.83,2.51-2.61,5.26-4.54,8.25-5.8,3.98-1.7,8.56-2.55,13.75-2.55,9.4,0,16.92,2.94,22.57,8.83,5.64,5.89,8.47,14.08,8.47,24.57s-2.8,18.54-8.4,24.41c-5.6,5.88-13.09,8.81-22.46,8.81s-17.03-2.92-22.63-8.77c-5.6-5.85-8.4-13.89-8.4-24.15Zm13.28-.44c0,7.29,1.67,12.83,5.01,16.59s7.57,5.65,12.71,5.65,9.35-1.87,12.64-5.6c3.29-3.73,4.94-9.34,4.94-16.81s-1.6-12.89-4.81-16.52c-3.21-3.63-7.46-5.45-12.77-5.45s-9.59,1.84-12.84,5.52c-3.25,3.68-4.88,9.22-4.88,16.63Z"/>
        <path class="cls-3" d="M260.76,23.06h23.55c5.31,0,9.36,.41,12.14,1.23,3.74,1.11,6.95,3.09,9.62,5.93,2.67,2.84,4.7,6.32,6.09,10.44,1.39,4.12,2.09,9.19,2.09,15.23,0,5.3-.65,9.87-1.96,13.71-1.6,4.69-3.87,8.48-6.83,11.38-2.23,2.2-5.25,3.91-9.05,5.14-2.84,.91-6.65,1.36-11.4,1.36h-24.24V23.06Zm12.88,10.9v42.67h9.62c3.6,0,6.19-.21,7.79-.62,2.09-.53,3.82-1.42,5.2-2.68,1.38-1.26,2.5-3.33,3.37-6.22,.87-2.88,1.31-6.82,1.31-11.8s-.44-8.8-1.31-11.47-2.09-4.75-3.66-6.24-3.55-2.5-5.96-3.03c-1.8-.41-5.33-.62-10.58-.62h-5.79Z"/>
        <path class="cls-3" d="M325.09,23.06h12.88V57.95c0,5.54,.16,9.13,.48,10.77,.55,2.64,1.86,4.75,3.94,6.35,2.07,1.6,4.91,2.39,8.51,2.39s6.41-.75,8.27-2.26c1.86-1.51,2.97-3.36,3.35-5.56,.38-2.2,.57-5.84,.57-10.94V23.06h12.88V56.9c0,7.73-.35,13.2-1.04,16.39s-1.98,5.89-3.85,8.09-4.37,3.95-7.51,5.25c-3.13,1.3-7.23,1.96-12.27,1.96-6.09,0-10.72-.71-13.86-2.13-3.15-1.42-5.64-3.27-7.46-5.54-1.83-2.27-3.03-4.65-3.61-7.14-.84-3.69-1.26-9.14-1.26-16.35V23.06Zm19.63,82.05v-12.35h12.23v12.35h-12.23Z"/>
        <path class="cls-3" d="M430.38,63.8l12.49,4c-1.92,7.03-5.1,12.25-9.55,15.67-4.45,3.41-10.11,5.12-16.95,5.12-8.47,0-15.44-2.92-20.89-8.77-5.46-5.85-8.18-13.84-8.18-23.97,0-10.72,2.74-19.05,8.23-24.98,5.48-5.93,12.69-8.9,21.63-8.9,7.81,0,14.15,2.33,19.02,6.99,2.9,2.75,5.08,6.71,6.53,11.87l-12.75,3.08c-.75-3.34-2.33-5.98-4.72-7.91s-5.3-2.9-8.73-2.9c-4.73,0-8.57,1.71-11.51,5.14-2.95,3.43-4.42,8.98-4.42,16.66,0,8.14,1.45,13.95,4.35,17.4,2.9,3.46,6.67,5.19,11.32,5.19,3.42,0,6.37-1.1,8.84-3.3,2.47-2.2,4.24-5.65,5.31-10.37Z"/>
        <path class="cls-3" d="M478.7,87.48V23.06h20.67c7.83,0,12.94,.32,15.32,.97,3.66,.97,6.72,3.07,9.18,6.31,2.47,3.24,3.7,7.42,3.7,12.55,0,3.96-.71,7.28-2.13,9.98-1.42,2.7-3.23,4.81-5.42,6.35-2.19,1.54-4.42,2.56-6.68,3.05-3.08,.62-7.53,.92-13.36,.92h-8.4v24.3h-12.88Zm12.88-53.53v18.28h7.05c5.08,0,8.47-.34,10.18-1.01s3.05-1.73,4.03-3.16c.97-1.44,1.46-3.11,1.46-5.01,0-2.34-.68-4.28-2.05-5.8s-3.09-2.48-5.18-2.86c-1.54-.29-4.63-.44-9.27-.44h-6.22Z"/>
        <path class="cls-3" d="M538.2,87.48V23.06h12.88v25.36h25.25V23.06h12.88V87.48h-12.88v-28.17h-25.25v28.17h-12.88Z"/>
        <path class="cls-3" d="M660.07,87.48h-14.02l-5.57-14.63h-25.51l-5.27,14.63h-13.67l24.85-64.42h13.62l25.55,64.42Zm-23.72-25.49l-8.79-23.91-8.62,23.91h17.41Zm-16.19-42.63l6.01-13.14h13.71l-11.97,13.14h-7.75Z"/>
        <path class="cls-3" d="M681.27,87.48V33.96h-18.93v-10.9h50.71v10.9h-18.89v53.53h-12.88Z"/>
        <path class="cls-3" d="M760.49,87.48V33.96h-18.93v-10.9h50.71v10.9h-18.89v53.53h-12.88Z"/>
        <path class="cls-3" d="M800.62,87.48V23.06h27.12c6.82,0,11.77,.58,14.87,1.74,3.09,1.16,5.56,3.21,7.42,6.17,1.86,2.96,2.79,6.34,2.79,10.15,0,4.83-1.41,8.83-4.22,11.98s-7.02,5.13-12.62,5.95c2.79,1.64,5.09,3.44,6.9,5.41s4.26,5.45,7.33,10.46l7.79,12.57h-15.41l-9.31-14.02c-3.31-5.01-5.57-8.17-6.79-9.47s-2.51-2.2-3.87-2.68c-1.36-.48-3.53-.72-6.49-.72h-2.61v26.89h-12.88Zm12.88-37.18h9.53c6.18,0,10.04-.26,11.58-.79,1.54-.53,2.74-1.44,3.61-2.72,.87-1.29,1.31-2.9,1.31-4.83,0-2.17-.57-3.92-1.72-5.25-1.15-1.33-2.76-2.17-4.85-2.53-1.04-.15-4.18-.22-9.4-.22h-10.05v16.35Z"/>
        <path class="cls-3" d="M864.56,87.48V23.06h12.88V87.48h-12.88Z"/>
        <path class="cls-3" d="M889.72,87.48V23.06h47.31v10.9h-34.43v14.28h32.04v10.85h-32.04v17.53h35.65v10.85h-48.53Zm24.98-69.87l-4.79,3.25h-8.57l9.49-5.71h7.75l9.49,5.71h-8.57l-4.79-3.25Zm.7-6.15c1.42-.32,2.15-.73,2.18-1.23,.03-.38-.35-.7-1.13-.97-1.13-.38-2.92-.57-5.35-.57-.23,0-.77,.05-1.61,.15-.84,.1-1.55,.17-2.13,.2l-.48-2.86c1.04-.15,2.99-.21,5.83-.18,7.6,.03,11.48,1.05,11.62,3.08,.09,1.99-2.37,3.33-7.36,4v.57h-4.05v-1.93c1.13-.06,1.96-.15,2.48-.26Z"/>
        <path class="cls-3" d="M949.31,87.48V23.06h12.54l26.12,43.02V23.06h11.97V87.48h-12.93l-25.72-42.01v42.01h-11.97Z"/>
        <path class="cls-3" d="M283.26,131.06h25.51c5.05,0,8.81,.21,11.29,.64,2.48,.43,4.7,1.31,6.66,2.66s3.59,3.14,4.9,5.38c1.31,2.24,1.96,4.75,1.96,7.54,0,3.02-.81,5.79-2.42,8.31-1.61,2.52-3.79,4.41-6.55,5.67,3.89,1.14,6.88,3.09,8.97,5.84s3.13,5.99,3.13,9.71c0,2.93-.67,5.78-2.02,8.55-1.35,2.77-3.19,4.98-5.53,6.63-2.34,1.66-5.22,2.67-8.64,3.05-2.15,.23-7.33,.38-15.54,.44h-21.72v-64.42Zm12.88,10.72v14.9h8.44c5.02,0,8.14-.07,9.36-.22,2.2-.26,3.94-1.03,5.2-2.31,1.26-1.28,1.89-2.95,1.89-5.03s-.54-3.61-1.63-4.86c-1.09-1.24-2.71-2-4.85-2.26-1.28-.15-4.95-.22-11.01-.22h-7.4Zm0,25.62v17.23h11.93c4.64,0,7.59-.13,8.84-.4,1.92-.35,3.47-1.21,4.68-2.57,1.2-1.36,1.81-3.19,1.81-5.47,0-1.93-.46-3.57-1.39-4.92-.93-1.35-2.27-2.33-4.03-2.94-1.76-.62-5.56-.92-11.43-.92h-10.4Z"/>
        <path class="cls-3" d="M347.6,195.48v-64.42h47.31v10.9h-34.43v14.28h32.04v10.85h-32.04v17.53h35.65v10.85h-48.53Zm30.12-73.83h-7.7l-11.14-7.16h13.71l5.14,7.16Zm-5.14,3.96l-4.79,3.25h-8.57l9.49-5.71h7.75l9.49,5.71h-8.57l-4.79-3.25Z"/>
        <path class="cls-3" d="M407.18,195.48v-64.42h12.54l26.12,43.02v-43.02h11.97v64.42h-12.93l-25.72-42.01v42.01h-11.97Z"/>
        <path class="cls-3" d="M512.48,195.48l-22.81-64.42h13.97l16.15,47.68,15.63-47.68h13.67l-22.85,64.42h-13.75Z"/>
        <path class="cls-3" d="M610.89,131.06h12.23v8.83c0,3.63-.31,6.47-.94,8.53s-1.76,3.88-3.42,5.49c-2.67,2.58-6.78,4.29-12.32,5.14v5.84c0,7.59-.35,13.05-1.04,16.39-.67,3.13-1.94,5.83-3.83,8.09-4.12,4.8-10.72,7.21-19.8,7.21-10.1,0-17.21-2.56-21.33-7.69-1.83-2.26-3.03-4.63-3.61-7.12-.84-3.66-1.26-9.11-1.26-16.35v-34.37h12.88v34.89c0,5.6,.16,9.18,.48,10.77,1.19,5.83,5.34,8.75,12.45,8.75s10.72-2.61,11.62-7.82c.38-2.2,.57-5.84,.57-10.94v-35.64h12.88v22.98c4.21-.79,7.14-2.33,8.79-4.61,.99-1.35,1.51-3.35,1.57-6.02h-5.92v-12.35Zm-39.3-3.56h-5.57c-.03-.67-.04-1.2-.04-1.58,0-3.08,.74-5.44,2.22-7.1,1.48-1.66,3.38-2.48,5.7-2.48,1.02,0,1.96,.11,2.83,.33,.87,.22,2.46,.85,4.77,1.89s4.11,1.56,5.42,1.56c.93,0,1.7-.29,2.33-.88,.62-.59,1.02-1.57,1.2-2.94h5.66c-.03,3.96-.76,6.78-2.2,8.48s-3.29,2.55-5.55,2.55c-.99,0-1.96-.1-2.92-.31-.67-.18-2.34-.78-5.01-1.8s-4.61-1.54-5.83-1.54c-.93,0-1.65,.29-2.18,.86-.52,.57-.8,1.56-.83,2.97Z"/>
        <path class="cls-3" d="M629.73,195.48v-64.42h12.54l26.12,43.02v-43.02h11.97v64.42h-12.93l-25.72-42.01v42.01h-11.97Z"/>
        <path class="cls-3" d="M723.67,171.8v-10.85h27.77v25.66c-2.7,2.64-6.61,4.96-11.73,6.96-5.12,2.01-10.31,3.01-15.56,3.01-6.67,0-12.49-1.41-17.45-4.24-4.96-2.83-8.69-6.87-11.19-12.13-2.5-5.26-3.74-10.98-3.74-17.16,0-6.71,1.39-12.67,4.18-17.89,2.79-5.21,6.86-9.21,12.23-12,4.09-2.14,9.18-3.21,15.28-3.21,7.92,0,14.11,1.68,18.56,5.03s7.32,7.99,8.6,13.91l-12.8,2.42c-.9-3.16-2.59-5.66-5.07-7.49-2.48-1.83-5.58-2.75-9.29-2.75-5.63,0-10.11,1.8-13.43,5.41-3.32,3.6-4.98,8.95-4.98,16.04,0,7.65,1.68,13.38,5.05,17.21,3.37,3.82,7.78,5.73,13.23,5.73,2.7,0,5.4-.53,8.12-1.6,2.71-1.07,5.04-2.37,6.99-3.89v-8.17h-14.75Z"/>
      </g>
      <g>
        <path class="cls-2" d="M38.38,93.58c-7.52,0-14.23-1.65-19.93-4.9-5.85-3.33-10.3-8.15-13.23-14.33-2.8-5.91-4.23-12.4-4.23-19.3,0-7.51,1.6-14.32,4.77-20.24,3.26-6.1,8.08-10.84,14.34-14.08,4.78-2.5,10.7-3.77,17.58-3.77,8.99,0,16.25,2.03,21.57,6.04,5.42,4.08,8.94,9.75,10.48,16.85,.28,1.32,.02,2.7-.72,3.82-.75,1.12-1.91,1.9-3.24,2.15l-11.27,2.13h11.17c2.76,0,5,2.24,5,5v25.66c0,1.35-.54,2.64-1.51,3.58-3.21,3.14-7.6,5.77-13.4,8.04-5.68,2.23-11.53,3.35-17.38,3.35Zm-.7-55.5c-4.21,0-7.4,1.24-9.75,3.79-2.43,2.63-3.66,6.89-3.66,12.65,0,6.36,1.28,11.04,3.8,13.9,2.43,2.75,5.44,4.04,9.48,4.04,2.06,0,4.17-.42,6.28-1.26,1.4-.55,2.68-1.18,3.82-1.86v-.55h-9.76c-2.76,0-5-2.24-5-5v-10.85c0-2.76,2.24-5,5-5h12.24c-1.37-.57-2.47-1.73-2.91-3.26-.59-2.09-1.65-3.67-3.23-4.84-1.61-1.19-3.68-1.77-6.32-1.77Z"/>
        <rect class="cls-2" x="72.17" y="18.06" width="22.88" height="74.42" rx="5" ry="5"/>
        <path class="cls-2" d="M145.85,92.48c-2.08,0-3.93-1.28-4.67-3.22l-4.35-11.41h-18.55l-4.08,11.33c-.71,1.98-2.6,3.31-4.7,3.31h-13.67c-1.65,0-3.19-.81-4.12-2.17-.93-1.36-1.14-3.09-.54-4.63l24.55-63.64c-.9-1.43-1.02-3.21-.32-4.75l6.01-13.14c.81-1.78,2.59-2.92,4.55-2.92h13.71c1.98,0,3.77,1.17,4.57,2.98s.46,3.92-.88,5.39l-7.84,8.61c1.54,.38,2.84,1.49,3.44,3.01l25.55,64.42c.61,1.54,.42,3.28-.51,4.65-.93,1.37-2.48,2.19-4.14,2.19h-14.02Zm-16.87-35.49l-1.58-4.29-1.55,4.29h3.13Z"/>
        <path class="cls-2" d="M195.12,93.58c-10.86,0-19.69-3.47-26.24-10.31-6.5-6.78-9.79-16.07-9.79-27.61,0-7.23,1.12-13.46,3.33-18.52,1.69-3.82,4.02-7.28,6.92-10.3,2.97-3.09,6.3-5.42,9.91-6.94,4.56-1.95,9.85-2.94,15.7-2.94,10.77,0,19.58,3.49,26.18,10.37,6.54,6.82,9.86,16.25,9.86,28.03s-3.29,21.05-9.78,27.86c-6.55,6.88-15.33,10.36-26.08,10.36Zm-.04-55.5c-3.9,0-6.79,1.22-9.09,3.83-2.4,2.72-3.62,7.2-3.62,13.32s1.26,10.47,3.75,13.27c2.4,2.7,5.25,3.96,8.97,3.96s6.54-1.24,8.89-3.91c2.45-2.78,3.69-7.32,3.69-13.5s-1.2-10.54-3.56-13.21c-2.26-2.56-5.13-3.76-9.03-3.76Z"/>
        <path class="cls-2" d="M260.76,92.48c-2.76,0-5-2.24-5-5V23.06c0-2.76,2.24-5,5-5h23.55c5.85,0,10.28,.47,13.56,1.43,4.6,1.37,8.58,3.82,11.85,7.31,3.15,3.35,5.57,7.48,7.19,12.26,1.56,4.61,2.35,10.28,2.35,16.83,0,5.83-.75,10.98-2.22,15.32-1.84,5.41-4.56,9.9-8.07,13.34-2.78,2.73-6.48,4.86-11.01,6.33-3.39,1.08-7.62,1.61-12.94,1.61h-24.24Zm22.5-20.85c4.15,0,5.88-.29,6.55-.46,1.31-.33,2.31-.83,3.07-1.53,.31-.29,1.14-1.25,1.96-3.97,.73-2.4,1.09-5.89,1.09-10.35,0-5.52-.58-8.44-1.06-9.92-.61-1.86-1.4-3.26-2.35-4.17-.9-.86-2.07-1.44-3.58-1.77-.69-.16-2.91-.5-9.51-.5h-.79v32.67h4.62Z"/>
        <path class="cls-2" d="M344.72,110.1c-2.76,0-5-2.24-5-5v-12.35c0-.1,0-.2,0-.3-1.62-.38-3.06-.87-4.36-1.45-3.86-1.74-6.99-4.08-9.3-6.96-2.29-2.85-3.84-5.92-4.59-9.14-.94-4.12-1.39-9.83-1.39-17.48V23.06c0-2.76,2.24-5,5-5h12.88c2.76,0,5,2.24,5,5V57.95c0,7.06,.27,9.21,.39,9.81,.29,1.4,.96,2.48,2.08,3.34,1.17,.9,3.01,1.36,5.46,1.36,3.23,0,4.59-.72,5.12-1.14,.92-.75,1.41-1.53,1.58-2.53,.23-1.31,.49-4.13,.49-10.1V23.06c0-2.76,2.24-5,5-5h12.88c2.76,0,5,2.24,5,5V56.9c0,8.17-.38,13.88-1.16,17.46-.87,3.99-2.53,7.44-4.93,10.26-2.38,2.79-5.54,5.02-9.4,6.63-1.11,.46-2.29,.85-3.55,1.17,0,.11,.01,.23,.01,.34v12.35c0,2.76-2.24,5-5,5h-12.23Z"/>
        <path class="cls-2" d="M416.37,93.58c-9.87,0-18.13-3.48-24.55-10.35-6.32-6.77-9.53-15.99-9.53-27.38,0-11.97,3.21-21.52,9.56-28.38,6.44-6.97,14.96-10.5,25.3-10.5,9.1,0,16.66,2.82,22.48,8.37,3.54,3.36,6.2,8.12,7.89,14.13,.37,1.31,.19,2.71-.5,3.88s-1.82,2.01-3.14,2.33l-12.75,3.08c-.39,.09-.78,.14-1.17,.14-.92,0-1.84-.26-2.64-.75-1.14-.71-1.94-1.84-2.24-3.14-.5-2.23-1.48-3.91-2.99-5.12-1.49-1.2-3.32-1.79-5.59-1.79-3.27,0-5.73,1.08-7.72,3.4-2.1,2.44-3.21,7.08-3.21,13.4,0,8.59,1.73,12.46,3.18,14.19,1.95,2.32,4.33,3.4,7.49,3.4,2.2,0,3.96-.65,5.51-2.03,1.66-1.48,2.93-4.09,3.76-7.75,.31-1.37,1.18-2.54,2.4-3.23,.76-.44,1.62-.66,2.48-.66,.51,0,1.03,.08,1.52,.24l12.49,4c2.55,.82,4,3.49,3.3,6.08-2.2,8.08-6.02,14.24-11.34,18.32-5.33,4.08-12.05,6.15-19.99,6.15Z"/>
        <path class="cls-2" d="M478.7,92.48c-2.76,0-5-2.24-5-5V23.06c0-2.76,2.24-5,5-5h20.67c11.13,0,14.82,.65,16.63,1.14,4.71,1.25,8.71,3.97,11.85,8.1,3.13,4.11,4.72,9.35,4.72,15.58,0,4.76-.91,8.9-2.71,12.31-1.79,3.4-4.14,6.12-6.97,8.11-2.72,1.91-5.57,3.21-8.48,3.84-3.53,.71-8.22,1.04-14.44,1.04h-3.4v19.3c0,2.76-2.24,5-5,5h-12.88Zm19.94-45.24c6.35,0,8.07-.55,8.35-.66,.77-.3,1.32-.72,1.72-1.32,.41-.6,.6-1.3,.6-2.21,0-1.42-.41-2.06-.77-2.47-.63-.7-1.35-1.09-2.35-1.27-.59-.11-2.52-.36-8.37-.36h-1.22v8.28h2.05Z"/>
        <path class="cls-2" d="M576.33,92.48c-2.76,0-5-2.24-5-5v-23.17h-15.25v23.17c0,2.76-2.24,5-5,5h-12.88c-2.76,0-5-2.24-5-5V23.06c0-2.76,2.24-5,5-5h12.88c2.76,0,5,2.24,5,5v20.36h15.25V23.06c0-2.76,2.24-5,5-5h12.88c2.76,0,5,2.24,5,5V87.48c0,2.76-2.24,5-5,5h-12.88Z"/>
        <path class="cls-2" d="M646.06,92.48c-2.08,0-3.93-1.28-4.67-3.22l-4.34-11.41h-18.55l-4.08,11.33c-.71,1.98-2.6,3.31-4.7,3.31h-13.67c-1.65,0-3.19-.81-4.12-2.17-.93-1.36-1.14-3.09-.54-4.63l24.55-63.64c-.9-1.43-1.02-3.21-.32-4.75l6.01-13.14c.81-1.78,2.59-2.92,4.55-2.92h13.71c1.98,0,3.77,1.17,4.57,2.98s.46,3.92-.88,5.39l-7.84,8.61c1.54,.38,2.84,1.49,3.44,3.01l25.55,64.42c.61,1.54,.42,3.28-.51,4.65-.93,1.37-2.48,2.19-4.14,2.19h-14.02Zm-16.87-35.49l-1.58-4.29-1.55,4.29h3.13Z"/>
        <path class="cls-2" d="M681.27,92.48c-2.76,0-5-2.24-5-5V38.96h-13.93c-2.76,0-5-2.24-5-5v-10.9c0-2.76,2.24-5,5-5h50.71c2.76,0,5,2.24,5,5v10.9c0,2.76-2.24,5-5,5h-13.89v48.53c0,2.76-2.24,5-5,5h-12.88Z"/>
        <path class="cls-2" d="M760.49,92.48c-2.76,0-5-2.24-5-5V38.96h-13.93c-2.76,0-5-2.24-5-5v-10.9c0-2.76,2.24-5,5-5h50.71c2.76,0,5,2.24,5,5v10.9c0,2.76-2.24,5-5,5h-13.89v48.53c0,2.76-2.24,5-5,5h-12.88Z"/>
        <path class="cls-2" d="M842.58,92.48c-1.67,0-3.24-.84-4.16-2.23l-9.31-14.02c-4.12-6.24-5.7-8.21-6.28-8.82-.66-.71-1.3-1.17-1.9-1.38-.2-.07-.87-.26-2.42-.36v21.82c0,2.76-2.24,5-5,5h-12.88c-2.76,0-5-2.24-5-5V23.06c0-2.76,2.24-5,5-5h27.12c7.49,0,12.93,.67,16.62,2.05,4.13,1.55,7.46,4.3,9.9,8.2,2.36,3.76,3.55,8.06,3.55,12.81,0,6.08-1.85,11.23-5.49,15.31-1.62,1.82-3.58,3.33-5.87,4.54,.03,.03,.06,.06,.09,.09,2.05,2.22,4.64,5.9,7.92,11.24l7.78,12.55c.96,1.54,1,3.48,.12,5.07-.88,1.58-2.55,2.57-4.37,2.57h-15.41Zm-19.54-47.18c7.84,0,9.69-.44,9.98-.53,.62-.21,.89-.52,1.07-.79,.37-.55,.45-1.41,.45-2.04,0-.93-.17-1.6-.51-1.99-.13-.15-.52-.61-1.81-.84-.41-.05-2.09-.16-8.65-.16h-5.05v6.35h4.53Z"/>
        <rect class="cls-2" x="859.56" y="18.06" width="22.88" height="74.42" rx="5" ry="5"/>
        <path class="cls-2" d="M889.72,92.48c-2.76,0-5-2.24-5-5V23.06c0-2.76,2.24-5,5-5h7.48c.4-.59,.92-1.1,1.56-1.48l5.72-3.44c-1.06-.75-1.83-1.9-2.06-3.27l-.48-2.86c-.22-1.33,.1-2.7,.9-3.78,.8-1.09,2-1.81,3.34-1.99,1.13-.16,2.77-.23,5.18-.23,.44,0,.91,0,1.4,0,5.17,.02,16.01,.06,16.56,7.72,0,.05,0,.09,0,.14,.08,1.78-.4,3.82-2.25,5.56l3.58,2.15c.64,.38,1.16,.89,1.56,1.48h4.83c2.76,0,5,2.24,5,5v10.9c0,2.76-2.24,5-5,5h-29.43v4.28h27.04c2.76,0,5,2.24,5,5v10.85c0,2.76-2.24,5-5,5h-27.04v7.53h30.65c2.76,0,5,2.24,5,5v10.85c0,2.76-2.24,5-5,5h-48.53Z"/>
        <path class="cls-2" d="M987,92.48c-1.74,0-3.36-.9-4.26-2.39l-16.46-26.88v24.27c0,2.76-2.24,5-5,5h-11.97c-2.76,0-5-2.24-5-5V23.06c0-2.76,2.24-5,5-5h12.54c1.75,0,3.37,.91,4.27,2.41l16.84,27.75V23.06c0-2.76,2.24-5,5-5h11.97c2.76,0,5,2.24,5,5V87.48c0,2.76-2.24,5-5,5h-12.93Z"/>
        <path class="cls-2" d="M283.26,200.48c-2.76,0-5-2.24-5-5v-64.42c0-2.76,2.24-5,5-5h25.51c5.38,0,9.35,.23,12.14,.71,3.19,.55,6.1,1.71,8.65,3.47,2.56,1.76,4.71,4.11,6.38,6.99,1.75,3,2.64,6.38,2.64,10.05,0,3.97-1.08,7.67-3.2,11-.47,.73-.97,1.42-1.51,2.07,1.4,1.08,2.64,2.33,3.7,3.73,2.75,3.63,4.15,7.91,4.15,12.73,0,3.68-.85,7.29-2.53,10.74-1.72,3.52-4.12,6.39-7.13,8.53-3.02,2.14-6.72,3.47-10.98,3.94-2.35,.26-7.6,.41-16.06,.47h-21.76Zm24.81-20.85c6.13,0,7.58-.24,7.8-.29,.04,0,.09-.02,.13-.03,1.04-.19,1.53-.62,1.84-.97,.36-.41,.55-1.14,.55-2.16,0-.9-.17-1.59-.51-2.09-.2-.29-.58-.72-1.56-1.06-.31-.11-2.21-.64-9.77-.64h-5.4v7.23h6.93Zm-3.48-27.95c6.53,0,8.3-.13,8.76-.18,1.05-.13,1.8-.42,2.25-.86,.13-.13,.44-.45,.44-1.51s-.3-1.45-.4-1.57c-.23-.27-.87-.49-1.7-.59-.45-.05-2.45-.18-10.4-.18h-2.4v4.9h3.44Z"/>
        <path class="cls-2" d="M347.6,200.48c-2.76,0-5-2.24-5-5v-64.42c0-2.76,2.24-5,5-5h7.48c.4-.59,.92-1.1,1.56-1.48l4.48-2.7-4.95-3.18c-1.87-1.2-2.72-3.49-2.09-5.62,.63-2.13,2.58-3.59,4.8-3.59h13.71c1.61,0,3.12,.78,4.06,2.09l5.14,7.16c.5,.7,.8,1.5,.9,2.32l5.84,3.52c.64,.38,1.16,.89,1.56,1.48h4.83c2.76,0,5,2.24,5,5v10.9c0,2.76-2.24,5-5,5h-29.43v4.28h27.04c2.76,0,5,2.24,5,5v10.85c0,2.76-2.24,5-5,5h-27.04v7.53h30.65c2.76,0,5,2.24,5,5v10.85c0,2.76-2.24,5-5,5h-48.53Z"/>
        <path class="cls-2" d="M444.88,200.48c-1.74,0-3.36-.9-4.26-2.39l-16.46-26.88v24.27c0,2.76-2.24,5-5,5h-11.97c-2.76,0-5-2.24-5-5v-64.42c0-2.76,2.24-5,5-5h12.54c1.75,0,3.37,.91,4.27,2.41l16.84,27.74v-25.15c0-2.76,2.24-5,5-5h11.97c2.76,0,5,2.24,5,5v64.42c0,2.76-2.24,5-5,5h-12.93Z"/>
        <path class="cls-2" d="M512.48,200.48c-2.12,0-4.01-1.33-4.71-3.33l-22.81-64.42c-.54-1.53-.31-3.23,.63-4.55,.94-1.33,2.46-2.11,4.08-2.11h13.97c2.14,0,4.05,1.37,4.74,3.4l11.33,33.47,10.95-33.42c.67-2.05,2.59-3.44,4.75-3.44h13.67c1.62,0,3.15,.79,4.08,2.12s1.17,3.03,.63,4.56l-22.85,64.42c-.71,2-2.6,3.33-4.71,3.33h-13.75Z"/>
        <path class="cls-2" d="M581.77,201.58c-11.64,0-20.13-3.22-25.23-9.56-2.29-2.82-3.83-5.9-4.58-9.12-.94-4.08-1.39-9.79-1.39-17.48v-34.37c0-2.76,2.24-5,5-5h5.4s0-.1,0-.14c0-4.33,1.18-7.84,3.49-10.43,2.43-2.71,5.69-4.15,9.43-4.15,1.42,0,2.78,.16,4.05,.48,.82,.21,2.18,.64,5.6,2.18,.9,.41,1.59,.67,2.11,.83,.63-2.07,2.55-3.54,4.78-3.54h5.66c1.33,0,2.61,.53,3.55,1.48s1.46,2.23,1.45,3.56c-.03,4.05-.7,7.26-2.05,9.73h7.41c.8,0,1.55,.19,2.22,.52,.67-.33,1.42-.52,2.22-.52h12.23c2.76,0,5,2.24,5,5v8.83c0,4.17-.38,7.43-1.15,9.98-.87,2.86-2.45,5.42-4.71,7.62-2.65,2.56-6.27,4.45-10.81,5.63v1.77c0,8-.38,13.7-1.15,17.41-.84,3.95-2.48,7.4-4.89,10.27-5.14,5.99-13.08,9-23.64,9Zm-8.32-35.63c0,7.13,.27,9.21,.38,9.78,.47,2.29,1.47,4.73,7.55,4.73s6.46-2.3,6.69-3.67c.22-1.31,.49-4.13,.49-10.09v-34.38c-.07,0-.15,0-.22,0-1.33,0-2.67-.14-3.96-.42-.08-.02-.15-.03-.22-.05-.62-.16-1.77-.53-5.53-1.97-.96-.37-1.71-.62-2.3-.8-.46,1.4-1.53,2.52-2.88,3.06v33.81Z"/>
        <path class="cls-2" d="M667.43,200.48c-1.74,0-3.36-.9-4.26-2.39l-16.46-26.88v24.27c0,2.76-2.24,5-5,5h-11.97c-2.76,0-5-2.24-5-5v-64.42c0-2.76,2.24-5,5-5h12.54c1.75,0,3.37,.91,4.27,2.41l16.84,27.75v-25.15c0-2.76,2.24-5,5-5h11.97c2.76,0,5,2.24,5,5v64.42c0,2.76-2.24,5-5,5h-12.93Z"/>
        <path class="cls-2" d="M724.14,201.58c-7.52,0-14.23-1.65-19.93-4.9-5.85-3.33-10.3-8.15-13.23-14.33-2.8-5.91-4.23-12.4-4.23-19.3,0-7.51,1.6-14.32,4.77-20.24,3.26-6.1,8.08-10.84,14.34-14.08,4.78-2.5,10.7-3.77,17.58-3.77,8.99,0,16.25,2.03,21.57,6.04,5.42,4.08,8.94,9.75,10.48,16.85,.28,1.32,.02,2.7-.72,3.82-.75,1.12-1.91,1.9-3.24,2.15l-11.27,2.13h11.17c2.76,0,5,2.24,5,5v25.66c0,1.35-.54,2.64-1.51,3.58-3.21,3.14-7.6,5.77-13.4,8.04-5.68,2.23-11.53,3.35-17.38,3.35Zm-.7-55.5c-4.21,0-7.4,1.24-9.75,3.79-2.43,2.63-3.66,6.89-3.66,12.65,0,6.36,1.28,11.04,3.8,13.9,2.43,2.75,5.44,4.04,9.48,4.04,2.06,0,4.17-.42,6.29-1.26,1.4-.55,2.68-1.17,3.82-1.86v-.55h-9.75c-2.76,0-5-2.24-5-5v-10.85c0-2.76,2.24-5,5-5h12.24c-1.37-.57-2.47-1.73-2.91-3.26-.59-2.09-1.65-3.67-3.23-4.84-1.61-1.19-3.68-1.77-6.32-1.77Z"/>
      </g>
    </g>
  </g>
</svg>