<?xml version="1.0" encoding="UTF-8"?>
<svg id="Layer_2" data-name="Layer 2" xmlns="http://www.w3.org/2000/svg" xmlns:xlink="http://www.w3.org/1999/xlink" viewBox="0 0 61.8 43.02">
  <defs>
    <style>
      .cls-1 {
        fill: url(#New_Gradient_Swatch_copy_4);
      }

      .cls-2 {
        fill: url(#New_Gradient_Swatch_copy_4-3);
      }

      .cls-3 {
        fill: url(#New_Gradient_Swatch_copy_4-2);
      }

      .cls-4 {
        fill: url(#linear-gradient);
      }
    </style>
    <linearGradient id="New_Gradient_Swatch_copy_4" data-name="New Gradient Swatch copy 4" x1="43.83" y1="0" x2="43.83" y2="44.03" gradientUnits="userSpaceOnUse">
      <stop offset=".44" stop-color="#153177"/>
      <stop offset="1" stop-color="#2aacba"/>
    </linearGradient>
    <linearGradient id="linear-gradient" x1="17.97" y1="0" x2="17.97" y2="45.59" gradientUnits="userSpaceOnUse">
      <stop offset=".44" stop-color="#153177"/>
      <stop offset="1" stop-color="#2aacba"/>
    </linearGradient>
    <linearGradient id="New_Gradient_Swatch_copy_4-2" data-name="New Gradient Swatch copy 4" x1="11.48" y1="6.07" x2="11.48" y2="54.27" xlink:href="#New_Gradient_Swatch_copy_4"/>
    <linearGradient id="New_Gradient_Swatch_copy_4-3" data-name="New Gradient Swatch copy 4" x1="50.27" y1="5.97" x2="50.27" y2="53.86" xlink:href="#New_Gradient_Swatch_copy_4"/>
  </defs>
  <g id="element">
    <g>
      <path class="cls-1" d="M33.06,37.21v-.67c0-10.93,0-21.87-.01-32.8,0-.48,.19-.7,.67-.91C37.66,1.14,41.79,.05,46.24,0c2.28-.02,4.52,.25,6.71,.81,1.11,.28,1.67,.94,1.67,1.94,0,9.87,0,19.73,0,29.6,0,1.34-1.25,2.26-2.67,1.9-6.01-1.5-11.58-.4-16.94,2.04-.61,.28-1.22,.57-1.95,.92Z"/>
      <path class="cls-4" d="M28.74,37.2c-.32-.15-.55-.26-.78-.37-3.21-1.57-6.57-2.76-10.26-3.15-2.48-.26-4.92-.11-7.34,.46-2.03,.48-3.19-.29-3.19-2.1,0-9.67,0-19.33,0-29,0-1.42,.47-1.94,2.05-2.32C14.88-.62,20.34-.01,25.67,1.89c.87,.31,1.71,.68,2.57,1,.38,.14,.52,.34,.51,.7-.03,1.47-.01,2.95-.01,4.43,0,9.49,0,18.98,0,28.47,0,.21,0,.41,0,.7Z"/>
      <path class="cls-3" d="M22.97,37.56c-4.43,.1-8.62,.79-12.66,2.1-2.38,.77-4.67,1.7-6.77,2.94-.77,.46-1.57,.58-2.4,.19C.32,42.41,0,41.79,0,41,0,30.19,0,19.38,0,8.57c0-1.15,.54-1.75,1.83-2.06,.71-.17,1.44-.29,2.16-.43,.08-.02,.17,0,.32,0,0,.25,0,.48,0,.71,0,8.46,0,16.93,0,25.39,0,2.19,1.28,3.81,3.48,4.42,1.06,.3,2.11,.25,3.18,0,4.04-.99,7.95-.53,11.78,.8,.05,.02,.09,.07,.22,.18Z"/>
      <path class="cls-2" d="M57.48,5.97c1.07,.24,2.04,.41,2.96,.69,.83,.25,1.28,.82,1.34,1.6,.01,.19,.01,.39,.01,.58,0,10.62,0,21.24,0,31.86,0,.33,.01,.67-.09,.98-.39,1.23-2.04,1.73-3.31,.99-3.18-1.85-6.67-3.1-10.35-3.97-2.98-.7-6.02-1.08-9.31-1.14,.32-.15,.47-.23,.64-.29,3.81-1.26,7.67-1.61,11.67-.65,3.45,.83,6.43-1.25,6.43-4.42,.01-8.47,0-16.93,0-25.4,0-.23,0-.46,0-.84Z"/>
    </g>
  </g>
</svg>