<?xml version="1.0" encoding="UTF-8"?>
<svg id="Layer_2" data-name="Layer 2" xmlns="http://www.w3.org/2000/svg" xmlns:xlink="http://www.w3.org/1999/xlink" viewBox="0 0 45.97 45.97">
  <defs>
    <style>
      .cls-1 {
        fill: url(#linear-gradient-2);
      }

      .cls-2 {
        fill: url(#linear-gradient-3);
      }

      .cls-3 {
        fill: url(#linear-gradient);
      }

      .cls-4 {
        fill: url(#linear-gradient-4);
      }
    </style>
    <linearGradient id="linear-gradient" x1="34.7" y1="0" x2="34.7" y2="34.71" gradientUnits="userSpaceOnUse">
      <stop offset=".44" stop-color="#153177"/>
      <stop offset="1" stop-color="#2aacba"/>
    </linearGradient>
    <linearGradient id="linear-gradient-2" x1="11.27" y1="0" x2="11.27" y2="33.01" xlink:href="#linear-gradient"/>
    <linearGradient id="linear-gradient-3" x1="34.69" y1="23.44" x2="34.69" y2="54.23" xlink:href="#linear-gradient"/>
    <linearGradient id="linear-gradient-4" x1="11.26" y1="23.4" x2="11.26" y2="53.86" xlink:href="#linear-gradient"/>
  </defs>
  <g id="element">
    <g>
      <path class="cls-3" d="M23.44,16.45c.05-4.34,.73-8.06,2.77-11.43,1-1.65,2.21-3.1,3.89-4.1,3.43-2.04,6.86-.52,7.63,3.39,.14,.68,.17,1.39,.21,2.08,.05,1.09,.54,1.61,1.63,1.64,1.14,.02,2.25,.15,3.32,.58,2.58,1.01,3.69,3.43,2.76,6.04-.56,1.57-1.6,2.79-2.87,3.83-2.58,2.13-5.59,3.24-8.86,3.75-2.37,.37-4.76,.37-7.14,.11-1.63-.17-2.96-1.45-3.13-3.07-.11-1.09-.16-2.18-.21-2.82Z"/>
      <path class="cls-1" d="M16.46,22.53c-4.27-.04-7.96-.7-11.32-2.69-1.73-1.03-3.29-2.27-4.27-4.08-.39-.73-.71-1.55-.81-2.37-.28-2.35,1.04-4.22,3.48-4.93,.92-.27,1.9-.34,2.86-.42,1.08-.09,1.61-.56,1.62-1.65,.02-1.14,.15-2.25,.58-3.32C9.69,.41,12.19-.67,14.86,.41c2.05,.83,3.47,2.38,4.65,4.19,1.63,2.5,2.47,5.28,2.83,8.22,.26,2.09,.23,4.19,.02,6.29-.18,1.77-1.48,3.09-3.26,3.24-1.02,.09-2.04,.15-2.64,.19Z"/>
      <path class="cls-2" d="M23.4,29.98c.08-1.1,.13-2.19,.24-3.28,.16-1.54,1.37-2.84,2.92-3.03,4.42-.52,8.75-.19,12.85,1.71,2.13,.99,4.01,2.32,5.37,4.28,.91,1.31,1.42,2.75,1.09,4.37-.39,1.88-1.69,2.97-3.45,3.48-.9,.26-1.86,.35-2.81,.42-1.15,.09-1.65,.55-1.67,1.71-.02,1.19-.17,2.36-.67,3.46-1.19,2.65-3.8,3.58-6.52,2.3-1.87-.88-3.2-2.35-4.3-4.04-1.63-2.5-2.47-5.28-2.82-8.22-.12-1.05-.16-2.11-.24-3.16Z"/>
      <path class="cls-4" d="M16.01,23.4c1.11,.08,2.19,.13,3.26,.24,1.54,.16,2.85,1.35,3.04,2.91,.53,4.46,.19,8.82-1.75,12.94-.9,1.92-2.11,3.63-3.8,4.96-.98,.77-2.05,1.33-3.3,1.47-2.07,.23-3.75-.74-4.67-2.65-.53-1.11-.72-2.29-.74-3.5-.03-1.37-.47-1.81-1.86-1.85-1.16-.03-2.28-.2-3.35-.68-2.43-1.11-3.41-3.42-2.49-5.94,.68-1.88,2.02-3.24,3.6-4.39,2.65-1.93,5.66-2.89,8.88-3.28,1.07-.13,2.15-.16,3.19-.24Z"/>
    </g>
  </g>
</svg>