<?xml version="1.0" encoding="UTF-8"?>
<svg id="Layer_2" data-name="Layer 2" xmlns="http://www.w3.org/2000/svg" xmlns:xlink="http://www.w3.org/1999/xlink" viewBox="0 0 45.78 45.78">
  <defs>
    <style>
      .cls-1 {
        fill: url(#linear-gradient-2);
      }

      .cls-2 {
        fill: url(#linear-gradient);
      }
    </style>
    <linearGradient id="linear-gradient" x1="22.89" y1="0" x2="22.89" y2="59.37" gradientUnits="userSpaceOnUse">
      <stop offset=".44" stop-color="#153177"/>
      <stop offset="1" stop-color="#2aacba"/>
    </linearGradient>
    <linearGradient id="linear-gradient-2" x1="26.5" y1="12.02" x2="26.5" y2="40.62" xlink:href="#linear-gradient"/>
  </defs>
  <g id="element">
    <g>
      <path class="cls-2" d="M39.11,6.71C34.79,2.38,29.03,0,22.88,0S11.04,2.36,6.74,6.64C2.4,10.96,0,16.72,0,22.87c0,6.13,2.36,11.89,6.67,16.21,4.32,4.33,10.08,6.71,16.23,6.71s11.87-2.37,16.18-6.67c4.32-4.31,6.7-10.06,6.71-16.19s-2.36-11.89-6.67-16.21ZM22.89,39.33h0c-4.41,0-8.55-1.71-11.64-4.81-3.09-3.1-4.8-7.24-4.79-11.65,0-4.41,1.71-8.53,4.81-11.62,3.1-3.09,7.23-4.79,11.63-4.79s8.54,1.71,11.64,4.81c3.1,3.1,4.8,7.24,4.79,11.65,0,4.41-1.71,8.53-4.81,11.62-3.1,3.09-7.23,4.79-11.63,4.79Z"/>
      <path class="cls-1" d="M32.2,28.69l-.51-.51c-2.23-2.24-4.47-4.47-6.71-6.7-.11-.11-.13-.15-.12-.3,.09-1.63,.16-3.25,.24-4.88l.08-1.64c0-.15,.01-.3,0-.45-.04-.94-.53-1.65-1.36-2-.3-.13-.61-.19-.91-.19-.53,0-1.04,.19-1.52,.55-.64,.49-.99,1.19-1.03,2.09v.21c-.12,2.44-.22,4.89-.36,7.33-.05,.87,.22,1.58,.83,2.17,.95,.93,1.88,1.87,2.82,2.81l4.97,4.97c.15,.15,.31,.3,.49,.43,.37,.28,.83,.42,1.31,.42,.84,0,1.66-.44,2.13-1.15,.7-1.06,.57-2.24-.35-3.16Z"/>
    </g>
  </g>
</svg>