<?xml version="1.0" encoding="UTF-8"?>
<svg id="Layer_2" data-name="Layer 2" xmlns="http://www.w3.org/2000/svg" xmlns:xlink="http://www.w3.org/1999/xlink" viewBox="0 0 46.3 43.94">
  <defs>
    <style>
      .cls-1 {
        fill: url(#linear-gradient-2);
      }

      .cls-2 {
        fill: url(#linear-gradient-6);
      }

      .cls-3 {
        fill: url(#linear-gradient-5);
      }

      .cls-4 {
        fill: url(#linear-gradient-3);
      }

      .cls-5 {
        fill: url(#linear-gradient);
      }

      .cls-6 {
        fill: url(#linear-gradient-4);
      }
    </style>
    <linearGradient id="linear-gradient" x1="29.43" y1="-.37" x2="29.43" y2="9.03" gradientUnits="userSpaceOnUse">
      <stop offset=".44" stop-color="#153177"/>
      <stop offset="1" stop-color="#279db2"/>
    </linearGradient>
    <linearGradient id="linear-gradient-2" x1="29.45" y1="36.66" x2="29.45" y2="45.2" gradientUnits="userSpaceOnUse">
      <stop offset=".44" stop-color="#153177"/>
      <stop offset="1" stop-color="#2594ad"/>
    </linearGradient>
    <linearGradient id="linear-gradient-3" x1="29.44" y1="18.55" x2="29.44" y2="27.63" gradientUnits="userSpaceOnUse">
      <stop offset=".44" stop-color="#153177"/>
      <stop offset=".95" stop-color="#2594ad"/>
      <stop offset="1" stop-color="#279db2"/>
    </linearGradient>
    <linearGradient id="linear-gradient-4" x1="3.92" y1="0" x2="3.92" y2="10.27" xlink:href="#linear-gradient"/>
    <linearGradient id="linear-gradient-5" x1="3.92" y1="36.05" x2="3.92" y2="43.94" gradientUnits="userSpaceOnUse">
      <stop offset=".44" stop-color="#153177"/>
      <stop offset=".95" stop-color="#2594ad"/>
    </linearGradient>
    <linearGradient id="linear-gradient-6" x1="3.92" y1="18.05" x2="3.92" y2="28.43" xlink:href="#linear-gradient"/>
  </defs>
  <g id="element">
    <g>
      <path class="cls-5" d="M29.4,7.28c-4.49,0-8.98,.01-13.47,0-1.68,0-3-1.16-3.3-2.82-.27-1.5,.66-3.1,2.15-3.62,.43-.15,.91-.23,1.36-.23,8.88-.01,17.76-.01,26.63,0,1.89,0,3.3,1.22,3.49,2.95,.19,1.73-.85,3.23-2.55,3.64-.37,.09-.77,.09-1.15,.09-4.39,0-8.77,0-13.16,0Z"/>
      <path class="cls-1" d="M29.45,36.66c4.52,0,9.03,0,13.55,0,1.45,0,2.64,.89,3.11,2.25,.45,1.3,.1,2.82-1.04,3.61-.62,.43-1.45,.78-2.19,.78-8.95,.05-17.91,.04-26.87,.03-1.95,0-3.43-1.51-3.42-3.37,.01-1.87,1.5-3.3,3.46-3.31,4.46,0,8.93,0,13.39,0Z"/>
      <path class="cls-4" d="M29.4,18.64c4.46,0,8.93-.01,13.39,0,2.25,0,3.72,1.66,3.45,3.8-.19,1.47-1.39,2.66-2.86,2.81-.26,.03-.51,.04-.77,.04-8.77,0-17.55,0-26.32,0-1.95,0-3.21-.92-3.61-2.61-.45-1.9,.92-3.85,2.86-4,1.05-.08,2.11-.04,3.17-.04,3.56,0,7.12,0,10.68,0Z"/>
      <path class="cls-6" d="M7.84,3.98c-.01,2.17-1.78,3.92-3.96,3.9C1.71,7.87-.02,6.1,0,3.91,.02,1.73,1.8-.03,3.95,0c2.17,.03,3.9,1.8,3.88,3.98Z"/>
      <path class="cls-3" d="M7.84,40c0,2.18-1.77,3.95-3.93,3.94C1.74,43.93,0,42.17,0,39.98c0-2.18,1.75-3.93,3.93-3.93,2.17,0,3.91,1.76,3.91,3.95Z"/>
      <path class="cls-2" d="M7.84,21.98c0,2.19-1.73,3.91-3.93,3.91C1.72,25.88,0,24.16,0,21.96c0-2.2,1.73-3.91,3.93-3.91,2.19,0,3.91,1.73,3.91,3.93Z"/>
    </g>
  </g>
</svg>