<?xml version="1.0" encoding="UTF-8"?>
<svg id="Layer_2" data-name="Layer 2" xmlns="http://www.w3.org/2000/svg" xmlns:xlink="http://www.w3.org/1999/xlink" viewBox="0 0 45.67 45.64">
  <defs>
    <style>
      .cls-1 {
        fill: url(#linear-gradient-2);
      }

      .cls-2 {
        fill: url(#linear-gradient);
      }
    </style>
    <linearGradient id="linear-gradient" x1="22.84" y1="0" x2="22.84" y2="59.46" gradientUnits="userSpaceOnUse">
      <stop offset=".44" stop-color="#153177"/>
      <stop offset=".95" stop-color="#2594ad"/>
      <stop offset="1" stop-color="#279db2"/>
    </linearGradient>
    <linearGradient id="linear-gradient-2" x1="26.11" y1="4.42" x2="26.11" y2="41.29" xlink:href="#linear-gradient"/>
  </defs>
  <g id="element">
    <g>
      <path class="cls-2" d="M22.85,45.62c-3.05,0-6.1,.05-9.14,0-6.55-.12-12.31-5.1-13.44-11.57-.15-.86-.23-1.73-.23-2.6C.02,26.04,.09,20.64,0,15.24c-.04-2.84,.49-5.49,1.92-7.94C4.7,2.53,8.84,.05,14.38,.02c5.04-.03,10.09,0,15.13,0,1.24,0,1.99,.47,2.31,1.43,.57,1.68-.45,3.11-2.26,3.11-5.12,0-10.23-.12-15.34,.04-5.47,.17-9.6,3.76-9.66,9.65-.06,5.77,0,11.55,.01,17.33,0,5.18,4.24,9.5,9.43,9.53,5.93,.04,11.87,.03,17.8-.02,4.66-.04,8.69-3.74,9.21-8.37,.08-.72,.07-1.46,.07-2.19,0-4.06,0-8.13,0-12.19,0-1.73,1.35-2.71,3-2.24,.85,.24,1.43,.92,1.51,1.81,.02,.25,.02,.5,.02,.75,.01,4.24,.02,8.48,.03,12.73,.02,7.13-5.26,13.2-12.35,14.15-.53,.07-1.06,.11-1.6,.11-2.96,.01-5.92,0-8.88,0,0,0,0,0,0-.01Z"/>
      <path class="cls-1" d="M19.73,26.91c.13-.23,.23-.41,.33-.59,3.24-5.88,7.07-11.33,11.87-16.06,2.3-2.26,4.79-4.26,7.77-5.58,1.8-.8,3.49,.37,3.36,2.32-.05,.8-.43,1.43-1.16,1.73-3.76,1.56-6.63,4.27-9.26,7.25-3.99,4.5-7.3,9.48-9.93,14.89-.15,.32-.22,.7-.23,1.06-.02,.95-.77,2.03-1.61,2.25-1.17,.31-2.27-.18-2.93-1.23-1.02-1.65-1.97-3.36-3.14-4.9-1.54-2.02-3.25-3.92-4.92-5.84-.83-.96-.98-2.04-.3-2.96,.86-1.18,2.36-1.31,3.44-.3,2.1,1.97,3.97,4.14,5.65,6.48,.34,.47,.68,.95,1.06,1.49Z"/>
    </g>
  </g>
</svg>