<?xml version="1.0" encoding="utf-8"?>
<!-- Generator: Adobe Illustrator 27.3.1, SVG Export Plug-In . SVG Version: 6.00 Build 0)  -->
<svg version="1.1" id="Layer_1" xmlns="http://www.w3.org/2000/svg" xmlns:xlink="http://www.w3.org/1999/xlink" x="0px" y="0px"
	 viewBox="0 0 1080 1080" style="enable-background:new 0 0 1080 1080;" xml:space="preserve">
<style type="text/css">
	.st0{fill:url(#SVGID_1_);stroke:#D8FCFF;stroke-width:4;stroke-miterlimit:10;}
	.st1{fill:#FFFFFF;}
	.st2{fill:url(#SVGID_00000057843797127661310350000014667841455839915673_);}
	.st3{fill:url(#SVGID_00000049209450204182457620000007921912575296716715_);}
	.st4{fill:url(#SVGID_00000013877694305717104340000017882935553577006217_);}
	.st5{fill:url(#SVGID_00000062880444944167157460000008112814348734739109_);}
	.st6{fill:url(#SVGID_00000025425009171701393910000009740971251020007846_);}
	.st7{fill:url(#SVGID_00000075134979352551995360000002648493317633234331_);}
	.st8{fill:url(#SVGID_00000069360557685668935010000004275233531922832296_);}
	.st9{fill:url(#SVGID_00000148625084320666049680000002150200303979430067_);}
	.st10{fill:url(#SVGID_00000152943264599006072580000001937555055310958979_);}
	.st11{fill:url(#SVGID_00000178897449455860463220000015914108851450053808_);}
	.st12{fill:url(#SVGID_00000110453690517081328010000006200903128288143004_);}
	.st13{fill:url(#SVGID_00000036950949135062374330000000886542032298636419_);}
	.st14{fill:url(#SVGID_00000087375850958090113240000009507233309633104262_);}
</style>
<g>
	<linearGradient id="SVGID_1_" gradientUnits="userSpaceOnUse" x1="550.5697" y1="270.4679" x2="550.5697" y2="1119.606">
		<stop  offset="0.1817" style="stop-color:#153177"/>
		<stop  offset="0.6686" style="stop-color:#2AACBA"/>
	</linearGradient>
	<path class="st0" d="M550.61,905.18c-138.6,0-265.3-76.05-330.64-198.48L126,530.64l93.97-176.05
		c65.35-122.43,192.04-198.48,330.64-198.48c138.66,0,265.38,76.1,330.71,198.61l93.81,175.92l-93.81,175.92
		C816,829.07,689.28,905.18,550.61,905.18z"/>
	<circle class="st1" cx="550.65" cy="530.64" r="337.98"/>
	<g>
		<g>
			<g>
				
					<linearGradient id="SVGID_00000006673354994135166310000013789210180158434224_" gradientUnits="userSpaceOnUse" x1="270.8344" y1="608.7508" x2="828.1805" y2="608.7508">
					<stop  offset="0.4421" style="stop-color:#153177"/>
					<stop  offset="1" style="stop-color:#2AACBA"/>
				</linearGradient>
				<path style="fill:url(#SVGID_00000006673354994135166310000013789210180158434224_);" d="M549.51,636.68
					c0,0-63.78-94.45-254.03-97.82l-24.65,41.99c209.5-4.84,278.67,97.81,278.67,97.81S618.68,576,828.18,580.84l-24.65-41.99
					C613.28,542.22,549.51,636.68,549.51,636.68z"/>
				
					<linearGradient id="SVGID_00000021821208118764033260000002181069746397471872_" gradientUnits="userSpaceOnUse" x1="270.8344" y1="669.2411" x2="828.1805" y2="669.2411">
					<stop  offset="0.4421" style="stop-color:#153177"/>
					<stop  offset="1" style="stop-color:#2AACBA"/>
				</linearGradient>
				<path style="fill:url(#SVGID_00000021821208118764033260000002181069746397471872_);" d="M828.18,637.99L803.53,596
					c-190.25,3.37-254.03,97.82-254.03,97.82S485.73,599.37,295.48,596l-24.65,41.99c158.08-3.65,236.23,53.88,265.09,82.34
					c-0.16,1.15-0.26,2.32-0.26,3.53c0,10.28,6.2,18.62,13.85,18.62c7.65,0,13.85-8.33,13.85-18.62c0-1.21-0.1-2.39-0.27-3.53
					C591.95,691.86,670.1,634.34,828.18,637.99z"/>
				
					<linearGradient id="SVGID_00000045586841558088548540000008560271497695774635_" gradientUnits="userSpaceOnUse" x1="334.2702" y1="447.8721" x2="382.4105" y2="447.8721">
					<stop  offset="0.4421" style="stop-color:#153177"/>
					<stop  offset="1" style="stop-color:#2AACBA"/>
				</linearGradient>
				<path style="fill:url(#SVGID_00000045586841558088548540000008560271497695774635_);" d="M358.34,480.22L358.34,480.22
					c0-17.87-10.78-32.35-24.07-32.35l0,0c13.29,0,24.07-14.48,24.07-32.35l0,0c0,17.87,10.78,32.35,24.07,32.35l0,0
					C369.12,447.87,358.34,462.36,358.34,480.22z"/>
				
					<linearGradient id="SVGID_00000121971783569998812750000007976757197170411655_" gradientUnits="userSpaceOnUse" x1="716.6924" y1="479.2241" x2="779.8732" y2="479.2241">
					<stop  offset="0.4421" style="stop-color:#153177"/>
					<stop  offset="1" style="stop-color:#2AACBA"/>
				</linearGradient>
				<path style="fill:url(#SVGID_00000121971783569998812750000007976757197170411655_);" d="M748.28,521.68L748.28,521.68
					c0-23.45-14.14-42.46-31.59-42.46l0,0c17.45,0,31.59-19.01,31.59-42.46l0,0c0,23.45,14.14,42.46,31.59,42.46l0,0
					C762.43,479.22,748.28,498.23,748.28,521.68z"/>
				
					<linearGradient id="SVGID_00000088846907131102913870000008351047688494546598_" gradientUnits="userSpaceOnUse" x1="533.5247" y1="332.1767" x2="566.5071" y2="332.1767">
					<stop  offset="0.4421" style="stop-color:#153177"/>
					<stop  offset="1" style="stop-color:#2AACBA"/>
				</linearGradient>
				<path style="fill:url(#SVGID_00000088846907131102913870000008351047688494546598_);" d="M550.02,354.34L550.02,354.34
					c0-12.24-7.38-22.16-16.49-22.16v0c9.11,0,16.49-9.92,16.49-22.16l0,0c0,12.24,7.38,22.16,16.49,22.16v0
					C557.4,332.18,550.02,342.1,550.02,354.34z"/>
			</g>
			<g>
				
					<linearGradient id="SVGID_00000152975023394518886800000017203644087495809671_" gradientUnits="userSpaceOnUse" x1="528.2368" y1="231.9029" x2="528.2368" y2="797.8033" gradientTransform="matrix(1 0 0 1 21.2707 78.1088)">
					<stop  offset="0.4421" style="stop-color:#153177"/>
					<stop  offset="1" style="stop-color:#2AACBA"/>
				</linearGradient>
				<path style="fill:url(#SVGID_00000152975023394518886800000017203644087495809671_);" d="M549.51,636.68
					c0,0-63.78-94.45-254.03-97.82l-24.65,41.99c209.5-4.84,278.67,97.81,278.67,97.81S618.68,576,828.18,580.84l-24.65-41.99
					C613.28,542.22,549.51,636.68,549.51,636.68z"/>
				
					<linearGradient id="SVGID_00000046317613457841475010000014950451568436682679_" gradientUnits="userSpaceOnUse" x1="528.2368" y1="231.9029" x2="528.2368" y2="797.8033" gradientTransform="matrix(1 0 0 1 21.2707 78.1088)">
					<stop  offset="0.4421" style="stop-color:#153177"/>
					<stop  offset="1" style="stop-color:#2AACBA"/>
				</linearGradient>
				<path style="fill:url(#SVGID_00000046317613457841475010000014950451568436682679_);" d="M828.18,637.99L803.53,596
					c-190.25,3.37-254.03,97.82-254.03,97.82S485.73,599.37,295.48,596l-24.65,41.99c158.08-3.65,236.23,53.88,265.09,82.34
					c-0.16,1.15-0.26,2.32-0.26,3.53c0,10.28,6.2,18.62,13.85,18.62c7.65,0,13.85-8.33,13.85-18.62c0-1.21-0.1-2.39-0.27-3.53
					C591.95,691.86,670.1,634.34,828.18,637.99z"/>
				
					<linearGradient id="SVGID_00000010308337759689316010000001747112761796815787_" gradientUnits="userSpaceOnUse" x1="528.2368" y1="231.9029" x2="528.2368" y2="797.8033" gradientTransform="matrix(1 0 0 1 21.2707 78.1088)">
					<stop  offset="0.4421" style="stop-color:#153177"/>
					<stop  offset="1" style="stop-color:#2AACBA"/>
				</linearGradient>
				<path style="fill:url(#SVGID_00000010308337759689316010000001747112761796815787_);" d="M358.34,480.22L358.34,480.22
					c0-17.87-10.78-32.35-24.07-32.35l0,0c13.29,0,24.07-14.48,24.07-32.35l0,0c0,17.87,10.78,32.35,24.07,32.35l0,0
					C369.12,447.87,358.34,462.36,358.34,480.22z"/>
				
					<linearGradient id="SVGID_00000121263448574418249440000004346231422578131121_" gradientUnits="userSpaceOnUse" x1="528.2368" y1="231.9029" x2="528.2368" y2="797.8033" gradientTransform="matrix(1 0 0 1 21.2707 78.1088)">
					<stop  offset="0.4421" style="stop-color:#153177"/>
					<stop  offset="1" style="stop-color:#2AACBA"/>
				</linearGradient>
				<path style="fill:url(#SVGID_00000121263448574418249440000004346231422578131121_);" d="M748.28,521.68L748.28,521.68
					c0-23.45-14.14-42.46-31.59-42.46l0,0c17.45,0,31.59-19.01,31.59-42.46l0,0c0,23.45,14.14,42.46,31.59,42.46l0,0
					C762.43,479.22,748.28,498.23,748.28,521.68z"/>
				
					<linearGradient id="SVGID_00000183241322483112365240000001155521692807315329_" gradientUnits="userSpaceOnUse" x1="528.2368" y1="231.9029" x2="528.2368" y2="797.8033" gradientTransform="matrix(1 0 0 1 21.2707 78.1088)">
					<stop  offset="0.4421" style="stop-color:#153177"/>
					<stop  offset="1" style="stop-color:#2AACBA"/>
				</linearGradient>
				<path style="fill:url(#SVGID_00000183241322483112365240000001155521692807315329_);" d="M550.02,354.34L550.02,354.34
					c0-12.24-7.38-22.16-16.49-22.16v0c9.11,0,16.49-9.92,16.49-22.16l0,0c0,12.24,7.38,22.16,16.49,22.16v0
					C557.4,332.18,550.02,342.1,550.02,354.34z"/>
			</g>
		</g>
		<g>
			<g>
				<g>
					<path d="M452.95,439.63l-1.31,16.69l14.07-2.06l13.88-2.63l1.31,11.63l1.69,11.81c-9.19,1.5-15.19,2.44-18,2.81
						c-4.88,0.94-9.19,1.69-12.94,2.25l-0.37,15.56l37.69-5.25l3.94,30.75c-24.75,1.5-49.13,6.38-73.32,11.63
						c-0.19-6.75-0.19-16.69-0.38-29.63l-0.37-30.19c-0.19-26.25-0.38-46.13-0.56-59.63l67.32-7.88l4.13,30.56
						c-6.75,0.56-13.13,0.94-19.13,1.5C464.39,438.32,458.57,439.07,452.95,439.63z"/>
					<path d="M583.07,441.88l-29.25,9.56c-0.94-5.06-3.56-7.69-7.5-7.69c-4.88,0-9.38,2.25-13.69,6.75
						c-2.81,3.56-3.56,6.94-2.44,10.13c0.94,2.06,3.94,3,9,3c2.62,0,5.81-0.37,9.56-0.94c6-0.94,11.44-1.5,16.13-1.5
						c12.56,0,21.57,3.56,24.75,16.13c1.5,6.94-0.37,14.63-5.44,22.88c-9.75,17.25-32.44,33-52.88,33c-7.31,0-14.63-1.5-22.31-4.69
						c1.87-6.75,5.25-16.69,10.31-29.81c5.06,2.81,9.94,4.13,14.82,4.13c2.06,0,4.31-0.38,6.75-1.31c4.13-0.75,7.88-2.06,11.44-3.75
						c4.69-2.25,6.94-4.69,6.38-7.13c-0.56-3-3.56-4.5-9.38-4.5c-3.75,0-9.19,0.56-16.31,1.87c-7.13,1.69-12.56,2.44-16.5,2.44
						c-5.06,0-9.19-0.94-12-2.81c-6.19-2.81-9.56-7.31-9.75-13.5c-0.94-12.19,5.62-26.25,19.88-42.57
						c14.63-16.69,28.5-25.31,41.82-26.06c12.94-0.56,21.19,7.12,24.75,23.25C581.95,432.7,582.51,437.01,583.07,441.88z"/>
					<path d="M632.57,409.44c12.75,1.13,22.88,4.69,30.38,10.5c10.88,8.44,17.44,18.19,19.88,28.88c0.94,4.31,1.13,8.44,0.94,12.56
						c-1.31,20.44-11.44,36.94-27.57,49.13c-16.31,13.88-40.5,20.25-61.32,20.44h-0.37l-0.56-98.64l-0.38-20.06
						C608.56,409.44,621.5,408.5,632.57,409.44z M626.19,495.33c8.44-3.19,15.19-8.44,19.88-15.56c4.32-6.94,6-13.88,5.25-20.81
						c-0.94-6.19-3.75-10.69-8.44-13.69c-4.13-2.63-9.38-3.75-15.56-3.38c-0.94,11.07-1.31,20.82-1.5,28.88
						C625.63,479.58,625.82,487.64,626.19,495.33z"/>
				</g>
				<g>
					
						<linearGradient id="SVGID_00000141427831028670357700000009305958185738313904_" gradientUnits="userSpaceOnUse" x1="529.7705" y1="327.3698" x2="529.7705" y2="488.1432" gradientTransform="matrix(1 0 0 1 21.2707 78.1088)">
						<stop  offset="0.4959" style="stop-color:#153177"/>
						<stop  offset="1" style="stop-color:#2AACBA"/>
					</linearGradient>
					<path style="fill:url(#SVGID_00000141427831028670357700000009305958185738313904_);" d="M452.95,439.63l-1.31,16.69
						l14.07-2.06l13.88-2.63l1.31,11.63l1.69,11.81c-9.19,1.5-15.19,2.44-18,2.81c-4.88,0.94-9.19,1.69-12.94,2.25l-0.37,15.56
						l37.69-5.25l3.94,30.75c-24.75,1.5-49.13,6.38-73.32,11.63c-0.19-6.75-0.19-16.69-0.38-29.63l-0.37-30.19
						c-0.19-26.25-0.38-46.13-0.56-59.63l67.32-7.88l4.13,30.56c-6.75,0.56-13.13,0.94-19.13,1.5
						C464.39,438.32,458.57,439.07,452.95,439.63z"/>
					
						<linearGradient id="SVGID_00000172403891240125182740000017901415746499763376_" gradientUnits="userSpaceOnUse" x1="529.7705" y1="327.3698" x2="529.7705" y2="488.1432" gradientTransform="matrix(1 0 0 1 21.2707 78.1088)">
						<stop  offset="0.4959" style="stop-color:#153177"/>
						<stop  offset="1" style="stop-color:#2AACBA"/>
					</linearGradient>
					<path style="fill:url(#SVGID_00000172403891240125182740000017901415746499763376_);" d="M583.07,441.88l-29.25,9.56
						c-0.94-5.06-3.56-7.69-7.5-7.69c-4.88,0-9.38,2.25-13.69,6.75c-2.81,3.56-3.56,6.94-2.44,10.13c0.94,2.06,3.94,3,9,3
						c2.62,0,5.81-0.37,9.56-0.94c6-0.94,11.44-1.5,16.13-1.5c12.56,0,21.57,3.56,24.75,16.13c1.5,6.94-0.37,14.63-5.44,22.88
						c-9.75,17.25-32.44,33-52.88,33c-7.31,0-14.63-1.5-22.31-4.69c1.87-6.75,5.25-16.69,10.31-29.81
						c5.06,2.81,9.94,4.13,14.82,4.13c2.06,0,4.31-0.38,6.75-1.31c4.13-0.75,7.88-2.06,11.44-3.75c4.69-2.25,6.94-4.69,6.38-7.13
						c-0.56-3-3.56-4.5-9.38-4.5c-3.75,0-9.19,0.56-16.31,1.87c-7.13,1.69-12.56,2.44-16.5,2.44c-5.06,0-9.19-0.94-12-2.81
						c-6.19-2.81-9.56-7.31-9.75-13.5c-0.94-12.19,5.62-26.25,19.88-42.57c14.63-16.69,28.5-25.31,41.82-26.06
						c12.94-0.56,21.19,7.12,24.75,23.25C581.95,432.7,582.51,437.01,583.07,441.88z"/>
					
						<linearGradient id="SVGID_00000137098927314152478340000004398791116393526159_" gradientUnits="userSpaceOnUse" x1="529.7705" y1="327.3698" x2="529.7705" y2="488.1432" gradientTransform="matrix(1 0 0 1 21.2707 78.1088)">
						<stop  offset="0.4959" style="stop-color:#153177"/>
						<stop  offset="1" style="stop-color:#2AACBA"/>
					</linearGradient>
					<path style="fill:url(#SVGID_00000137098927314152478340000004398791116393526159_);" d="M632.57,409.44
						c12.75,1.13,22.88,4.69,30.38,10.5c10.88,8.44,17.44,18.19,19.88,28.88c0.94,4.31,1.13,8.44,0.94,12.56
						c-1.31,20.44-11.44,36.94-27.57,49.13c-16.31,13.88-40.5,20.25-61.32,20.44h-0.37l-0.56-98.64l-0.38-20.06
						C608.56,409.44,621.5,408.5,632.57,409.44z M626.19,495.33c8.44-3.19,15.19-8.44,19.88-15.56c4.32-6.94,6-13.88,5.25-20.81
						c-0.94-6.19-3.75-10.69-8.44-13.69c-4.13-2.63-9.38-3.75-15.56-3.38c-0.94,11.07-1.31,20.82-1.5,28.88
						C625.63,479.58,625.82,487.64,626.19,495.33z"/>
				</g>
			</g>
		</g>
	</g>
</g>
</svg>
