<?xml version="1.0" encoding="UTF-8"?>
<svg id="Layer_2" data-name="Layer 2" xmlns="http://www.w3.org/2000/svg" xmlns:xlink="http://www.w3.org/1999/xlink" viewBox="0 0 1019.95 255.32">
  <defs>
    <style>
      .cls-1 {
        stroke: url(#New_Gradient_Swatch);
      }

      .cls-1, .cls-2, .cls-3, .cls-4 {
        fill: none;
        stroke-miterlimit: 10;
        stroke-width: 2px;
      }

      .cls-5 {
        fill: url(#New_Gradient_Swatch_copy_2);
      }

      .cls-6 {
        fill: url(#New_Gradient_Swatch_copy_2-2);
      }

      .cls-7 {
        fill: #153177;
        font-family: ArialMT, Arial;
        font-size: 26px;
      }

      .cls-8 {
        fill: url(#New_Gradient_Swatch_copy_2-3);
      }

      .cls-2 {
        stroke: url(#New_Gradient_Swatch-2);
      }

      .cls-9 {
        fill: #ddfcff;
      }

      .cls-3 {
        stroke: url(#New_Gradient_Swatch_copy_5);
      }

      .cls-4 {
        stroke: url(#New_Gradient_Swatch-3);
      }

      .cls-10 {
        fill: url(#linear-gradient);
      }

      .cls-11 {
        fill: #fff;
        font-family: Arial-BoldMT, Arial;
        font-size: 33px;
      }
    </style>
    <linearGradient id="linear-gradient" x1="495.9" y1="-20.1" x2="495.9" y2="263.07" gradientUnits="userSpaceOnUse">
      <stop offset=".12" stop-color="#153177"/>
      <stop offset=".59" stop-color="#2cdcbf"/>
      <stop offset=".85" stop-color="#0aa9c3"/>
      <stop offset="1" stop-color="#153177"/>
    </linearGradient>
    <linearGradient id="New_Gradient_Swatch_copy_5" data-name="New Gradient Swatch copy 5" x1="373.28" y1="40.97" x2="618.52" y2="40.97" gradientUnits="userSpaceOnUse">
      <stop offset=".59" stop-color="#2cdcbf"/>
      <stop offset=".85" stop-color="#0aa9c3"/>
    </linearGradient>
    <linearGradient id="New_Gradient_Swatch_copy_2" data-name="New Gradient Swatch copy 2" x1="495.9" y1="195.91" x2="495.9" y2="345.05" gradientUnits="userSpaceOnUse">
      <stop offset="0" stop-color="#fff"/>
      <stop offset="1" stop-color="#a9ffd6"/>
    </linearGradient>
    <linearGradient id="New_Gradient_Swatch" data-name="New Gradient Swatch" x1="328.8" y1="195.91" x2="663" y2="195.91" gradientUnits="userSpaceOnUse">
      <stop offset="0" stop-color="#275081"/>
      <stop offset="1" stop-color="#a0fd9b"/>
    </linearGradient>
    <linearGradient id="New_Gradient_Swatch_copy_2-2" data-name="New Gradient Swatch copy 2" x1="141.81" y1="195.91" x2="141.81" y2="345.05" xlink:href="#New_Gradient_Swatch_copy_2"/>
    <linearGradient id="New_Gradient_Swatch-2" data-name="New Gradient Swatch" x1="4.38" x2="279.23" xlink:href="#New_Gradient_Swatch"/>
    <linearGradient id="New_Gradient_Swatch_copy_2-3" data-name="New Gradient Swatch copy 2" x1="863.48" y1="195.91" x2="863.48" y2="345.05" xlink:href="#New_Gradient_Swatch_copy_2"/>
    <linearGradient id="New_Gradient_Swatch-3" data-name="New Gradient Swatch" x1="711" x2="1015.96" xlink:href="#New_Gradient_Swatch"/>
  </defs>
  <g id="element">
    <g>
      <rect class="cls-10" x="364.28" y="0" width="263.24" height="81.95" rx="40.97" ry="40.97"/>
      <path class="cls-3" d="M405.25,71.95c-17.08,0-30.97-13.89-30.97-30.97s13.89-30.97,30.97-30.97h181.29c17.08,0,30.97,13.89,30.97,30.97s-13.89,30.97-30.97,30.97h-181.29Z"/>
    </g>
    <g>
      <rect class="cls-5" x="324.8" y="136.51" width="342.2" height="118.8" rx="45" ry="45"/>
      <rect class="cls-1" x="329.8" y="141.52" width="332.2" height="108.8" rx="40" ry="40"/>
    </g>
    <text class="cls-7" transform="translate(368.15 205.17)"><tspan x="0" y="0">Tôn trọng nhân quyền</tspan></text>
    <g>
      <rect class="cls-6" x=".38" y="136.51" width="282.85" height="118.8" rx="45" ry="45"/>
      <rect class="cls-2" x="5.38" y="141.52" width="272.85" height="108.8" rx="40" ry="40"/>
    </g>
    <text class="cls-7" transform="translate(35.41 202.93)"><tspan x="0" y="0">Tôn trọng tự nhiên</tspan></text>
    <g>
      <rect class="cls-8" x="707" y="136.51" width="312.96" height="118.8" rx="45" ry="45"/>
      <rect class="cls-4" x="712" y="141.52" width="302.96" height="108.8" rx="40" ry="40"/>
    </g>
    <text class="cls-7" transform="translate(789.14 187.33)"><tspan x="0" y="0">Tôn trọng sự </tspan><tspan x="-22.41" y="31.2">đa dạng văn hóa</tspan></text>
    <text class="cls-11" transform="translate(396.55 50.02)"><tspan x="0" y="0">TÔN TRỌNG</tspan></text>
    <g>
      <path class="cls-9" d="M503.79,124.59c.09-.1-.11-.18-.12-.22-.09,.21,.17,.25,.12,.22Z"/>
      <polygon class="cls-9" points="502.96 126.65 502.91 126.57 502.91 126.95 502.96 126.65"/>
      <path class="cls-9" d="M501.91,128.37c.4,.01,.32-.66,.62-.9h.1s-.16-.3-.16-.3c-.19,.4-.32,.98-.56,1.2Z"/>
      <path class="cls-9" d="M500.7,128.93c.15,0,0,.26,.16-.2-.03,.01-.04,.02-.05,.02-.02,.04-.05,.09-.11,.18Z"/>
      <path class="cls-9" d="M500.81,128.75c.1-.19-.17,.07,0,0h0Z"/>
      <path class="cls-9" d="M500.41,129.67l.02-.31c-.1,.01-.24,.23-.24,.12-.08,.29,.02,.27,.22,.19Z"/>
      <path class="cls-9" d="M500.52,130.02l.02-.15s-.07,.04-.02,.15Z"/>
      <path class="cls-9" d="M500.58,129.54l-.05,.33c.07,0,.17,.04,.03-.14,.08,.07,.02-.03,.02-.18Z"/>
      <path class="cls-9" d="M500.71,129.41c.14-.1,.28-.26,.26,.05,.21-.5-.05-.55-.26-.05Z"/>
      <path class="cls-9" d="M502.18,128.64l.19-.13v-.22c0,.11-.3,.3-.19,.34Z"/>
      <path class="cls-9" d="M499.45,131.17c.06,.05,.22,0,.32,.02v-.23c-.08,.07-.21,.24-.32,.2Z"/>
      <path class="cls-9" d="M499.77,131.19l-.02,.34c.13-.25,.1-.32,.02-.34Z"/>
      <polygon class="cls-9" points="500.85 130.25 500.84 129.67 500.8 130.34 500.85 130.25"/>
      <polygon class="cls-9" points="498.95 132.26 498.86 132.03 498.97 132.43 498.95 132.26"/>
      <path class="cls-9" d="M498.76,132.77c-.12-.1-.22-.11-.29-.18,.05,.07,.12,.15,.19,.24-.04-.07-.02-.08,.1-.06Z"/>
      <path class="cls-9" d="M498.76,133.02c-.02-.05-.06-.12-.1-.19,.03,.05,.06,.11,.1,.19Z"/>
      <path class="cls-9" d="M499.5,132c-.05,0-.18,0-.3,.14l.24-.03s.04-.07,.05-.11Z"/>
      <path class="cls-9" d="M499.46,132.11h0c-.06,.12-.1,.2-.12,.24,.02-.03,.05-.1,.13-.24Z"/>
      <path class="cls-9" d="M499.52,131.97v.03s.02,0,0-.03Z"/>
      <path class="cls-9" d="M500.31,130.89c.03,.22-.02,.61,.3,.36-.08-.18-.26-.04-.3-.36Z"/>
      <path class="cls-9" d="M499.82,131.94l.18-.28c-.05-.02-.15,0-.17-.11v.38Z"/>
      <polygon class="cls-9" points="499.82 132.12 499.82 131.94 499.76 132.05 499.82 132.12"/>
      <path class="cls-9" d="M498.97,133.03c.05,.11,.04,.18,.02,.25,.06-.03,.1-.09,.14-.17-.05-.05-.14-.15-.16-.08Z"/>
      <path class="cls-9" d="M499.14,132.78v.03s.03-.02,0-.03Z"/>
      <polygon class="cls-9" points="498.76 133.89 498.78 133.95 498.77 133.88 498.76 133.89"/>
      <path class="cls-9" d="M499.17,133.12c.06-.04,.03-.11-.01-.17,0,.05,0,.11-.03,.16,.02,.02,.04,.04,.04,.01Z"/>
      <path class="cls-9" d="M498.78,133.23s.07,.05,.1,.06c-.05-.05-.13-.13-.1-.06Z"/>
      <path class="cls-9" d="M499.07,132.82h0s-.03,0,0,0Z"/>
      <path class="cls-9" d="M499.07,132.82s.06,.08,.09,.13c0-.05-.01-.07-.02-.14-.02,.01-.05,.01-.07,0Z"/>
      <path class="cls-9" d="M499.07,136.41c0-.09,0-.15,.02-.2,.02-.05,.06-.02,.06-.17,.03-.18,.08-.3,.17-.28,.04-.54-.36-1.28-.54-1.82,.03,.14,.07,.26,.06,.58,0,.02,0,.04,0,.07,0,.02,.01,.03,.02,.04,.07,.11,.23,.02,.25,.44-.04,.28-.08,.29-.11,.22-.01-.03-.03-.05-.04-.08-.02-.06-.04-.11-.07-.17,.19,.56-.19,.34-.09,.98,.08,.03,.16,.05,.23,.06,.02,.11-.05,.16,.04,.33Z"/>
      <path class="cls-9" d="M498.88,133.74v-.08s-.09-.06-.18-.25c.03,.21,.05,.35,.07,.47l.1-.2v.06Z"/>
      <path class="cls-9" d="M498.96,133.44c.13,.25,.12,.55,.3,.71,.08-.26-.05-.36-.07-.57-.08,.36-.05-.19-.21-.12,0-.09,0-.13,0-.18-.03,.02-.07,.02-.11,.01,0,0,.01,0,.01,0h0s0,0,0,0c.02,.02,.03,.03,.02,.03h0s.03,.07,.05,.1c-.05,.02-.04-.05-.05-.09l-.02-.04h0s-.01,.35-.01,.35c.04,0,.06-.09,.08-.22Z"/>
      <path class="cls-9" d="M500.88,131.75s-.04,0-.05,0c0,.05,.02,.07,.05,0Z"/>
      <path class="cls-9" d="M500.66,131.93c0-.05-.07-.13,.01-.25,.11-.09,.09,.04,.16,.07-.01-.1,0-.35-.22-.14v.05c-.17,.2-.55,.38-.56,.33,.21,.01,.36,.01,.6-.06Z"/>
      <path class="cls-9" d="M499.68,133.09l-.05,.4c.08-.02,.16-.05,.24-.09l-.1-.05c.13-.2-.02-.21-.08-.27Z"/>
      <path class="cls-9" d="M498.71,133.72l-.09-.41c.03,.17,.06,.36,.08,.56v.1s.01-.05,.01-.05v-.2Z"/>
      <polygon class="cls-9" points="498.6 133.75 498.56 133.42 498.55 133.59 498.6 133.75"/>
      <path class="cls-9" d="M494.82,125.23l-.06-.15c.02,.07,.04,.12,.06,.15Z"/>
      <path class="cls-9" d="M494.81,126.33l.1,.03c-.05-.05-.09-.07-.1-.03Z"/>
      <path class="cls-9" d="M489.84,127.21c-.06,.28-.19,.64,0,.51l.16-.16c-.11-.12-.14-.23-.15-.34Z"/>
      <path class="cls-9" d="M495.99,135.17c-.02-.06-.04-.12-.07-.18,.08,.33,.15,.63,.21,.91-.04-.23-.09-.48-.14-.74Z"/>
      <path class="cls-9" d="M495.08,131.85l.14,.32c-.05-.13-.1-.24-.14-.32Z"/>
      <path class="cls-9" d="M494.57,119.22l-.22-.18c0,.28,.11,.16,.22,.18Z"/>
      <path class="cls-9" d="M495.26,129.99c-.05-.2-.12-.34-.19-.45,.04,.26,.01,.52,.19,.45Z"/>
      <path class="cls-9" d="M497.12,125.66c-.04-.09-.08-.13-.13-.13,.04,.1,.08,.15,.13,.13Z"/>
      <path class="cls-9" d="M494.73,129.11s.02,.07,.02,.11c.11,.09,.22,.18,.32,.32-.03-.19-.11-.37-.34-.43Z"/>
      <path class="cls-9" d="M494.68,97.4s.01-.04,.03-.05c-.03,0-.03,.02-.03,.05Z"/>
      <path class="cls-9" d="M496.85,91.04c.01,.06,.01,.16,.02,.26,.01-.05,.01-.13-.02-.26Z"/>
      <path class="cls-9" d="M498.04,133s.02-.01,0,0h0Z"/>
      <path class="cls-9" d="M497.75,133.97s-.05,.02-.08,.07c.03-.04,.06-.06,.08-.07Z"/>
      <path class="cls-9" d="M492.8,128.82h0s0,.04,0,0Z"/>
      <path class="cls-9" d="M498.02,133.13s0-.07,0-.09c0,.02,0,.05,0,.09Z"/>
      <path class="cls-9" d="M498.08,133.04s0,.03,.01,.04c.03-.03,.04-.05-.01-.04Z"/>
      <path class="cls-9" d="M497.92,132.88c.05,.05,.12,.14,.1,.15,0-.02,.01-.03,.02-.03,0,0-.06-.06-.12-.12Z"/>
      <path class="cls-9" d="M495.3,109.09s.01-.02,.02-.03c-.09-.14-.08-.08-.02,.03Z"/>
      <polygon class="cls-9" points="493.43 129.09 493.42 129.1 493.42 129.11 493.43 129.09"/>
      <path class="cls-9" d="M493.64,129.15c-.2,.19-.23,.07-.22-.04-.14,.19-.26,.39-.38,.61,.22-.15,.43-.34,.6-.57Z"/>
      <path class="cls-9" d="M494.75,122.59l-.19,.36c-.32-.43-.21-.75-.48-.41,.68,.05,.07,1.4,.75,1.45l-.14,.24c0-.07-.03-.08-.03-.15-.32,.46,.49,.34,.4,.94-.05,.21-.15,.35-.23,.21l.17,.46c-.01,.13-.13,.1-.12-.03l.06,.7h-.02c.11,.09,.27,.32,.34,.43-.1,.18-.07-.09-.16-.04l.17,.39c-.18,.16-.35-.16-.32-.43-.68,.37,.17,.32-.22,1.11l-.09-.37c-.38,.23-.24,.54-.48,.93,.12-.06,.6-.83,.77-.4-.05,.09-.07,.34,.06,.44-.24,0-.18,.07-.17,.18l-.32-.11c.09,.1,.26,.17,.4,.31-.03,.13-.28-.03-.49-.19-.02,.02,.07,.1,.19,.17,.11,.08,.24,.14,.27,.3-.12,.06,0,.26,.2,.84-.11-.03-.2-.34-.29-.44l.26,.55s-.08-.13-.12-.21c.1,.29,.32,.58,.41,.98,.18,.38,.05,.27-.07,.13-.12-.13-.24-.31-.04,.34-.09-.18-.2-.54-.32-.85,.3,1.15,.23,.91,.55,2.15-.07-.12-.14-.26-.21-.41,.24,.6,.53,1.78,.77,3,.12,.31,.22,.56,.27,.65l.18,1.28c-.05-.11-.16-.61-.3-1.2,.03,.14,.05,.28,.08,.4-.12-.23-.31-1.07-.49-1.86,.06,.18,.13,.36,.2,.55-.2-.85-.42-1.69-.6-2.33,.04,.15,.07,.31,.09,.43-.06-.21-.1-.38-.13-.5-.03-.11,.04,.18,.12,.54l-.36-1.25,.14,.55-.1-.21-.21-.64c.22,1.16,.42,2.63,.07,2.3-.03-.59-.18-1.23-.32-2.12,.11,.54,.15,.55,.17,.44,.02-.1,0-.33,.09-.12-.09-.23-.17-.7-.2-.85,.02,.24,.01,.44-.01,.6-.13-.76-.14-.65-.23-1.04,.26,1.52-.03,.65-.1,.84-.04-.42-.05-.8,.06-.52-.11-.59-.09-.26-.11,.04,0,.31-.05,.57-.13,.09,.03,.05,.05,.14,.05-.04-.06,.2-.25-.39-.19-.59l.03,.04c-.17-.44-.5-.92-.79-.56,.03-.06,.29-.53,.34-.62-.33,.4-.79,.55-1.38,.46,.17-.07,.37-.35,.59-.54,.22-.2,.45-.33,.59-.31,0-.11,.02-.2-.17-.28-.02,.07-.37,.42-.45,.35,.19-.49,.07-.33,.15-.9,0,.17-.58,.3-.68,.07,.09,0,.49-.29,.58-.24l-.78-.26c.16,.08,.43-.2,.51-.4-.07,.11-.24-.47-.37-.58v.29c-.25-.64-1.01-.22-1.31-.83,.14,.02,.72-.16,.62-.5-.33,0-1.55,.05-2.03-.38l.09-.18-.27-.22,1.15-.7,.13,.08c-.05,0-.11,0-.2-.04l-1,.61c.55,.04,1.56,.28,2.03,.48,0-.29,.14-.16-.06-.49,.07-.19,.31,.07,.37,.17l-.34-.83c-.15,.11-.32-.03-.48-.15l-1.95,1.18c.15,.09,.29,.17,.38,.09l-.25-.18,1.66-1.01,.54,.48c-.2,.14-.68,.06-1.04-.22l-.71,.43c.15,.09,.27,.22,.36,.37-.02,.21-.56,.24-.65,.31,.14,0,.52,.38,.49,.47l-.3-.12c.1,.37,.7,.22,.68,.76,.07,.13-.1,.61,.08,.52,.17-.42,1.11-1.14,1.44-1.18,0,.06,.14,.83,.09,1.08-.1,.37-.79,.13-.88,.45,.08-.05,.25,0,.31,.02,.03,.17-.27,.12-.04,.36,.31-.16,.38,.57,.33-.04,.27,.21,.15,.32,.39,.62,.1-.23,.81-.17,1.08,.03-.08,.04-.13,.16-.15,.22,.38,.55,.48,.93,.87,1.42-.03,.1,.08,.4-.11,.39,.1,.03,.25,.03,.37,.17,0,.48-.3-.31-.4,.14,.17-.1,.53,.22,.8,.36,.18-.26-.35-.53-.62-.67,.33-.26,.97-.16,1.53,.21,.41,.33-.07,.35,.03,.38,.56,.79,1.09,.16,1.38,.97,0,.42-.4,.36-.5,.54-.35-.26-.29-.6-.48-.81l.13,.35c-.15-.04-.39-.22-.43-.38-.02,.36,1.02,1.29,1.36,2,.16,.04,.38,.15,.39,0l-.18-.15c.02-.3,.52,.13,.4-.16,.31,.12,.55,.03,.68,.36l-.07,.38c.02-.11-.07-.35-.18-.33,.08-.01,.11,.18,.18,.36,.07,.18,.17,.35,.26,.15-.04-.15-.07-.29-.1-.42,.2-.01,.33-.35,.44-.09-.07-.52-.04,.01-.1-.58,.03,.69-.23-.27-.23,.42,.04-.57-.11-.38,0-.79-.06,.09-.08,.2-.12,.08-.02,.02-.05,.04-.07,.05h0s0,0,0,0c-.01,0-.02,0,0,0-.01,.06-.03,.12-.05,.17-.09,.07-.19,.05-.28,0-.14-.09-.28-.21-.38-.24-.09-.18,.14-.01,.15-.17l-.31-.08c.15-.17-.06-.64,.34-.38l-.26-.32c-.07-.27-.24-.55-.45-.65-.09-.18-.51-.22-.26-.2l-.52-.41,.04-.04c-.39-.51-1.13-.79-1.26-1.62-.18-.13-.37-.27-.54-.59l.11-.17c-.22-.18-.35-.78-.58-.75,.24-.55-.71-1.14-.92-1.59l-.22,.13c-.18-.28-.43-.5-.75-.78l-.17,.15c-.36-.19-.4-.85-.74-1.31,.09-.02,.16,.11,.17,.23,0-.21-.06-.38-.16-.53l-2.17,1.32c.27,.46,.9,.74,.88,1.28,.15,.1,.18,.21,.18,.33,0-.01-.02-.02-.03-.03,0,.01,.02,.04,.03,.06,0,.08,0,.16,0,.25,.02-.08,.03-.16,.02-.22,.06,.1,.17,.25,.31,.38l-.17,.18s.02,.02,.03,.03c0,.2,.17,.07,.28-.1,.08,.06,.16,.11,.24,.14-.27,.31,.34,.35,.07,.72,.24,0,.56,.71,.98,.59-.05,.03-.04,.09-.09,0,.05,.2,.1,.4,.3,.49l-.23,.22c.19,.06,.42,.21,.61,.26,0,.41,.03,.67-.34,.49,.37,.29,.46,.4,.57,.52,.1,.11,.19,.22,.45,.32l-.12,.2c.14,.24,.44,.23,.44,.59,.07,.52,.44,1.22,.86,2.01,.43,.8,.89,1.66,1.36,2.9-.2-.98-.09-.63,.06-.19,.15,.45,.35,1.02,.23,.33,.12,.51,.29,.98,.23,1.11,.17,.18,.37,.64,.53,1,.16,.35,.3,.58,.27,.13,.17,.61,.09,.58,.21,.97,.01-.04,.03-.19,.15,.2,.12,.4,.04,.32,.02,.41,.17,.3,.23,.26,.2,.01-.17-.92-.43-1.96-.68-2.95,.19,.34,.16-.01-.1-1.19,.13,.33,.27,.55,.32,1.22,.02-.18,.19-1.18-.14-2.13,.08,.15,.02-.32-.01-.48,.02-.55,.05-.54,.01-1.21l-.05,.05c-.39-1.1-.09-.65-.14-1.21l.04,.09c.14-.26,.1-.46,.08-.62-.03-.17-.05-.29,.1-.61l-.24-.26c-.26-.4-.18-.48-.07-.63,.12-.14,.27-.38,.17-.77-.05,.04-.09,.07-.14,.11-.09-.23,.09-.3,.29-.43,.21-.12,.44-.32,.47-.52,.04-.08,.07,.17,.11,.31,.3-1.04-.31-.26-.39-1.03,.17-.13,.43,.24,.46-.32,.14-.17-.55-.98-.23-1.44-.13,.1-.26,.2-.36-.03-.05-.36,.49-.97,.08-1.29,.04-.05,.07-.06,.1-.06-.11-.27-.18-.89-.4-1.05,.83-.26-.41-1.7,.36-1.69l-.04-.84,.08,.02c.05-.54-.13-.73-.32-.91,.05-.12,.12-.03,.16-.02,.15-.78,.12-.86-.26-1.52l.25-.07c-.14-.18,.39-1.14,.09-1.9,.03,0,.08,.02,.11,.08-.29-.86,.68-2.07-.22-2.39l-.22-.57c-.07,.74-.39-.11-.54,.2-.05-.29,.27-.75,.32-.4l-.04,.06c.47,.13,.16-.92,.48-.9-.03-1.45,.23-2.87,.24-4.24l-.37,.16,.02-.48c.08-.12,.29-.17,.27,.17,.21-.18-.18-.57-.25-.58,.15-.66,.43,.26,.44,.05l-.03-.28-.04,.06c-.15-.22-.31-.24-.29-.65,.07-.26,.23-.13,.24-.23,.03,0,.04-.03,.01-.16l.03-.6-.29,.24c-.14-.26,.01-.56-.31-.29,.5-.41,.17-2.23,.33-2.48-.21-.37-.21-.74-.19-1.19-.06,.11-.38,.18-.35-.21,.67,.14,.29-.72,.77-1.04-.32,.28-.08-1.11-.54-.67,.05-.33,.25-.02,.41-.27-.26-.78,.16-1.72,.07-2.68-.09-.01-.22,.15-.35-.06l.44-.51c-.04-.19-.51-.17-.2-.52-.07,.05-.19,.12-.21,0,.42-1.89-.36-3.85,.44-5.77-.17,.26-.19,.09-.19-.11-.04,.13-.22,0-.34,.02l.33-.8c-.33-.15-.03-.86-.34-.94l.06,.25c-.38-.34-.83,.48-1.31,.43,.43,.38-.62,1-.02,1.62-.1,.14-.15-.12-.27-.04,.21,.16,.25,.35,.16,.7l-.05-.04c.05,.99-.15,1.41-.28,2.52l.24-.08c-.03,.24-.1,.29-.16,.4,.36,.27,.02-.67,.42-.42-.48,.32,0,1.68-.55,1.9,0,.37,.27-.11,.27,.26l-.15,.1,.19,.09c-.03,.24-.22,.36-.34,.37,.01-.06-.04-.17-.05-.23-.17,.31,.06,.88,0,.99l.09-.35c.14,1-.05,2.22,.26,3.19l.11-.07c.21,.74-.12,.59-.02,1.4l-.03-.03c.11,.16,.17,.38,.16,.6-.13-.2-.25,.39-.4,.12,.22,.8,.18,.4,.59,.92l-.19,.12c.17,.18,.26,.19,.31,.6-.16-.33-.28,.26-.49-.11-.4,.85,.41,1.26-.18,1.65,.51,.39,.28-.74,.39-.52,.17-.18,.38,.32,.33,.59-.01,.27-.66,.46-.64,1.15,0-.07-.04-.07-.03-.14-.13,.26,.18,.5-.03,.81,.31,.17-.02,.41,.38,.46l-.09-.63c.1,.35,.57,.69,.35,1.27-.08-.05-.19-.22-.24-.34-.12,.17,.08,.33-.04,.51-.4-.05-.09-.76-.39-1.14-.17,.18,.29,.72-.14,.53,.55,.27-.07,.67,.35,1.13l-.24-.03c.04,.07,.15,.22,.14,.36l-.31-.24c.26,.37-.23,.72-.08,1.08,0-.75,.29-.17,.46-.49,.32,.93-.62,.54-.5,1.57-.03-.14,.14-.53,.25-.31-.05,.2-.14,.46-.26,.58,.05,.69,.24-.11,.39,.19-.29,.24,.12,.34,.21,.64h-.24c-.15,.79,.5,.21,.32,.92l-.33-.3,.09,.37-.27-.08c.2,.4,.15,.52,.08,.92,.17-.09,.44,.05,.45,.4-.14,.24-.23-.13-.19,.36-.15-.11-.34-.23-.12-.45-.08-.02-.15-.11-.23-.13-.16,.26-.04,.64-.03,.82,0-.07,.02-.15,.06-.19l.34,.71c-.09,.11-.16,.02-.23-.06,.03,.14,.14,.24,.16,.46-.2-.05-.4-.04-.49-.34l.22,.68c-.08,.05-.23,.35-.31,.26-.11,.38,.38,.92,.23,1.42,.04,.03,.07,.08,.1,.18-.04,.47-.28,.89-.01,1.44l-.35,.32c.08,.44,.44-.43,.58,.3,.11,.51-.3,.19-.4,.37,.18,.26,.54,.7,.25,1.17-.07-.16-.02-.28-.04-.42Zm.17,5.38c-.05-.1-.21-.31-.07-.39,.28,.12,.15,.21,.07,.39Zm.55,5.89c-.03-.13-.02-.14,.02-.05,.01,.01,.04,.09,.09,.21,.01,.09,.01,.14,0,.14-.03-.08-.06-.18-.11-.31Zm1.43-1.88h-.02c-.08-.24-.05-.15,.02,0Zm.23,.43c.06,.01,.08-.01,.09-.05-.07,.01-.14-.06-.21-.17-.03,.07-.02,.14,.12,.21Zm-.21-24.86l-.06,.09c-.07-.21,0-.15,.06-.09Z"/>
      <path class="cls-9" d="M495.19,132.23c.04,.14,.09,.29,.13,.44-.04-.17-.09-.33-.13-.44Z"/>
      <path class="cls-9" d="M494.61,119.25v-.02s-.03-.01-.04-.02l.04,.03Z"/>
      <path class="cls-9" d="M490.88,127.84c-.03-.1-.03-.17-.01-.23-.05,.03-.06,.1,.01,.23Z"/>
      <path class="cls-9" d="M498.36,133.19s-.04,.01-.07,.02c.03,.02,.02,.09,.03,.15,.01-.07,.02-.18,.04-.17Z"/>
      <path class="cls-9" d="M499.51,135.27c0-.08,.03-.1,.03-.18l-.07-.13c-.06,.17-.06,.43,.04,.31Z"/>
      <path class="cls-9" d="M498.3,134.33c-.02,.29,.09,.3,.2,.36,0,0-.01,0-.02-.02,.02-.4-.06-.35-.18-.34Z"/>
      <path class="cls-9" d="M498.52,134.7s.06,.05,.1,.09c0-.17-.04-.08-.1-.09Z"/>
      <path class="cls-9" d="M497.63,132.79c.03,.11,.24-.12,.21-.03,.27-.08-.68-.3-.21,.03Z"/>
      <path class="cls-9" d="M498.34,135.36l-.03-.41c-.03,.07-.06,.13-.1,.19l.13,.21Z"/>
      <path class="cls-9" d="M497.31,133.96l.17,.3s.06-.03,.1-.01c-.13-.15-.23-.34-.27-.28Z"/>
      <path class="cls-9" d="M497.58,134.24c.06,.08,.13,.14,.18,.14-.04-.04-.12-.11-.18-.14Z"/>
      <polygon class="cls-9" points="498 135.11 497.94 134.97 497.78 134.76 498 135.11"/>
      <path class="cls-9" d="M494.95,131.12l-.29-.25c-.09,.02-.07,.14,.05,.22,.1,.03,.22,.12,.25,.02Z"/>
      <path class="cls-9" d="M495.16,132.44c-.03-.11,.01-.15,.04-.25l-.25,.19,.21,.06Z"/>
      <path class="cls-9" d="M494.39,131.63c-.09,.03-.54-.27-.22,.09,.09-.02,.39,.23,.22-.09Z"/>
      <polygon class="cls-9" points="491.23 126.86 491.29 126.94 491.69 126.63 491.23 126.86"/>
      <path class="cls-9" d="M492.28,126.27c-.11-.45-.33,.06-.39-.37-.16-.03,.05,.35-.09,.3,.24,.18,.25,.34,.48,.07Z"/>
      <path class="cls-9" d="M491.8,126.21s-.08-.06-.13-.08c.07,.05,.1,.07,.13,.08Z"/>
      <polygon class="cls-9" points="497.12 89.98 497.23 89.69 497.06 89.88 497.12 89.98"/>
      <path class="cls-9" d="M496.74,89.43l.32-.07-.29-.17c.01,.06,.04,.19-.03,.24Z"/>
      <path class="cls-9" d="M494.27,128.41l.08,.02c.08,.01,.09,0,.1-.02-.06,0-.12,.01-.18,0Z"/>
      <polygon class="cls-9" points="494.5 124.87 494.5 124.94 494.79 124.81 494.5 124.87"/>
      <path class="cls-9" d="M494.12,121.59c-.01,.13,.05,.29,.04,.43-.05-.29,.32-.46-.04-.43Z"/>
    </g>
    <g>
      <path class="cls-9" d="M691.72,154.72c-.9-.14-.6,.11-.74,.13,1.51,.16,.71-.19,.74-.13Z"/>
      <polygon class="cls-9" points="706.67 156.3 706.39 156.35 708.62 156.45 706.67 156.3"/>
      <path class="cls-9" d="M717.87,154.73c.14,.7,.6,1.77,1.22,3.15-1.02-.12-2.16-.25-3.27-.38-1.28-.15-2-.24-2.74-.38l-.4-.14-1.16,.13c2.43,.29,5.35,.63,7.77,.91-.58-1.29-1.06-2.4-1.42-3.3Z"/>
      <path class="cls-9" d="M715.45,147.27c.06,.48-.76-1.44,.66,1.62-.05-.16-.06-.21-.09-.3-.12-.28-.28-.66-.56-1.31Z"/>
      <path class="cls-9" d="M716.02,148.58c.6,1.35-.28-.93,0,0h0Z"/>
      <path class="cls-9" d="M713.22,142.35l.89,1.74c-.09-.41-.76-2-.45-1.44-.86-1.81-.77-1.4-.44-.3Z"/>
      <path class="cls-9" d="M712.24,140.76l.45,.91c-.04-.18-.13-.43-.45-.91Z"/>
      <path class="cls-9" d="M713.65,143.58l-.96-1.92c.06,.28-.03,.36,.43,.89-.17-.12,.1,.23,.53,1.03Z"/>
      <path class="cls-9" d="M714.08,144.71c.37,1.03,.88,2.35,0,.6,1.53,3.4,1.54,2.79,0-.6Z"/>
      <path class="cls-9" d="M717.12,153.95l.57,1.56,.76,1.44c-.2-.37-.49-1.12-.77-1.8-.28-.68-.52-1.27-.55-1.2Z"/>
      <path class="cls-9" d="M713.87,148.35c.11,.08,.02-.63,.06-.79-.16-.41-.37-.81-.57-1.21,.23,.65,.62,1.88,.51,2Z"/>
      <path class="cls-9" d="M713.93,147.56c.27,.61,.49,1.25,.67,1.89-.41-1.75-.65-2.02-.67-1.89Z"/>
      <polygon class="cls-9" points="711.74 140.6 713.4 143.73 711.46 139.97 711.74 140.6"/>
      <path class="cls-9" d="M714.08,150.34c.02-.06,0-.15-.03-.26,.05,.17,.03,.27-.07,.3,.05,0,.08-.01,.1-.03Z"/>
      <path class="cls-9" d="M711.9,148.4c.39,.25,.19,0,0-.25-.21-.23-.41-.46,0-.19-1.2-.91-2.3-1.61-3.28-2.24,1,.71,2.04,1.53,3.28,2.68Z"/>
      <path class="cls-9" d="M706.99,144.65c.5,.35,1.04,.69,1.63,1.07-.53-.38-1.07-.74-1.63-1.07Z"/>
      <path class="cls-9" d="M714.75,150.9c-.06-.04-.17-.03-.29,.03,.13,.21,.18,.21,.28,.27,0-.09,0-.2,0-.3Z"/>
      <path class="cls-9" d="M714.75,151.21h0c0,.08-.01,.15-.02,.22-.01,.05-.09-.07-.12-.09-.08-.08-.15-.14-.18-.17,.03,.03,.09,.08,.17,.16,.04,.03,.1,.11,.14,.12,0-.07,.01-.15,.02-.24Z"/>
      <path class="cls-9" d="M714.75,150.82s0,.05,0,.08c.02,0,.03,0,0-.08Z"/>
      <path class="cls-9" d="M712.87,144.44c.74,.95,1.82,3.27,.99,.94-.52-.71,.04,.56-.99-.94Z"/>
      <path class="cls-9" d="M715.03,150.69c-.02-.39-.04-.72-.13-1.19-.02,.04-.04,.12-.07,.14-.03,0-.06,.05-.16-.25l.21,.67c.05,.2,.1,.41,.15,.64Z"/>
      <path class="cls-9" d="M715.14,151.35c-.02-.24-.07-.46-.11-.67v.4s.11,.26,.11,.26Z"/>
      <path class="cls-9" d="M709.99,147.26c-.85-.55-1.71-1.21-2.69-1.97,1.02,.85,2.08,1.71,3.1,2.52,.19,.06,.71,.32-.41-.55Z"/>
      <path class="cls-9" d="M713.54,150.36s-.05-.03-.07-.04c.03,.05,.05,.08,.07,.04Z"/>
      <path class="cls-9" d="M697.22,138.52c.05,.05,.1,.09,.15,.13,.02,0,.03,0,.06,0l-.21-.12Z"/>
      <path class="cls-9" d="M710.55,147.98c.77,.63,1.24,.99,1.7,1.33-.55-.5-1.18-.98-1.85-1.5-.08-.03-.11-.02,.15,.17Z"/>
      <path class="cls-9" d="M704.17,142.75c.41,.32,.87,.69,1.36,1.07-.38-.34-1.17-1.01-1.36-1.07Z"/>
      <path class="cls-9" d="M713.31,150.1s.07,.06,.12,.09c-.21-.25-.2-.21-.12-.09Z"/>
      <path class="cls-9" d="M713.31,150.1c-.4-.32-.73-.55-1.06-.79,.23,.2,.45,.38,.67,.56,.11,.09,.21,.17,.31,.26,.09,.07,.23,.19,.24,.19,0-.02-.11-.16-.16-.22Z"/>
      <path class="cls-9" d="M693.39,137.85c.24-.09,2.57,1.07,4.38,2.39,1.97,.99,1.08-.29-.4-1.59-.1,.04-.15,.11-2.17-.95,.64,.5,4.22,2.78,2.47,1.96-2.64-1.44-2.08-1.31-3.29-2.15,.47,.43-.39,0-1.33-.41-.97-.38-2-.77-1.79-.47,.79,.38,1.62,.69,2.38,1.12,.01,.07-.85-.33-.25,.09Z"/>
      <path class="cls-9" d="M701.06,140.97l.79,.51c-.88-.61-1.43-1.17-2.57-2.01-1.4-.71-1.72-.82-1.84-.81,1.33,.79,2.66,1.56,3.91,2.47l-.28-.16Z"/>
      <path class="cls-9" d="M705.34,143.85c-.73-.24-2.65-1.43-1.64-.46,2.28,1.53,1.7,.93,3.06,1.86-3.57-2.65,1.11,.64-1.4-1.36,.75,.45,1.35,.97,1.95,1.41-.62-.51-1.19-1.04-1.77-1.48,.03,.03,.05,.05,.08,.07h.02s0,.01,0,.01c.14,.13,.19,.18,.02,.04-.01,0-.06-.04-.08-.05-.04,0-.13-.02-.21-.05-1.04-.76-.14-.16,.21,.05,.02,0,.05,.01,.06,0,0,0,0,0-.01-.01l-3.76-2.41c.76,.56,1.74,1.21,3.49,2.37Z"/>
      <path class="cls-9" d="M715.17,147.34c.03,.13,.01,.13,0,.15,.11,.26,.17,.36,0-.15Z"/>
      <path class="cls-9" d="M715.53,149.11c-.1-.3-.23-.54-.52-1.53-.23-.86,.1-.03,.15-.09-.25-.58-.9-1.98-.32-.13l.13,.28c.1,.42,.22,.88,.28,1.32,.03,.21,.06,.42,.08,.62,0,.15,0,.3,.01,.44,0,.52-.06,.75-.09,.65,.17-.21,.32-.41,.26-1.55Z"/>
      <path class="cls-9" d="M712.89,150.61c-.94-.8-1.85-1.63-2.87-2.33,.45,.44,.93,.85,1.33,1.33v-.15c1.53,1.45,1.28,1.04,1.53,1.15Z"/>
      <polygon class="cls-9" points="696.91 138.22 697.45 138.27 695.44 137.46 696.91 138.22"/>
      <polygon class="cls-9" points="692.71 135.84 692.96 135.75 691.77 135.27 692.71 135.84"/>
      <path class="cls-9" d="M434.97,106.11l-1.07,.14c.51-.05,.84-.1,1.07-.14Z"/>
      <path class="cls-9" d="M442.79,105.46l.18-.12c-.36,.09-.5,.14-.18,.12Z"/>
      <path class="cls-9" d="M578.5,110.31c-1.54-.35-3.26-.82-3.09-.58l.46,.27c1.1,.08,1.93,.19,2.63,.31Z"/>
      <path class="cls-9" d="M501.71,90.35c.11,.1,.22,.21,.34,.32,.35,.16,.71,.27,1.02,.38-.42-.2-.89-.42-1.35-.71Z"/>
      <path class="cls-9" d="M500.3,90.44l-1.62-1.34c.35,.31,.87,.74,1.62,1.34Z"/>
      <path class="cls-9" d="M392.74,110.93l-1.18,.46c1.92-.39,1.05-.33,1.18-.46Z"/>
      <path class="cls-9" d="M646.31,119.79c-1.31-.4-2.37-.61-3.3-.82,1.59,.44,2.84,.89,3.3,.82Z"/>
      <path class="cls-9" d="M437.86,103.57c-.65,.09-.93,.16-.91,.21,.67-.09,1.05-.16,.91-.21Z"/>
      <path class="cls-9" d="M639.15,118.2c.23,.06,.46,.13,.7,.19,.98,.16,1.97,.33,3.16,.58-1.17-.33-2.52-.66-3.86-.77Z"/>
      <path class="cls-9" d="M266.69,143.95c.08-.08,.19-.17,.26-.24,0-.05-.11,.07-.26,.24Z"/>
      <path class="cls-9" d="M270.65,161.73c-.44,0-1.17,0-1.85,0,.33,.02,.89,.02,1.85,0Z"/>
      <path class="cls-9" d="M675.07,127.82c.96,.36,.16,.04,0,0h0Z"/>
      <path class="cls-9" d="M679.37,130.42c-.21-.06-.38-.09-.42-.05,.1-.02,.24,0,.42,.05Z"/>
      <path class="cls-9" d="M628.96,117.77s-.05,0-.09-.01c.29,.09,.24,.07,.09,.01Z"/>
      <path class="cls-9" d="M676.47,128.47c-.35-.16-.75-.34-1.19-.53,.19,.09,.56,.25,1.19,.53Z"/>
      <path class="cls-9" d="M676.31,128.3c.33,.14,.58,.24,.82,.34,.13,.01,.04-.05-.82-.34Z"/>
      <path class="cls-9" d="M673.74,127.32c.55,.2,1.05,.41,1.54,.62-.18-.09-.26-.13-.2-.12-.28-.1-.68-.25-1.33-.5Z"/>
      <path class="cls-9" d="M324.29,131.94c-.06,.02-.14,.04-.21,.06-.92,.44-.51,.27,.21-.06Z"/>
      <path class="cls-9" d="M552.06,109.17s.07,0,.12,0c-.05-.01-.11-.02-.15-.03l.03,.02Z"/>
      <path class="cls-9" d="M548.43,108.71c1.57,.05,2.45,.18,3.6,.44l-1.09-.81c-.84,.14-1.68,.28-2.51,.38Z"/>
      <path class="cls-9" d="M416.32,107.58h2.56c-3.04,.54-5.25,.66-2.86,.71,.3-.72,9.87-.85,10.18-1.53l1.69,.02c-.48,.03-.56,.07-1.03,.1,3.29,.09,2.39-.67,6.61-.88,1.47-.05,2.5-.05,1.51,.12l3.26-.43c.95-.06,.73,.07-.22,.14,1.66-.15,3.33-.31,4.99-.5l-.04,.02c.7-.17,2.3-.5,3.08-.64,1.28-.03-.63,.13-.29,.19,.92-.13,1.83-.31,2.74-.48,1.14,.02-1.12,.52-3.04,.66,2.66,.42,2.27-.41,7.89-.72-.86,.17-1.73,.28-2.6,.42,1.74,.2,3.75-.26,6.74-.48-.73-.01-5.99,.32-3.02-.31,.85-.08,1.97-.23,3.55-.61,.06,.25,1.62-.08,3.57-.5l-.07,.34c2.11-.51,1.9-.64,3.12-1.03,2.35-.54,2.89-.44,3.5-.37,3.77-.9-2.69,.27,1.73-.91,1.57-.34,2.86-.82,4.24-1.28,.68-.25,1.38-.5,2.14-.77,.73-.33,1.52-.69,2.4-1.09,2.13-.73-.29,.33,.49,.11l1.76-.97c.46-.17,.34-.04,.28,.02,1.51-.74,0-.33,2.35-1.55,.24-.32,1.51-.8,3.07-1.43,1.52-.7,3.28-1.69,4.57-2.69,.74-.34-.23,.37,.05,.34,.95-.61,1.55-1.16,2.04-1.56,.48-.41,.83-.7,1.17-.98,.32-.28,.63-.55,1.03-.9,.09-.08,.19-.17,.29-.26,.06-.06,.13-.13,.2-.21,.08-.08,.17-.17,.27-.26,.05-.05,.11-.1,.16-.16,.06,0,.12,.05,.18,.08l.4,.35,.21,.18,.3,.25,1.21,1c-1.73-1.53,.83-.05,3.03,1.24-.59-.57-1.1-1.05-1.44-1.36,1.13,.74,2.24,1.51,3.46,2.12,.39,.3-.02,.18-.66-.05,.25,.12,.49,.23,.68,.32,1.18,.85,.44,.62-.55,.23-.39-.31-.79-.61-1.15-.93-.92-.42-1.82-.8-1.75-.52,.24,.12,.67,.4,1.14,.71-.24-.11-.41-.17-.33-.07,.1,.1,.47,.32,1.09,.6l.61,.78h.27s4.5,2.95,4.5,2.95c3.61,1.43,6.76,2.56,12.44,4.65-1.48-.33-.46,.27-.65,.53-.71-.47-1.81-.89-3.09-1.35-.64-.24-1.34-.46-2.04-.75-.69-.31-1.4-.65-2.1-1.01,1.46,.77,1.07,.74,.68,.6,1.7,.81,3.52,1.35,5.28,2-.21,.19,1.03,.64,2.36,1.3-.88-.81,4.06,1.11,6.28,1.69,.08,.21-.49,.19-3.12-.76,2.81,1.34,3.93,.81,6.74,1.9-.66-.18-1-.31-1.28-.3,1.57,.29,5.27,1.47,4.36,1.36l-.65-.18c2.15,.71,5.52,1.42,8.41,2.07,2.9,.59,5.36,.89,5.73,.76,.03,.06-.68,.39-.96,.42,1.37,.02,2.72,.06,4.08,.05l4.08-.06c-.76,.25,1.79,1.54-1.94,1.15,1.05,.22,2.36,.5,4.61,.73-.72-.17-1.72-.82-.73-.69,2.65,.82,1.85,.49,5.16,1.3-1.08-.23,.21-.63,1.92-.37-.28,.05,.07,.58-.57,.55,1.45,.02,2.9,0,4.35-.02-1.08-.03-.25,.45,.69,.72-.43-.17,3.7,.46,4.85,.52l-1.8-.34c4.83,.62,4.87-.26,9.66,.27-.59,.06-1.51,.57,.93,.88,1.15-.17,5.09-.88,9.36-.67l.8,.25,3.28,.15c-2.08,.22-7.86,.55-11.01,.59,1.8,.31,.49,.24,3.2,.5,.94,.25-1.5,.08-2.3,.01l6.3,.74c-.25-.37,4.86,.15,4.65-.14l-6.89-.36c-.25-.35,4.06-.57,8.52-.02,1.12,.26-.91,.5-.83,.62,.59-.05,4.26,.24,4.66,.36l-1.91-.03c2.47,.38,4.1,.02,7.05,.7,1.03,.15,3.01,.8,3.22,.64-1.62-.6-1.81-1.81-.65-1.96,.36,.07,5.36,1.09,6.51,1.43,1.65,.53-2.64,.37-1.23,.82,.07-.08,1.03-.07,1.42-.05,1.07,.23-.48,.21,1.86,.51,.44-.28,4.76,.72,1.15-.12,2.31,.24,2.43,.42,5.12,.8-.82-.35,2.52-.36,4.84-.09-.15,.06,.35,.26,.59,.35,2.35,.37,4.13,.78,5.88,1.12,1.75,.35,3.46,.7,5.63,1.14,.38,.16,2.46,.68,1.54,.64,.64,.07,1.23,.07,2.57,.33,2.53,.81-2.99-.56-1.09,.19,.21-.18,3.51,.46,5.43,.78-.52-.43-4.36-1.07-6.3-1.3,.04-.21,.91-.25,2.35-.16,1.43,.12,3.42,.42,5.71,.83,3.62,.72,1.49,.63,2.13,.71,6.68,1.81,5.92,.71,11.36,2.66,2.11,.91-.06,.54,.37,.87-2.91-.73-4.36-1.52-6.34-1.99,.8,.25,1.59,.5,2.38,.79-.93-.21-2.89-.62-3.93-.97,1.81,.6,11.23,3.22,16.17,5.23,.93,.21,2.47,.75,1.79,.36-.53-.18-1.05-.4-1.59-.56-.7-.34,.08-.18,.78,.02,.69,.2,1.32,.4,.33-.04,1.08,.34,2.24,.68,3.5,1.1,1.25,.43,2.62,.87,4.05,1.61l.43,.53c-.03-.1-1.83-1.05-2.71-1.25,1.31,.33,4.32,2.35,5.82,2.56l-1.96-1.11c1.08,.39,2.29,.82,3.56,1.28,1.25,.5,2.53,1.12,3.78,1.81-1.02-.86-.6-.27-2.24-1.51,.68,.62-.91-.29-2.47-.94-1.54-.69-2.96-1.32-1.77-.54-1.73-1.2-3.19-1.68-5.6-2.95,.04,.12,.82,.53-1.39-.38-.11-.01-.36-.07-.52-.11-.07-.03-.09-.04-.15-.07,.04,.02,.08,.04,.12,.06-.1-.02-.11-.02,.04,.02,.51,.25,.92,.46,1.08,.58-1.19-.21-4.71-1.61-5.98-1.86-1.32-.5,.6,.08-.1-.27l-1.87-.44c-.11-.27-3.44-1.56-.24-.62l-2.85-.96c-1.66-.62-3.98-1.36-5.44-1.7-1.34-.47-3.52-.69-2.27-.56l-4.59-1.04-.03-.07c-4.5-1.15-9.37-1.82-14.49-3.22-1.54-.27-3.14-.47-5.69-.98l-.47-.28c-1.98-.31-5.9-1.19-6.78-1.12-2.05-.88-9.58-1.57-13.05-2.12l-.17,.23c-2.4-.33-4.7-.59-7.7-.83l.16,.24c-1.3-.06-2.94-.31-4.78-.58-1.83-.26-3.85-.56-5.89-.76,.29-.06,1.32,.08,2.04,.21-4.81-1.04-10.3-.68-14.66-1.5-1.11-.03-1.9-.14-2.66-.27,.1,0,.19,.01,.27,.02-.11-.01-.28-.03-.45-.05-.48-.09-.98-.18-1.51-.28,.45,.1,.89,.2,1.27,.25-.85-.08-2.13-.19-3.39-.27l-.51-.3c-.1,0-.18-.02-.29-.02-1.22-.22-1,0-.36,.26-.64-.03-1.22-.04-1.68-.03-.96-.48-3.31-.24-4.63-.81-.87,.11-6.32-.6-7.04-.3-.04-.06-.4-.14,.28-.05-1.39-.24-2.78-.48-4.04-.53l-.55-.38c-1.03,0-2.06-.05-3.1-.08-1.81-.48-2.56-.72-.69-.65-4.48-.36-3.6-.43-7.4-.81l.22-.16c-1.33-.26-3.52-.4-4.29-.74-.72-.27-1.99-.62-3.61-1.03-1.62-.41-3.6-.86-5.68-1.5-4.2-1.13-8.88-2.74-12.43-4.31,1.18,1.12-3.23-1.63-3.69-1.33-.36-.3-1.33-.79-.12-.41-1.88-.65-3.13-1.46-4.33-2.05-1.18-.62-2.24-1.13-3.55-1.58-.33-.33,.85,.21,.53-.05-.31-.09-1.15-.51-1.46-.79-.3-.28,.55,.2,1.11,.46-3.46-2.04-4.03-1.89-4.49-1.7-.83-.61-1.48-1.03-2.07-1.39-.58-.39-1.12-.7-1.8-1.02-.51-.53-1.39-1.33,.67,.1-.28-.21-.86-.64-1.56-1.16-.79-.58-1.74-1.27-2.64-1.93l-.44-.32-.22-.16c-.07-.05-.14-.13-.21-.03-.28,.21-.56,.42-.82,.62-.26,.2-.52,.4-.76,.58-.16,.13-.31,.25-.45,.36-.56,.45-.91,.78-.89,.86-.4,.2-1.59,1.16-1.87,1.41-1.33,.87-2.09,1.27-2.82,1.72-.74,.42-1.44,.91-2.8,1.67,.27-.1,.53-.23,.78-.37-.88,.95-2.28,1.24-4.5,2.41l.05-.07c-1.31,.61-2.16,.84-2.71,1.07-.55,.21-.83,.34-1.11,.47-.28,.13-.56,.25-1.1,.46-.55,.19-1.34,.54-2.74,.86l.37,.13c-.36,.62-4.88,1.34-8.06,2.23l1.19-.16c-.86,.31-2.13,.45-3.4,.55-1.28,.07-2.57,.07-3.46,.22-.4,.03,.6-.19,1.13-.33-4.7,.62-.54,.43-4,1.18-.67-.07,.76-.55-1.6-.22-.6,.02-2.28,.42-4.22,.84-1.96,.35-4.18,.71-5.81,.75,.73,.04,1.45,.09-.18,.38-2.52,.29-6.85,.18-9.09,.75-.32-.01-.45-.03-.46-.07-1.92,.27-6.26,.65-7.41,.96-1.85-.71-11.99,1.29-12.01,.54-1.98,.16-3.97,.38-5.95,.58l.15-.09c-3.81,.3-5.13,.72-6.44,1.04-.88,.05-.25-.09-.19-.14-5.56,.58-6.12,.73-10.66,1.92l-.53-.16c-.61,.2-2.61,.49-5.12,.93-2.5,.47-5.52,1.1-8.14,1.92,.05-.04,.14-.11,.56-.25-5.91,1.74-14.43,3.3-16.31,4.85l-3.8,1.45c5.02-1.54-.62,.61,1.48,.09-1.95,.66-5.15,1.42-2.76,.56l.39-.08c.74-.75-6.24,1.91-6.21,1.58-9.77,3.39-19.27,6.73-28.33,10.1l1.17-.05-3.17,1.17c-.86,.23-1.21,.15,1.04-.68-1.26,.25-3.72,1.58-3.75,1.68-4.46,1.52,1.57-1.05,.22-.55l-1.83,.72,.43-.12c-1.44,.7-1.51,.9-4.23,1.9-1.74,.58-.96,.12-1.64,.36,0-.03-.24,.05-1.04,.38l-3.99,1.47,1.69-.33c-1.71,.8-3.75,1.39-1.79,1.01-2.87,.54-14.9,5.41-16.61,5.89-2.4,1.13-4.83,2.04-7.86,3.15,.77-.23,1.34-.09-1.28,.85,.72-.99-4.87,1.52-7.15,1.86,1.99-.41-7.38,2.86-4.27,2.17-2.19,.77-.22-.19-1.92,.29-.8,.34-1.63,.68-2.49,1.02-.83,.31-1.68,.63-2.55,.96-.48,.16-.96,.33-1.46,.5l-.35,.11-.09,.03s.06-.02,.09-.02c.08,0,.12,.06,.12,.12,0,.21-.23,.52-.45,.31-.22-.24-.13-.61,0-.89,.13-.29,.33-.52,.49-.77,.4-.55,.48-.69,1.4-1.93,0-.14-.8,.68-.02-.55,.84-.85,1.71-1.68,2.59-2.47,.85-1.02,.41-1.28,2.31-2.83-.29,.2-.73,.49-.13-.17,.79-.77,1.6-1.52,2.43-2.27l-1.11-1.13c-4.37,4.4-8.39,9.3-12.14,14.39l-1.39,1.92-1.87,2.65-.94,1.36-.24,.34c.1,.02,.26,0,.39,.02h.82s3.31,.07,3.31,.07l2.54,.06,2.35,.08c1.56,.06,3.13,.15,4.68,.25-1.84-.18-.61-.19,.79-.19-.91-.05,.02-.22-.16-.34l5.69,.37c1.04-.32,6.1,.02,6.7-.3l-1.8,.05c2.4-.36-3.35-.85-2.99-1.33-2.69,.41-7.07-.67-11.48-.09-.97-.1,.83-.15,.31-.26-1.12,.2-2.46,.23-4.96,.13l.28-.05c-.71,0-1.36,0-1.98,0-.44,0-.86-.01-1.26-.02-.33,.07-.03-.19,.05-.34,.12-.16,.23-.32,.35-.47,.23-.29,.45-.58,.67-.88,1.53-2.03,3.24-4.18,5.75-7.17l-.55,.3c1.09-1.29,1.37-1.51,1.92-2.07,.95-1.72-3.02,3.63-2.21,2.03,.8-.65,2.4-2.57,4.12-4.51,1.71-1.94,3.53-3.89,4.57-4.74l-1.44-1.46c-.26,.2-.46,.33-.61,.39-1.9,1.84,.74-.35-1.15,1.5l-.6,.4-.33,.61c-1.21,1.23-1.92,1.78-2.06,1.74,.29-.31,.77-.92,1.07-1.26-1.7,1.52-4.08,4.89-4.56,5.49,.54-.66,1.08-1.32,1.63-1.96-.94,1.24-1.62,2.09-3.17,4.37l-.44,.72c-.14,.24-.33,.5-.38,.69-.16,.41-.38,.85-.45,1.21-.08,.37-.13,.74-.07,1.13,.05,.38,.23,.82,.59,1.15-.16,.18,1.38-1.52,.73-.8h0s0,0,0,0h.01s.02,.02,.02,.02l.04,.03s.06,.04,.1,.04c.07,.03,.14,.02,.21,0,.14-.04,.26-.14,.35-.25,.05-.06,.09-.12,.12-.18,.03-.04,.02-.05,0-.03h-.05c-.08,.04-.19,.04-.52,.16-.07,.02-.21,.09-.23,.06l-.02-.06v-.03s-.01-.02-.01-.02l.05-.07,.43-.55,.1-.13h.02s.03,.03,.03,.03l.26,.15,.52,.29,.26,.14,.13,.07s.2-.06,.29-.09l1.26-.48c.72-.27,1.43-.55,2.13-.82,2.12-.82,4.16-1.64,6.04-2.44l-.53,.08c4.84-2.04,3.98-1.36,9.33-3.48l-.19,.1c1.04-.51,2.46-1.1,3.94-1.65-1.31,.63,2.65-.73,.92,.08,5.25-2.21,2.57-1.15,5.94-2.86l.88-.13c1.14-.61,1.21-.73,3.88-1.79-2.15,.98,1.82-.38-.58,.75,5.79-1.74,8.24-3.54,11.04-3.96,2.41-1.46-4.99,1.57-3.58,.92-1.28,.3,2.01-1.16,3.8-1.78,1.81-.67,3.3-.54,7.84-2.26-.45,.17-.47,.22-.92,.38,1.75-.52,3.27-1.42,5.43-2,1.06-.73,2.71-1,2.91-1.5l-4.13,1.65c2.32-.98,4.37-2.25,8.34-3.5-.28,.19-1.4,.72-2.17,1.08,1.18-.32,2.16-.9,3.38-1.23-.2,.5-5.03,1.98-7.45,3.22,1.28-.3,4.68-2.07,3.56-1.19,1.64-1.2,4.5-1.62,7.42-3.16l-.12,.3c.47-.22,1.44-.7,2.34-1.03l-1.51,.9c2.4-1.18,4.88-1.58,7.22-2.6-5,1.87-1.22,.15-3.4,.78,6.06-2.59,3.76-.75,10.64-3.38-.93,.37-3.57,1.14-2.14,.51,1.33-.43,3.1-.98,3.96-1.15,4.58-1.68-.79,.02,1.12-.81,1.66-.28,2.21-.92,4.21-1.7l.09,.22c5.3-1.66,1.23-.97,6.03-2.38l-1.9,.99,2.45-.91-.42,.43c2.62-1.1,3.49-1.29,6.15-2.07-.67,.03,.21-.53,2.57-1.25,1.65-.35-.83,.49,2.49-.55-.71,.36-1.48,.8-3,1.03-.13,.12-.7,.37-.83,.49,1.77-.37,4.35-1.29,5.56-1.62-.47,.13-1.03,.27-1.32,.32,1.59-.56,3.17-1.16,4.76-1.7,.79-.12,.2,.11-.38,.35,.98-.29,1.63-.58,3.08-.99-.33,.29-.18,.46-2.21,1.1,1.53-.47,3.05-.99,4.59-1.43,.33,0,2.45-.36,1.86-.15,2.6-.53,6.26-1.87,9.76-2.39,.17-.07,.53-.18,1.26-.36,1.63-.27,3.19-.47,4.8-.72,1.62-.21,3.31-.48,5.24-.88l2.26,.08c3.04-.44-3.05-.08,2.02-.82,3.6-.52,1.38,.15,2.66,.11,1.78-.34,4.88-1.03,8.24-.99-1.1,.15-1.97,.17-3,.28Zm38.07-3.59c-.73,.17-2.18,.54-2.74,.45,.81-.37,1.47-.33,2.74-.45Zm51.88-10.3c-.51-.22-1.23-.69-2.01-1.26,.61,.34,1.29,.76,2.01,1.26Zm158.13,30.78s-.05,0-.08-.01c-1.56-.56-1.01-.36,.08,.01Zm3.26,1.11c.34,.08,.33,.04,.2-.04-.25-.02-.98-.28-1.82-.53,.21,.13,.63,.28,1.62,.57Zm-354.08,8.66l.65-.18c-1.38,.6-1.01,.39-.65,.18Z"/>
      <path class="cls-9" d="M500.49,90.44c-.15-.16-.17-.23-.19-.29-.26-.14-.29-.1,.19,.29Z"/>
      <path class="cls-9" d="M392.96,110.85l-.11,.02c-.06,.03-.09,.05-.11,.07l.22-.09Z"/>
      <path class="cls-9" d="M615.32,116.69c-.69-.13-1.08-.22-1.33-.3-.05,.05,.27,.15,1.33,.3Z"/>
      <path class="cls-9" d="M684.89,131.76l-2.05-.85c.98,.43,1.31,.63,1.79,.89-.02-.07-.37-.32,.26-.04Z"/>
      <path class="cls-9" d="M700.95,142.28c.28,.16,.56,.38,.84,.53v-.14c-1.15-.76-1.98-1.22-.84-.39Z"/>
      <path class="cls-9" d="M686.42,133.33c.08,.23,1.34,.8,2.73,1.47l-.24-.12c.53-.03-.96-.74-2.49-1.35Z"/>
      <path class="cls-9" d="M689.48,134.96c.43,.21,.86,.43,1.27,.65,.21-.02-.5-.29-1.27-.65Z"/>
      <path class="cls-9" d="M671.85,126.85c.68,.28,.52-.1,.89,.11,.86,.02-4.74-1.28-.89-.11Z"/>
      <path class="cls-9" d="M687.26,134.47l-.38-.48-.87-.17c.43,.2,.85,.41,1.25,.65Z"/>
      <path class="cls-9" d="M676.17,129.51l2.27,.96c-.02-.05,.28,.04,.65,.16-1.41-.56-2.94-1.21-2.91-1.12Z"/>
      <path class="cls-9" d="M679.08,130.63c.73,.28,1.43,.55,1.85,.71-.39-.18-1.24-.52-1.85-.71Z"/>
      <polygon class="cls-9" points="684.17 133.14 683.53 132.79 681.96 132.07 684.17 133.14"/>
      <path class="cls-9" d="M650.9,121.81l-2.63-.52c-.29,.02,.42,.24,1.4,.42,.64,.08,1.62,.27,1.24,.1Z"/>
      <path class="cls-9" d="M658.59,124.46c-.69-.23-.72-.3-1.09-.48l-.16,.28,1.25,.2Z"/>
      <path class="cls-9" d="M651.01,122.61c-.28,.02-3.84-.62-.53,.11,.28-.02,2.91,.5,.53-.11Z"/>
      <polygon class="cls-9" points="611.33 115.29 612 115.38 611.97 114.86 611.33 115.29"/>
      <path class="cls-9" d="M575.8,112.63c3.15,.46,.78-.23,3.63,.22,.75-.04-2.32-.37-1.55-.39-1.92-.08-2.92-.25-2.08,.17Z"/>
      <path class="cls-9" d="M577.88,112.46c.31,0,.63,.02,.98,.03-.56-.03-.82-.03-.98-.03Z"/>
      <polygon class="cls-9" points="278.13 162.05 280.17 162.17 278.86 161.99 278.13 162.05"/>
      <path class="cls-9" d="M282.06,161.69l.48,.33,1.23-.29c-.46,.01-1.36,.03-1.71-.04Z"/>
      <path class="cls-9" d="M460.15,103.7l.14-.11c-.33-.03-.8,.08-1.76,.23,.54-.01,1.08-.08,1.62-.12Z"/>
      <polygon class="cls-9" points="432.43 106.62 432.9 106.59 431.99 106.37 432.43 106.62"/>
      <path class="cls-9" d="M409.34,108.88c.93-.1,2.04-.26,2.98-.34-2.04,.24-3.27,0-2.98,.34Z"/>
    </g>
  </g>
</svg>