<?xml version="1.0" encoding="UTF-8"?>
<svg id="Layer_2" data-name="Layer 2" xmlns="http://www.w3.org/2000/svg" xmlns:xlink="http://www.w3.org/1999/xlink" viewBox="0 0 421.77 614.57">
  <defs>
    <style>
      .cls-1, .cls-2 {
        fill: #153177;
      }

      .cls-3 {
        fill: url(#New_Gradient_Swatch_copy_2);
      }

      .cls-4 {
        letter-spacing: -.04em;
      }

      .cls-5 {
        fill: none;
        stroke: #3c5fb5;
        stroke-miterlimit: 10;
        stroke-width: 3px;
      }

      .cls-6 {
        fill: #27b62e;
      }

      .cls-2 {
        font-family: Arial-BoldMT, Arial;
        font-size: 47.5px;
      }

      .cls-7 {
        fill: url(#linear-gradient);
      }
    </style>
    <linearGradient id="linear-gradient" x1="210.89" y1="752.77" x2="210.89" y2="-232.49" gradientUnits="userSpaceOnUse">
      <stop offset=".26" stop-color="#70bde8"/>
      <stop offset="1" stop-color="#fff"/>
    </linearGradient>
    <linearGradient id="New_Gradient_Swatch_copy_2" data-name="New Gradient Swatch copy 2" x1="200.31" y1="168.33" x2="200.31" y2="323.98" gradientUnits="userSpaceOnUse">
      <stop offset="0" stop-color="#fff"/>
      <stop offset="1" stop-color="#a9ffd6"/>
    </linearGradient>
  </defs>
  <g id="element">
    <g>
      <g>
        <rect class="cls-7" x="0" width="421.77" height="614.57" rx="45" ry="45"/>
        <rect class="cls-5" x="10" y="10" width="401.77" height="594.57" rx="35" ry="35"/>
      </g>
      <text class="cls-2" transform="translate(126.52 414.79)"><tspan x="0" y="0">SỨ GIẢ</tspan><tspan x="-32.18" y="57">HÒ</tspan><tspan class="cls-4" x="39.07" y="57">A</tspan><tspan x="71.61" y="57" xml:space="preserve"> BÌNH</tspan><tspan x="-46.7" y="114">&amp; HÒ</tspan><tspan class="cls-4" x="72.05" y="114">A</tspan><tspan x="104.59" y="114" xml:space="preserve"> GIẢI</tspan></text>
      <g>
        <path class="cls-1" d="M270.71,71.3c12.56,9.85,15.58,26.24,7.49,40.28-.43,.75-.64,2.34-.2,2.77,6.89,6.77,12.95,14.21,18.38,22.76,.47-1.16,.81-1.95,1.12-2.75,3.12-8.02,8.63-13.77,16.52-17.19,3.48-1.51,5.66-.5,6.98,3.08,4.76,12.96-.37,28.18-12.04,35.68-.78,.5-1.55,1.02-2.21,1.46,1.55,5.71,3.23,11.23,4.53,16.84,2.37,10.19,2.89,20.56,2.35,30.98-.14,2.82-2.01,4.69-4.43,4.66-2.57-.03-4.22-1.98-4.29-5-.14-5.96-.28-11.91-.47-17.87-.04-1.18-.3-2.35-.52-3.9-8.23,5.6-12.41,13.02-12.28,22.7,.07,5.36,.81,10.73,.57,16.07-1.1,24.58-11.88,44.02-31.9,58.23-12.75,9.05-27.14,13.11-42.73,13.28-1.46,.02-3.2,.61-4.33,1.53-10.62,8.54-17.29,19.52-19.84,32.95-.79,4.17-2.15,5.33-6.4,5.26-18.59-.29-34.06-6.92-44.86-22.57-2.3-3.33-4.07-7.08-5.73-10.79-1.76-3.93-.47-6.42,3.76-7.43,13.63-3.28,24.6-10.92,34.34-20.65,.17-.17,.26-.41,.44-.69-4.97-1.31-9.92-2.43-14.75-3.93-13.18-4.09-25.09-10.47-35.15-20.08-13.09-12.49-20.66-27.91-24.1-45.5-1.89-9.66-2.43-19.41-1.58-29.24,.48-5.58,3.37-7.24,8.23-4.44,11.74,6.77,24.53,8.83,37.72,7.49,12-1.22,23.98-3.08,35.82-5.44,17.85-3.56,33.69,.96,48.59,10.47,1.85,1.18,3.66,2.42,5.41,3.58,2.79-4.01,5.25-7.99,8.14-11.62,4.72-5.92,10.54-10.49,18.16-12.02,9.29-1.87,17.57,.52,24.69,6.72,4.49,3.91,9.59,5.97,15.8,6.09-3.12-12.9-8.38-24.56-15.53-35.04-4.2,1.55-8.11,3.55-12.26,4.42-11.32,2.39-21.01-1.03-28.92-9.42-2.21-2.35-1.93-4.94,.67-7.07,6.89-5.63,14.81-7.76,24.46-6.68-2.89-2.39-5.06-4.6-7.62-6.22-6.6-4.18-13.37-8.09-20.08-12.1-.58-.35-1.23-.59-1.82-.92-2.57-1.45-3.44-3.66-2.35-5.94,1.12-2.35,3.56-3.14,6.32-1.82,3.53,1.68,6.99,3.51,10.47,5.3,1.12,.58,2.2,1.22,3.64,2.03-.05-1.03-.04-1.75-.14-2.44-1.23-8.94,1.17-16.86,6.8-23.83,.67-.83,1.7-1.36,2.56-2.04,.85,0,1.7,0,2.56,0Zm-67.58,220.67c-2.06-.66-3.86-1.1-5.55-1.82-2.17-.93-2.95-2.76-2.49-5.03,.42-2.05,2.34-3.33,4.62-3.15,.75,.06,1.5,.27,2.24,.48,12.56,3.6,25.04,2.74,37.2-1.43,29.65-10.16,47.48-38.56,44.01-69.61-.94-8.44,0-16.51,4.5-23.88,1.44-2.36,3.21-4.52,4.99-7-5.44-1.58-9.62-4.99-13.98-8.28-7.07-5.33-15.63-5.15-22.8,.08-6.08,4.44-9.9,10.67-13.35,17.31,.7,.6,1.33,1.17,1.98,1.7,3.16,2.59,6.39,5.11,9.48,7.79,2.01,1.75,2.19,4.36,.68,6.17-1.53,1.84-4,2.08-6.19,.56-.84-.58-1.6-1.27-2.4-1.91-9.22-7.41-18-15.39-28.81-20.62-9.9-4.78-20.09-7.3-31.15-5.31-10.97,1.97-21.95,3.98-32.99,5.47-13.64,1.83-27.2,1.39-40.3-3.55-1.54-.58-3.06-1.21-4.82-1.91,0,2.6-.08,4.8,.02,7,.21,4.73,.26,4.7,4.85,6.03,7,2.03,14.15,2.89,21.43,3.01,3,.05,4.94,1.99,4.85,4.51-.08,2.54-2.08,4.31-5.1,4.18-4.16-.18-8.34-.38-12.47-.91-3.92-.5-7.78-1.43-12.13-2.27,1.07,3.87,2.12,7.43,3.01,11.03,.35,1.39,1.05,1.88,2.43,2.05,6.99,.89,13.91,.96,20.79-.86,2.75-.73,5.06,.6,5.64,2.94,.62,2.5-.59,4.61-3.38,5.41-2.36,.67-4.79,1.35-7.23,1.48-4.38,.24-8.79,.07-13.67,.07,1.11,2,1.93,3.56,2.83,5.07,5.02,8.44,5.8,8.79,15.38,6.26,2.37-.63,4.62-1.71,6.95-2.49,2.45-.82,4.7,.08,5.65,2.14,.99,2.14,.14,4.58-2.2,5.82-1.57,.83-3.23,1.53-4.92,2.09-2.3,.76-4.67,1.32-7.79,2.18,4.36,2.98,8.12,5.59,11.95,8.09,.52,.34,1.53,.34,2.14,.09,3.44-1.42,6.86-2.89,10.22-4.48,2.5-1.18,4.79-.86,6.13,1.11,1.4,2.05,.88,4.59-1.39,6.26-1.4,1.03-2.91,1.89-4.62,2.99,2.21,.77,4.12,1.49,6.05,2.11q7.74,2.47,14.19-2.52c3.14-2.43,5.36-2.63,7.24-.66,1.72,1.81,1.46,3.98-.84,7.02-.04,.05-.02,.15-.06,.43,.64,.1,1.28,.27,1.92,.28,12.8,.29,25.14-1.33,36.16-8.61,2.52-1.67,5.09-1.12,6.47,1.09,1.32,2.11,.73,4.56-1.67,6.16-1.9,1.28-3.87,2.49-5.92,3.52-9.97,5.02-20.67,6.7-31.69,6.62-2.35-.02-3.9,.66-5.45,2.41-8.2,9.32-17.89,16.73-29.17,21.97-2.75,1.28-5.64,2.26-8.47,3.38,7.44,15.8,23.95,24.66,39.04,23.95,2.79-12.3,8.83-22.88,17.96-31.97Zm66.75-208.77c-4.14,5.75-3.23,17.83,1.67,22.15,3.69-7.17,3.01-16.2-1.67-22.15Zm8.06,48.7c-6.36-4.88-17.14-5.53-22.28-1.46,6.38,4.68,15.67,5.33,22.28,1.46Zm26.65,16.23c6.65-4.23,10.62-13.42,8.94-20.39-6.24,3.4-10.3,12.54-8.94,20.39Z"/>
        <path class="cls-3" d="M203.13,291.97c-9.14,9.09-15.17,19.67-17.96,31.97-15.09,.71-31.6-8.14-39.04-23.95,2.83-1.12,5.72-2.1,8.47-3.38,11.28-5.24,20.97-12.65,29.17-21.97,1.54-1.75,3.09-2.43,5.45-2.41,11.02,.08,21.72-1.6,31.69-6.62,2.05-1.03,4.02-2.24,5.92-3.52,2.4-1.61,2.99-4.05,1.67-6.16-1.38-2.21-3.95-2.76-6.47-1.09-11.02,7.28-23.35,8.9-36.16,8.61-.64-.01-1.28-.19-1.92-.28,.04-.27,.02-.37,.06-.43,2.3-3.04,2.56-5.22,.84-7.02-1.88-1.97-4.09-1.77-7.24,.66q-6.45,4.98-14.19,2.52c-1.94-.62-3.84-1.34-6.05-2.11,1.71-1.1,3.22-1.96,4.62-2.99,2.27-1.67,2.79-4.2,1.39-6.26-1.34-1.97-3.63-2.29-6.13-1.11-3.36,1.59-6.78,3.06-10.22,4.48-.61,.25-1.61,.25-2.14-.09-3.83-2.5-7.58-5.11-11.95-8.09,3.12-.86,5.49-1.42,7.79-2.18,1.69-.55,3.35-1.26,4.92-2.09,2.34-1.24,3.19-3.68,2.2-5.82-.95-2.06-3.2-2.96-5.65-2.14-2.34,.78-4.58,1.86-6.95,2.49-9.58,2.53-10.36,2.18-15.38-6.26-.9-1.51-1.72-3.07-2.83-5.07,4.89,0,9.29,.17,13.67-.07,2.43-.13,4.86-.81,7.23-1.48,2.79-.79,4-2.91,3.38-5.41-.58-2.34-2.89-3.66-5.64-2.94-6.88,1.82-13.8,1.75-20.79,.86-1.38-.18-2.08-.67-2.43-2.05-.9-3.6-1.94-7.15-3.01-11.03,4.35,.83,8.21,1.76,12.13,2.27,4.13,.53,8.31,.73,12.47,.91,3.01,.13,5.01-1.63,5.1-4.18,.08-2.51-1.85-4.46-4.85-4.51-7.27-.12-14.43-.98-21.43-3.01-4.59-1.33-4.64-1.3-4.85-6.03-.1-2.2-.02-4.4-.02-7,1.76,.7,3.28,1.33,4.82,1.91,13.1,4.95,26.66,5.39,40.3,3.55,11.04-1.48,22.02-3.5,32.99-5.47,11.06-1.99,21.25,.53,31.15,5.31,10.8,5.22,19.59,13.21,28.81,20.62,.8,.64,1.56,1.32,2.4,1.91,2.19,1.52,4.67,1.28,6.19-.56,1.5-1.81,1.33-4.43-.68-6.17-3.09-2.68-6.31-5.2-9.48-7.79-.65-.53-1.28-1.1-1.98-1.7,3.45-6.64,7.26-12.87,13.35-17.31,7.17-5.23,15.73-5.41,22.8-.08,4.35,3.28,8.54,6.7,13.98,8.28-1.78,2.47-3.55,4.64-4.99,7-4.5,7.37-5.44,15.44-4.5,23.88,3.47,31.05-14.36,59.44-44.01,69.61-12.16,4.17-24.64,5.02-37.2,1.43-.73-.21-1.48-.42-2.24-.48-2.28-.18-4.2,1.1-4.62,3.15-.47,2.27,.32,4.1,2.49,5.03,1.68,.72,3.48,1.16,5.55,1.82Zm68.99-107.33c.06-2.34-1.96-4.41-4.32-4.43-2.32-.02-4.21,1.77-4.32,4.1-.12,2.43,1.72,4.47,4.12,4.57,2.31,.1,4.46-1.92,4.53-4.24Z"/>
        <path class="cls-6" d="M269.88,83.2c4.68,5.95,5.36,14.98,1.67,22.15-4.89-4.32-5.8-16.4-1.67-22.15Z"/>
        <path class="cls-6" d="M277.94,131.9c-6.61,3.87-15.91,3.22-22.28-1.46,5.15-4.06,15.92-3.42,22.28,1.46Z"/>
        <path class="cls-6" d="M304.59,148.13c-1.37-7.84,2.7-16.99,8.94-20.39,1.69,6.97-2.29,16.16-8.94,20.39Z"/>
        <path class="cls-1" d="M272.12,184.65c-.06,2.32-2.22,4.34-4.53,4.24-2.4-.1-4.23-2.14-4.12-4.57,.11-2.32,2-4.12,4.32-4.1,2.37,.02,4.39,2.09,4.32,4.43Z"/>
      </g>
    </g>
  </g>
</svg>