<?xml version="1.0" encoding="UTF-8"?>
<svg id="Layer_2" data-name="Layer 2" xmlns="http://www.w3.org/2000/svg" xmlns:xlink="http://www.w3.org/1999/xlink" viewBox="0 0 910.75 220.22">
  <defs>
    <style>
      .cls-1 {
        font-family: Arial-BoldMT, Arial;
        font-size: 90px;
      }

      .cls-2 {
        fill: none;
        stroke: #fff;
        stroke-miterlimit: 10;
        stroke-width: 2px;
      }

      .cls-3 {
        fill: url(#linear-gradient);
      }

      .cls-4 {
        letter-spacing: -.04em;
      }
    </style>
    <linearGradient id="linear-gradient" x1="443.56" y1="-47.16" x2="443.56" y2="265.33" gradientUnits="userSpaceOnUse">
      <stop offset=".44" stop-color="#153177"/>
      <stop offset=".89" stop-color="#2695ad"/>
      <stop offset="1" stop-color="#2aacba"/>
    </linearGradient>
  </defs>
  <g id="element">
    <g>
      <text class="cls-1" transform="translate(4.07 78.33)"><tspan x="0" y="0">TRUYỆN KHO</tspan><tspan class="cls-4" x="595.02" y="0">A</tspan><tspan x="656.67" y="0" xml:space="preserve"> HỌC </tspan><tspan x="165.1" y="108">VIỄN TƯỞNG</tspan></text>
      <g>
        <path class="cls-3" d="M25.12,78.33V24.81H6V13.91H57.2v10.9h-19.07v53.53h-13.01Z"/>
        <path class="cls-3" d="M65.63,78.33V13.91h27.38c6.88,0,11.89,.58,15.01,1.74,3.12,1.16,5.62,3.22,7.49,6.17,1.87,2.96,2.81,6.34,2.81,10.15,0,4.83-1.42,8.83-4.26,11.98-2.84,3.15-7.09,5.13-12.74,5.95,2.81,1.64,5.13,3.44,6.97,5.41,1.83,1.96,4.3,5.45,7.4,10.46l7.87,12.57h-15.56l-9.4-14.02c-3.34-5.01-5.62-8.17-6.86-9.47-1.23-1.3-2.53-2.2-3.91-2.68-1.38-.48-3.56-.73-6.55-.73h-2.64v26.89h-13.01Zm13.01-37.18h9.62c6.24,0,10.14-.26,11.69-.79,1.55-.53,2.77-1.44,3.65-2.72,.88-1.29,1.32-2.9,1.32-4.83,0-2.17-.58-3.92-1.74-5.25-1.16-1.33-2.79-2.18-4.9-2.53-1.05-.15-4.22-.22-9.49-.22h-10.15v16.35Z"/>
        <path class="cls-3" d="M130.5,13.91h13.01V48.8c0,5.54,.16,9.13,.48,10.77,.56,2.64,1.88,4.75,3.98,6.35,2.09,1.6,4.96,2.4,8.59,2.4s6.47-.75,8.35-2.26c1.87-1.51,3-3.36,3.38-5.56,.38-2.2,.57-5.84,.57-10.94V13.91h13.01V47.75c0,7.73-.35,13.2-1.05,16.39-.7,3.19-2,5.89-3.89,8.09s-4.42,3.95-7.58,5.25-7.29,1.96-12.39,1.96c-6.15,0-10.82-.71-14-2.13-3.18-1.42-5.69-3.27-7.54-5.54-1.85-2.27-3.06-4.65-3.65-7.14-.85-3.69-1.27-9.14-1.27-16.35V13.91Z"/>
        <path class="cls-3" d="M212.5,78.33v-27.11l-23.6-37.31h15.25l15.16,25.49,14.85-25.49h14.99l-23.69,37.4v27.03h-12.96Z"/>
        <path class="cls-3" d="M255.61,78.33V13.91h47.77v10.9h-34.76v14.28h32.34v10.85h-32.34v17.53h35.99v10.85h-49Zm25.22-69.87l-4.83,3.25h-8.66l9.58-5.71h7.82l9.58,5.71h-8.66l-4.83-3.25Zm-5.93,87.5v-12.35h12.35v12.35h-12.35Z"/>
        <path class="cls-3" d="M315.77,78.33V13.91h12.66l26.37,43.02V13.91h12.08V78.33h-13.05l-25.97-42.01v42.01h-12.08Z"/>
        <path class="cls-3" d="M405.81,78.33V13.91h13.01v28.61l26.28-28.61h17.49l-24.26,25.09,25.58,39.33h-16.83l-17.71-30.23-10.55,10.77v19.47h-13.01Z"/>
        <path class="cls-3" d="M470.68,78.33V13.91h13.01v25.36h25.49V13.91h13.01V78.33h-13.01v-28.17h-25.49v28.17h-13.01Z"/>
        <path class="cls-3" d="M532.99,46.52c0-6.56,.98-12.07,2.94-16.52,1.46-3.28,3.46-6.23,6-8.83,2.53-2.61,5.31-4.54,8.33-5.8,4.01-1.7,8.64-2.55,13.89-2.55,9.49,0,17.09,2.94,22.79,8.83,5.7,5.89,8.55,14.08,8.55,24.57s-2.83,18.54-8.48,24.41c-5.65,5.87-13.21,8.81-22.68,8.81s-17.2-2.92-22.85-8.77c-5.65-5.84-8.48-13.89-8.48-24.15Zm13.4-.44c0,7.29,1.68,12.83,5.05,16.59,3.37,3.76,7.65,5.65,12.83,5.65s9.44-1.87,12.77-5.6c3.32-3.74,4.99-9.34,4.99-16.81s-1.62-12.89-4.86-16.52c-3.24-3.63-7.54-5.45-12.9-5.45s-9.68,1.84-12.96,5.52c-3.28,3.68-4.92,9.22-4.92,16.63Z"/>
        <path class="cls-3" d="M663.73,78.33h-14.15l-5.62-14.63h-25.75l-5.32,14.63h-13.8l25.09-64.42h13.75l25.8,64.42Zm-23.95-25.49l-8.88-23.91-8.7,23.91h17.58Z"/>
        <path class="cls-3" d="M692.34,78.33V13.91h13.01v25.36h25.49V13.91h13.01V78.33h-13.01v-28.17h-25.49v28.17h-13.01Z"/>
        <path class="cls-3" d="M754.65,46.52c0-6.56,.98-12.07,2.94-16.52,1.46-3.28,3.46-6.23,6-8.83,2.53-2.61,5.31-4.54,8.33-5.8,4.01-1.7,8.64-2.55,13.89-2.55,9.49,0,17.09,2.94,22.79,8.83,5.7,5.89,8.55,14.08,8.55,24.57s-2.83,18.54-8.48,24.41c-5.65,5.87-13.21,8.81-22.68,8.81s-17.2-2.92-22.85-8.77c-5.65-5.84-8.48-13.89-8.48-24.15Zm13.4-.44c0,7.29,1.68,12.83,5.05,16.59,3.37,3.76,7.65,5.65,12.83,5.65s9.44-1.87,12.77-5.6c3.32-3.74,4.99-9.34,4.99-16.81s-1.62-12.89-4.86-16.52c-3.24-3.63-7.54-5.45-12.9-5.45s-9.68,1.84-12.96,5.52c-3.28,3.68-4.92,9.22-4.92,16.63Zm11.16,49.88v-12.35h12.35v12.35h-12.35Z"/>
        <path class="cls-3" d="M868.51,54.65l12.61,4c-1.93,7.03-5.15,12.25-9.65,15.67-4.5,3.41-10.2,5.12-17.12,5.12-8.55,0-15.59-2.92-21.09-8.77s-8.26-13.84-8.26-23.97c0-10.72,2.77-19.05,8.31-24.98s12.82-8.9,21.84-8.9c7.88,0,14.28,2.33,19.2,6.99,2.93,2.75,5.13,6.71,6.59,11.87l-12.88,3.08c-.76-3.34-2.35-5.98-4.77-7.91-2.42-1.93-5.35-2.9-8.81-2.9-4.78,0-8.65,1.71-11.62,5.14-2.97,3.43-4.46,8.98-4.46,16.66,0,8.15,1.46,13.95,4.39,17.4,2.93,3.46,6.74,5.19,11.43,5.19,3.46,0,6.43-1.1,8.92-3.3s4.28-5.65,5.36-10.37Z"/>
        <path class="cls-3" d="M192.15,186.33l-23.03-64.42h14.11l16.3,47.68,15.78-47.68h13.8l-23.07,64.42h-13.89Z"/>
        <path class="cls-3" d="M235.35,186.33V121.91h13.01v64.42h-13.01Z"/>
        <path class="cls-3" d="M260.75,186.33V121.91h47.77v10.9h-34.76v14.28h32.34v10.85h-32.34v17.53h35.99v10.85h-49Zm10.55-73.83c-.03-1.96,.78-3.68,2.44-5.16,1.65-1.48,3.82-2.22,6.48-2.22,1.82,0,4.29,.64,7.43,1.93,2.26,.7,3.9,1.05,4.92,1.05,1.79,0,2.86-1.03,3.21-3.08h4.92c-.18,4.89-3.05,7.34-8.61,7.34-1.85,0-4.28-.64-7.29-1.93-2.58-.85-4.32-1.27-5.23-1.27-1.88,0-2.99,1.11-3.34,3.34h-4.92Zm14.68,3.96l-4.83,3.25h-8.66l9.58-5.71h7.82l9.58,5.71h-8.66l-4.83-3.25Z"/>
        <path class="cls-3" d="M320.91,186.33V121.91h12.66l26.37,43.02v-43.02h12.08v64.42h-13.05l-25.97-42.01v42.01h-12.08Z"/>
        <path class="cls-3" d="M425.28,186.33v-53.53h-19.12v-10.9h51.2v10.9h-19.07v53.53h-13.01Z"/>
        <path class="cls-3" d="M521.52,121.91h12.35v8.83c0,3.63-.31,6.48-.94,8.53-.63,2.05-1.78,3.88-3.45,5.49-2.7,2.58-6.84,4.29-12.44,5.14v5.84c0,7.59-.35,13.05-1.05,16.39-.67,3.14-1.96,5.83-3.87,8.09-4.16,4.81-10.83,7.21-20,7.21-10.2,0-17.37-2.56-21.53-7.69-1.85-2.26-3.06-4.63-3.65-7.12-.85-3.66-1.27-9.11-1.27-16.35v-34.37h13.01v34.89c0,5.6,.16,9.18,.48,10.77,1.2,5.83,5.39,8.75,12.57,8.75s10.83-2.61,11.73-7.82c.38-2.2,.57-5.84,.57-10.94v-35.64h13.01v22.98c4.25-.79,7.21-2.33,8.88-4.61,1-1.35,1.52-3.35,1.58-6.02h-5.98v-12.35Z"/>
        <path class="cls-3" d="M598.29,121.91h12.35v8.83c0,3.63-.31,6.48-.94,8.53-.63,2.05-1.78,3.87-3.45,5.47-1.67,1.6-3.76,2.86-6.28,3.8,.2,1.82,.31,3.71,.31,5.67,0,10.31-2.81,18.43-8.44,24.35-5.62,5.92-13.2,8.88-22.72,8.88s-17.23-2.94-22.87-8.81c-5.64-5.87-8.46-13.91-8.46-24.1,0-10.78,2.99-19.23,8.96-25.36,5.39-5.57,12.79-8.35,22.19-8.35s17.09,2.94,22.81,8.83c3.43,3.57,5.83,7.98,7.21,13.23,3.43-1.55,5.2-4.42,5.32-8.61h-5.98v-12.35Zm-47.11,32.17c0,7.09,1.68,12.63,5.05,16.61,3.19,3.75,7.47,5.62,12.83,5.62s9.62-1.87,12.79-5.62c3.31-3.93,4.97-9.52,4.97-16.79s-1.61-12.71-4.83-16.52c-3.11-3.63-7.41-5.45-12.92-5.45s-9.83,1.85-12.96,5.54c-3.28,3.84-4.92,9.38-4.92,16.61Zm18.5-39.86c1.55-.38,2.34-1.05,2.37-2.02,.03-.67-.38-1.25-1.23-1.71-1.23-.67-3.18-1.01-5.84-1.01-.91,0-2.29,.06-4.13,.18l-.48-4.48c1.14-.23,3.25-.34,6.33-.31,3.6,.03,6.55,.62,8.83,1.76,2.52,1.23,3.81,2.94,3.87,5.14,.12,3.05-2.55,4.91-8,5.58v2.2h-4.92v-4.83c1.67-.18,2.74-.34,3.21-.48Z"/>
        <path class="cls-3" d="M617.32,186.33V121.91h12.66l26.37,43.02v-43.02h12.08v64.42h-13.05l-25.97-42.01v42.01h-12.08Z"/>
        <path class="cls-3" d="M712.16,162.65v-10.85h28.04v25.66c-2.72,2.64-6.67,4.96-11.84,6.97-5.17,2.01-10.41,3.01-15.71,3.01-6.74,0-12.61-1.41-17.62-4.24-5.01-2.83-8.77-6.87-11.29-12.13-2.52-5.26-3.78-10.98-3.78-17.16,0-6.71,1.41-12.67,4.22-17.89,2.81-5.21,6.93-9.21,12.35-12,4.13-2.14,9.27-3.21,15.42-3.21,8,0,14.25,1.68,18.74,5.03,4.5,3.35,7.39,7.99,8.68,13.91l-12.92,2.42c-.91-3.16-2.61-5.66-5.12-7.49-2.5-1.83-5.63-2.75-9.38-2.75-5.68,0-10.2,1.8-13.56,5.41-3.35,3.6-5.03,8.95-5.03,16.04,0,7.65,1.7,13.38,5.1,17.2,3.4,3.82,7.85,5.73,13.36,5.73,2.72,0,5.46-.53,8.2-1.6,2.74-1.07,5.09-2.37,7.05-3.89v-8.17h-14.9Z"/>
      </g>
      <g>
        <path class="cls-2" d="M25.12,83.33c-2.76,0-5-2.24-5-5V29.81H6c-2.76,0-5-2.24-5-5V13.91c0-2.76,2.24-5,5-5H57.2c2.76,0,5,2.24,5,5v10.9c0,2.76-2.24,5-5,5h-14.07v48.53c0,2.76-2.24,5-5,5h-13.01Z"/>
        <path class="cls-2" d="M108,83.33c-1.67,0-3.22-.83-4.15-2.21l-9.4-14.02c-4.16-6.24-5.76-8.21-6.34-8.82-.67-.71-1.32-1.18-1.93-1.39-.21-.07-.91-.27-2.53-.38v21.83c0,2.76-2.24,5-5,5h-13.01c-2.76,0-5-2.24-5-5V13.91c0-2.76,2.24-5,5-5h27.38c7.55,0,13.03,.67,16.75,2.05,4.16,1.54,7.51,4.3,9.98,8.19,2.38,3.76,3.59,8.08,3.59,12.83,0,6.09-1.87,11.24-5.55,15.32-1.63,1.81-3.61,3.32-5.9,4.53,.02,.02,.05,.05,.07,.07,2.08,2.23,4.69,5.9,8,11.24l7.85,12.55c.96,1.54,1.02,3.48,.14,5.07-.88,1.59-2.56,2.58-4.37,2.58h-15.56Zm-19.73-47.18c7.95,0,9.81-.44,10.1-.53,.64-.22,.92-.53,1.11-.8,.3-.44,.45-1.12,.45-2.02s-.17-1.58-.51-1.97c-.13-.15-.54-.62-1.87-.86-.41-.05-2.11-.17-8.75-.17h-5.15v6.35h4.62Z"/>
        <path class="cls-2" d="M156.95,84.43c-6.93,0-12.17-.84-16.04-2.57-3.89-1.74-7.04-4.07-9.38-6.95-2.32-2.85-3.88-5.93-4.63-9.15-.95-4.12-1.41-9.83-1.41-17.49V13.91c0-2.76,2.24-5,5-5h13.01c2.76,0,5,2.24,5,5V48.8c0,7.06,.27,9.21,.39,9.8,.29,1.39,.97,2.47,2.1,3.34,1.19,.91,3.06,1.37,5.56,1.37,3.29,0,4.68-.73,5.21-1.16,.93-.75,1.42-1.52,1.59-2.52,.23-1.31,.5-4.13,.5-10.09V13.91c0-2.76,2.24-5,5-5h13.01c2.76,0,5,2.24,5,5V47.75c0,8.17-.38,13.89-1.17,17.47-.88,3.99-2.56,7.45-4.98,10.27-2.4,2.79-5.58,5.02-9.47,6.61-3.81,1.57-8.49,2.33-14.3,2.33Z"/>
        <path class="cls-2" d="M212.5,83.33c-2.76,0-5-2.24-5-5v-25.67l-22.82-36.09c-.97-1.54-1.03-3.49-.15-5.08,.88-1.6,2.56-2.59,4.38-2.59h15.25c1.76,0,3.4,.93,4.3,2.44l10.82,18.19,10.58-18.15c.9-1.54,2.54-2.48,4.32-2.48h14.99c1.82,0,3.5,.99,4.38,2.59,.88,1.6,.82,3.55-.16,5.09l-22.91,36.17v25.58c0,2.76-2.24,5-5,5h-12.96Z"/>
        <path class="cls-2" d="M274.9,100.96c-2.76,0-5-2.24-5-5v-12.35c0-.09,0-.18,0-.27h-14.3c-2.76,0-5-2.24-5-5V13.91c0-2.76,2.24-5,5-5h7.59c.4-.59,.93-1.11,1.58-1.49l9.58-5.71c.77-.46,1.66-.71,2.56-.71h7.82c.9,0,1.79,.24,2.56,.71l9.58,5.71c.65,.39,1.18,.9,1.58,1.49h4.91c2.76,0,5,2.24,5,5v10.9c0,2.76-2.24,5-5,5h-29.76v4.28h27.34c2.76,0,5,2.24,5,5v10.85c0,2.76-2.24,5-5,5h-27.34v7.53h30.99c2.76,0,5,2.24,5,5v10.85c0,2.76-2.24,5-5,5h-12.37c0,.09,0,.18,0,.27v12.35c0,2.76-2.24,5-5,5h-12.35Z"/>
        <path class="cls-2" d="M353.83,83.33c-1.73,0-3.34-.9-4.25-2.37l-16.72-27.04v24.42c0,2.76-2.24,5-5,5h-12.08c-2.76,0-5-2.24-5-5V13.91c0-2.76,2.24-5,5-5h12.66c1.74,0,3.35,.9,4.26,2.39l17.1,27.91V13.91c0-2.76,2.24-5,5-5h12.08c2.76,0,5,2.24,5,5V78.33c0,2.76-2.24,5-5,5h-13.05Z"/>
        <path class="cls-2" d="M447.08,83.33c-1.78,0-3.42-.94-4.31-2.47l-14.4-24.59-4.54,4.63v17.43c0,2.76-2.24,5-5,5h-13.01c-2.76,0-5-2.24-5-5V13.91c0-2.76,2.24-5,5-5h13.01c2.76,0,5,2.24,5,5v15.77l17.6-19.16c.95-1.03,2.28-1.62,3.68-1.62h17.49c2.01,0,3.82,1.2,4.6,3.05s.39,3.98-1.01,5.43l-21.49,22.23,23.41,35.99c1,1.54,1.08,3.5,.2,5.11-.87,1.61-2.56,2.62-4.39,2.62h-16.83Z"/>
        <path class="cls-2" d="M509.17,83.33c-2.76,0-5-2.24-5-5v-23.17h-15.49v23.17c0,2.76-2.24,5-5,5h-13.01c-2.76,0-5-2.24-5-5V13.91c0-2.76,2.24-5,5-5h13.01c2.76,0,5,2.24,5,5v20.36h15.49V13.91c0-2.76,2.24-5,5-5h13.01c2.76,0,5,2.24,5,5V78.33c0,2.76-2.24,5-5,5h-13.01Z"/>
        <path class="cls-2" d="M564.33,84.43c-10.94,0-19.84-3.46-26.45-10.29-6.56-6.78-9.89-16.08-9.89-27.62,0-7.23,1.13-13.47,3.37-18.54,1.71-3.82,4.06-7.28,6.99-10.3,3-3.08,6.36-5.41,9.99-6.93,4.59-1.94,9.92-2.93,15.81-2.93,10.85,0,19.73,3.48,26.38,10.36,6.61,6.83,9.95,16.26,9.95,28.04s-3.32,21.07-9.88,27.88c-6.61,6.86-15.45,10.34-26.28,10.34Zm-.04-55.5c-3.96,0-6.89,1.22-9.23,3.84-2.42,2.72-3.65,7.19-3.65,13.3s1.27,10.45,3.78,13.25c2.43,2.72,5.32,3.98,9.11,3.98s6.65-1.25,9.03-3.93c2.47-2.78,3.72-7.31,3.72-13.48s-1.21-10.52-3.59-13.2c-2.3-2.58-5.21-3.78-9.16-3.78Z"/>
        <path class="cls-2" d="M649.58,83.33c-2.07,0-3.92-1.27-4.67-3.21l-4.39-11.43h-18.81l-4.12,11.34c-.72,1.98-2.6,3.29-4.7,3.29h-13.8c-1.65,0-3.2-.82-4.13-2.18-.93-1.36-1.13-3.1-.53-4.64l25.09-64.42c.75-1.92,2.6-3.19,4.66-3.19h13.75c2.04,0,3.88,1.24,4.64,3.14l25.8,64.42c.62,1.54,.43,3.29-.5,4.66-.93,1.37-2.48,2.2-4.14,2.2h-14.15Zm-16.99-35.49l-1.64-4.42-1.61,4.42h3.25Z"/>
        <path class="cls-2" d="M730.83,83.33c-2.76,0-5-2.24-5-5v-23.17h-15.49v23.17c0,2.76-2.24,5-5,5h-13.01c-2.76,0-5-2.24-5-5V13.91c0-2.76,2.24-5,5-5h13.01c2.76,0,5,2.24,5,5v20.36h15.49V13.91c0-2.76,2.24-5,5-5h13.01c2.76,0,5,2.24,5,5V78.33c0,2.76-2.24,5-5,5h-13.01Z"/>
        <path class="cls-2" d="M779.22,100.96c-2.76,0-5-2.24-5-5v-12.35c0-.24,.02-.48,.05-.71-5.74-1.63-10.67-4.56-14.73-8.76-6.56-6.78-9.89-16.08-9.89-27.62,0-7.23,1.13-13.47,3.37-18.54,1.71-3.82,4.06-7.28,6.99-10.3,3-3.08,6.36-5.41,9.99-6.93,4.59-1.94,9.92-2.93,15.81-2.93,10.85,0,19.73,3.48,26.38,10.36,6.61,6.83,9.95,16.26,9.95,28.04s-3.32,21.07-9.88,27.88c-4.31,4.48-9.57,7.52-15.72,9.09,.01,.14,.02,.29,.02,.43v12.35c0,2.76-2.24,5-5,5h-12.35Zm6.72-72.03c-3.96,0-6.89,1.22-9.23,3.84-2.42,2.72-3.65,7.19-3.65,13.3s1.27,10.45,3.78,13.25c2.43,2.72,5.32,3.98,9.11,3.98s6.65-1.25,9.03-3.93c2.47-2.77,3.72-7.31,3.72-13.48s-1.21-10.52-3.59-13.2c-2.3-2.58-5.21-3.78-9.17-3.78Z"/>
        <path class="cls-2" d="M854.36,84.43c-9.95,0-18.27-3.48-24.73-10.34-6.39-6.78-9.62-16-9.62-27.4,0-11.98,3.25-21.53,9.65-28.39,6.49-6.96,15.07-10.49,25.5-10.49,9.17,0,16.78,2.81,22.64,8.36,3.57,3.36,6.26,8.12,7.96,14.13,.37,1.31,.19,2.72-.49,3.89s-1.83,2.02-3.15,2.34l-12.88,3.08c-.38,.09-.77,.14-1.16,.14-.93,0-1.84-.26-2.64-.75-1.13-.7-1.94-1.83-2.24-3.14-.51-2.23-1.49-3.9-3.02-5.12-1.52-1.22-3.38-1.81-5.69-1.81-3.33,0-5.82,1.09-7.85,3.42-2.12,2.44-3.24,7.07-3.24,13.38,0,8.58,1.74,12.44,3.21,14.17,1.98,2.33,4.4,3.42,7.61,3.42,2.25,0,4.03-.65,5.61-2.05,1.68-1.48,2.96-4.09,3.8-7.74,.31-1.36,1.18-2.53,2.39-3.22,.76-.44,1.62-.66,2.48-.66,.51,0,1.02,.08,1.51,.23l12.61,4c2.56,.81,4.02,3.5,3.31,6.09-2.22,8.08-6.07,14.25-11.45,18.32-5.37,4.07-12.14,6.14-20.14,6.14Z"/>
        <path class="cls-2" d="M192.15,191.33c-2.11,0-4-1.33-4.71-3.32l-23.03-64.42c-.55-1.53-.32-3.23,.62-4.56,.94-1.33,2.46-2.12,4.09-2.12h14.11c2.14,0,4.04,1.36,4.73,3.38l11.49,33.62,11.11-33.57c.68-2.05,2.59-3.43,4.75-3.43h13.8c1.63,0,3.15,.79,4.09,2.12,.94,1.33,1.17,3.03,.62,4.56l-23.07,64.42c-.71,1.99-2.6,3.31-4.71,3.31h-13.89Z"/>
        <rect class="cls-2" x="230.35" y="116.91" width="23.01" height="74.42" rx="5" ry="5"/>
        <path class="cls-2" d="M260.75,191.33c-2.76,0-5-2.24-5-5V121.91c0-2.76,2.24-5,5-5h7.59c.06-.08,.12-.17,.18-.25-1.32-.88-2.2-2.38-2.22-4.08-.05-3.42,1.37-6.52,4.11-8.97,2.59-2.32,5.89-3.49,9.81-3.49,2.45,0,5.43,.73,9.11,2.22,.82,.25,1.45,.42,1.93,.53,.81-1.7,2.55-2.84,4.51-2.84h4.92c1.36,0,2.66,.55,3.6,1.53,.94,.98,1.45,2.29,1.4,3.65-.15,4.24-1.8,7.53-4.66,9.61l.99,.59c.65,.39,1.18,.9,1.58,1.49h4.91c2.76,0,5,2.24,5,5v10.9c0,2.76-2.24,5-5,5h-29.76v4.28h27.34c2.76,0,5,2.24,5,5v10.85c0,2.76-2.24,5-5,5h-27.34v7.53h30.99c2.76,0,5,2.24,5,5v10.85c0,2.76-2.24,5-5,5h-49Z"/>
        <path class="cls-2" d="M358.97,191.33c-1.73,0-3.34-.9-4.25-2.37l-16.72-27.04v24.42c0,2.76-2.24,5-5,5h-12.08c-2.76,0-5-2.24-5-5V121.91c0-2.76,2.24-5,5-5h12.66c1.74,0,3.35,.9,4.26,2.39l17.1,27.91v-25.3c0-2.76,2.24-5,5-5h12.08c2.76,0,5,2.24,5,5v64.42c0,2.76-2.24,5-5,5h-13.05Z"/>
        <path class="cls-2" d="M425.28,191.33c-2.76,0-5-2.24-5-5v-48.53h-14.12c-2.76,0-5-2.24-5-5v-10.9c0-2.76,2.24-5,5-5h51.2c2.76,0,5,2.24,5,5v10.9c0,2.76-2.24,5-5,5h-14.07v48.53c0,2.76-2.24,5-5,5h-13.01Z"/>
        <path class="cls-2" d="M492.12,192.43c-11.73,0-20.28-3.21-25.42-9.54-2.31-2.82-3.87-5.9-4.63-9.12-.95-4.08-1.41-9.8-1.41-17.49v-34.37c0-2.76,2.24-5,5-5h13.01c2.76,0,5,2.24,5,5v34.89c0,7.12,.27,9.2,.38,9.77,.47,2.29,1.49,4.74,7.67,4.74s6.57-2.3,6.81-3.68c.23-1.31,.5-4.12,.5-10.08v-35.64c0-2.76,2.24-5,5-5h13.01c.81,0,1.57,.19,2.24,.53,.67-.34,1.44-.53,2.24-.53h12.35c2.76,0,5,2.24,5,5v8.83c0,4.17-.38,7.44-1.17,9.99-.88,2.86-2.48,5.43-4.76,7.62-2.67,2.56-6.33,4.44-10.91,5.63v1.76c0,8.01-.38,13.71-1.16,17.42-.85,3.95-2.51,7.4-4.94,10.28-5.17,5.98-13.17,8.98-23.82,8.98Z"/>
        <path class="cls-2" d="M569.12,192.43c-10.98,0-19.89-3.48-26.48-10.35-6.54-6.81-9.85-16.08-9.85-27.57,0-12.08,3.49-21.79,10.39-28.85,4.79-4.95,10.93-8.06,18.31-9.27,0,0,0-1.75,0-1.78-.1,0-.21,.01-.31,.02-.11,0-.21,.01-.32,.01-2.53,0-4.69-1.91-4.97-4.46l-.48-4.48c-.28-2.56,1.44-4.92,3.97-5.43,1.38-.28,3.4-.41,6.35-.41h1.03c4.35,.04,8.06,.81,11.02,2.29,5.61,2.74,6.57,7.12,6.63,9.48,.06,1.44-.2,3.97-2.19,6.24,4.14,1.41,7.84,3.53,11.09,6.36v-2.32c0-2.76,2.24-5,5-5h12.35c2.76,0,5,2.24,5,5v8.83c0,4.17-.38,7.44-1.17,9.99-.88,2.87-2.49,5.43-4.77,7.62-1.31,1.25-2.81,2.34-4.49,3.27,.04,.85,.06,1.72,.06,2.58,0,11.59-3.3,20.94-9.81,27.79-6.58,6.92-15.44,10.43-26.34,10.43Zm-.04-55.5c-4.06,0-6.97,1.2-9.15,3.77-2.48,2.9-3.73,7.4-3.73,13.37s1.3,10.34,3.87,13.38c2.23,2.63,5.1,3.85,9.01,3.85s6.75-1.22,8.97-3.85c2.51-2.98,3.79-7.54,3.79-13.56s-1.23-10.43-3.65-13.29c-2.14-2.5-5.04-3.68-9.1-3.68Z"/>
        <path class="cls-2" d="M655.38,191.33c-1.73,0-3.34-.9-4.25-2.37l-16.72-27.04v24.42c0,2.76-2.24,5-5,5h-12.08c-2.76,0-5-2.24-5-5V121.91c0-2.76,2.24-5,5-5h12.66c1.74,0,3.35,.9,4.26,2.39l17.1,27.91v-25.3c0-2.76,2.24-5,5-5h12.08c2.76,0,5,2.24,5,5v64.42c0,2.76-2.24,5-5,5h-13.05Z"/>
        <path class="cls-2" d="M712.64,192.43c-7.58,0-14.34-1.64-20.08-4.89-5.9-3.33-10.39-8.15-13.35-14.32-2.83-5.91-4.27-12.41-4.27-19.32,0-7.52,1.62-14.33,4.82-20.26,3.29-6.1,8.16-10.83,14.47-14.07,4.82-2.49,10.78-3.76,17.71-3.76,9.06,0,16.37,2.03,21.73,6.02,5.47,4.08,9.03,9.75,10.58,16.85,.29,1.32,.03,2.7-.72,3.83s-1.92,1.9-3.25,2.15l-11.37,2.13h11.28c2.76,0,5,2.24,5,5v25.66c0,1.35-.55,2.65-1.52,3.59-3.24,3.13-7.66,5.76-13.51,8.03-5.73,2.22-11.62,3.35-17.52,3.35Zm-.7-55.5c-4.27,0-7.51,1.25-9.9,3.81-2.45,2.63-3.69,6.88-3.69,12.63,0,6.35,1.29,11.02,3.83,13.88,2.46,2.77,5.52,4.06,9.62,4.06,2.09,0,4.23-.42,6.38-1.26,1.42-.56,2.72-1.18,3.87-1.87v-.54h-9.9c-2.76,0-5-2.24-5-5v-10.85c0-2.76,2.24-5,5-5h12.38c-1.37-.56-2.47-1.73-2.9-3.24-.6-2.09-1.67-3.67-3.26-4.84-1.64-1.2-3.75-1.78-6.43-1.78Z"/>
      </g>
    </g>
  </g>
</svg>