<?xml version="1.0" encoding="UTF-8"?>
<svg id="Layer_2" data-name="Layer 2" xmlns="http://www.w3.org/2000/svg" xmlns:xlink="http://www.w3.org/1999/xlink" viewBox="0 0 1037.01 159.88">
  <defs>
    <style>
      .cls-1 {
        letter-spacing: -.01em;
      }

      .cls-2 {
        letter-spacing: -.02em;
      }

      .cls-3 {
        font-family: UTM-Azuki, 'UTM Azuki';
        font-size: 129.86px;
      }

      .cls-4 {
        letter-spacing: 0em;
      }

      .cls-5 {
        letter-spacing: -.02em;
      }

      .cls-6 {
        letter-spacing: 0em;
      }

      .cls-7 {
        letter-spacing: -.01em;
      }

      .cls-8 {
        letter-spacing: .01em;
      }

      .cls-9 {
        fill: none;
        stroke: #fff;
        stroke-miterlimit: 10;
        stroke-width: 2px;
      }

      .cls-10 {
        letter-spacing: -.04em;
      }

      .cls-11 {
        letter-spacing: 0em;
      }

      .cls-12 {
        letter-spacing: -.01em;
      }

      .cls-13 {
        letter-spacing: 0em;
      }

      .cls-14 {
        fill: url(#linear-gradient);
      }

      .cls-15 {
        letter-spacing: 0em;
      }
    </style>
    <linearGradient id="linear-gradient" x1="515.99" y1="-29.99" x2="515.99" y2="181.58" gradientUnits="userSpaceOnUse">
      <stop offset=".44" stop-color="#153177"/>
      <stop offset=".89" stop-color="#2695ad"/>
      <stop offset="1" stop-color="#2aacba"/>
    </linearGradient>
  </defs>
  <g id="element">
    <g>
      <text class="cls-3" transform="translate(5.48 127.41)"><tspan class="cls-4" x="0" y="0">V</tspan><tspan class="cls-1" x="71.55" y="0">I</tspan><tspan class="cls-5" x="100.69" y="0">Ễ</tspan><tspan class="cls-8" x="161.54" y="0">N </tspan><tspan class="cls-13" x="277.11" y="0">T</tspan><tspan class="cls-10" x="340.67" y="0">Ư</tspan><tspan class="cls-11" x="422.91" y="0">Ở</tspan><tspan class="cls-7" x="512" y="0">N</tspan><tspan class="cls-8" x="596.08" y="0">G </tspan><tspan class="cls-15" x="710.09" y="0">X</tspan><tspan class="cls-2" x="784.98" y="0">A</tspan><tspan class="cls-12" x="861.76" y="0">N</tspan><tspan class="cls-6" x="945.57" y="0">H</tspan></text>
      <g>
        <path class="cls-14" d="M34.57,127.41L6,39.89h12.21l13.63,43.11c3.77,11.82,7.01,22.46,9.35,32.72h.26c2.47-10.13,6.1-21.17,10-32.59l14.8-43.24h12.08l-31.29,87.52h-12.47Z"/>
        <path class="cls-14" d="M98.2,39.89V127.41h-11.3V39.89h11.3Z"/>
        <path class="cls-14" d="M161.36,86.38h-34.02v31.55h37.92v9.48h-49.21V39.89h47.27v9.48h-35.97v27.66h34.02v9.35Zm-15.97-65.96l13.63,14.8h-9.61l-8.31-8.96h-.26l-8.18,8.96h-9.35l13.37-14.8h8.7Zm-19.87-1.69c-.13-7.4,3.25-12.34,8.83-12.34,2.73,0,4.93,1.17,8.05,2.86,2.08,1.04,3.77,2.08,5.45,2.08,2.08,0,3.25-1.17,3.51-5.32h6.1c.13,8.05-2.73,12.47-8.83,12.47-2.86,0-5.19-1.3-7.92-2.73-2.6-1.43-4.03-2.21-5.58-2.21-2.08,0-3.12,2.08-3.38,5.19h-6.23Z"/>
        <path class="cls-14" d="M176.89,127.41V39.89h12.34l28.05,44.28c6.49,10.26,11.56,19.48,15.71,28.44l.26-.13c-1.04-11.69-1.3-22.33-1.3-35.97V39.89h10.65V127.41h-11.43l-27.79-44.41c-6.1-9.74-11.95-19.74-16.36-29.22l-.39,.13c.65,11.04,.91,21.56,.91,36.1v37.4h-10.65Z"/>
        <path class="cls-14" d="M309.08,49.5h-26.62v-9.61h64.8v9.61h-26.75V127.41h-11.43V49.5Z"/>
        <path class="cls-14" d="M431.85,25.87c1.3,2.86,2.21,6.1,2.21,9.74,0,6.36-3.9,10.78-11.69,11.04l-1.95,.13v44.15c0,26.88-14.15,37.92-33.11,37.92-17.92,0-31.42-10.26-31.42-37.4V39.89h11.43v51.81c0,19.61,8.7,27.92,20.39,27.92,12.99,0,21.3-8.57,21.3-27.92V39.89h10.26c4.42,0,5.97-1.56,5.97-4.93,0-2.47-.78-5.19-2.08-7.53l8.7-1.56Z"/>
        <path class="cls-14" d="M514.22,29.63c1.3,2.86,2.34,6.23,2.34,10.65,0,7.14-4.29,12.47-13.63,11.56,5.84,6.75,10.13,17.27,10.13,30.91,0,30.13-18.31,46.1-40.64,46.1s-39.35-17.92-39.35-44.41c0-27.79,17.27-45.97,40.64-45.97,5.19,0,10.13,1.04,13.5,2.21,4.03,1.3,10.26,4.67,14.41,4.67s5.84-1.95,5.84-5.71c0-3.12-.91-5.97-2.08-8.31l8.83-1.69Zm-13.12,53.63c0-17.4-9.09-35.58-27.92-35.58s-28.18,17.53-28.05,36.49c-.13,18.44,10,35.45,27.92,35.45s28.05-16.49,28.05-36.36Zm-31.03-49.6c2.21-5.58,6.88-6.62,6.88-10.91,0-2.47-1.82-4.03-4.42-4.03s-4.93,2.34-6.36,4.54l-4.42-2.6c2.47-4.67,6.36-8.7,12.86-8.7,6.1,0,10.78,4.03,10.78,9.35,0,6.62-5.71,8.05-9.22,14.02l-6.1-1.69Z"/>
        <path class="cls-14" d="M527.35,127.41V39.89h12.34l28.05,44.28c6.49,10.26,11.56,19.48,15.71,28.44l.26-.13c-1.04-11.69-1.3-22.33-1.3-35.97V39.89h10.65V127.41h-11.43l-27.79-44.41c-6.1-9.74-11.95-19.74-16.36-29.22l-.39,.13c.65,11.04,.91,21.56,.91,36.1v37.4h-10.65Z"/>
        <path class="cls-14" d="M678.04,123.52c-5.06,1.82-15.06,4.8-26.88,4.8-13.25,0-24.15-3.38-32.72-11.56-7.53-7.27-12.21-18.96-12.21-32.59,.13-26.1,18.05-45.19,47.4-45.19,10.13,0,18.05,2.21,21.82,4.03l-2.73,9.22c-4.67-2.08-10.52-3.77-19.35-3.77-21.3,0-35.19,13.25-35.19,35.19s13.38,35.32,33.76,35.32c7.4,0,12.47-1.04,15.06-2.34v-26.1h-17.79v-9.09h28.83v42.07Z"/>
        <path class="cls-14" d="M773.36,127.41l-11.17-19.35c-4.54-7.4-7.4-12.21-10.13-17.27h-.26c-2.47,5.06-4.93,9.74-9.48,17.4l-10.52,19.22h-12.99l26.75-44.28-25.71-43.24h13.12l11.56,20.52c3.25,5.71,5.71,10.13,8.05,14.8h.39c2.47-5.19,4.67-9.22,7.92-14.8l11.95-20.52h12.99l-26.62,42.59,27.27,44.93h-13.12Z"/>
        <path class="cls-14" d="M814.48,99.88l-9.09,27.53h-11.69l29.74-87.52h13.63l29.87,87.52h-12.08l-9.35-27.53h-31.04Zm28.7-8.83l-8.57-25.19c-1.95-5.71-3.25-10.91-4.54-15.97h-.26c-1.3,5.19-2.73,10.52-4.42,15.84l-8.57,25.32h26.36Z"/>
        <path class="cls-14" d="M877.11,127.41V39.89h12.34l28.05,44.28c6.49,10.26,11.56,19.48,15.71,28.44l.26-.13c-1.04-11.69-1.3-22.33-1.3-35.97V39.89h10.65V127.41h-11.43l-27.79-44.41c-6.1-9.74-11.95-19.74-16.36-29.22l-.39,.13c.65,11.04,.91,21.56,.91,36.1v37.4h-10.65Z"/>
        <path class="cls-14" d="M972.22,39.89v36.62h42.33V39.89h11.43V127.41h-11.43v-41.03h-42.33v41.03h-11.3V39.89h11.3Z"/>
      </g>
      <g>
        <path class="cls-9" d="M34.57,132.41c-2.16,0-4.08-1.39-4.75-3.45L1.25,41.44c-.5-1.52-.23-3.19,.71-4.49,.94-1.3,2.45-2.06,4.05-2.06h12.21c2.18,0,4.11,1.41,4.77,3.49l13.63,43.11c1.8,5.66,3.43,10.88,4.88,15.82,1.71-5.43,3.52-10.8,5.23-15.8l14.81-43.25c.69-2.02,2.59-3.38,4.73-3.38h12.08c1.63,0,3.15,.79,4.09,2.12,.94,1.33,1.17,3.03,.62,4.56l-31.29,87.52c-.71,1.99-2.6,3.32-4.71,3.32h-12.47Z"/>
        <rect class="cls-9" x="81.9" y="34.89" width="21.3" height="97.52" rx="5" ry="5"/>
        <path class="cls-9" d="M116.04,132.41c-2.76,0-5-2.24-5-5V39.89c0-2.76,2.24-5,5-5h2.28c.07-1.1,.51-2.17,1.28-3.03l7.35-8.14h-1.44c-2.73,0-4.95-2.19-5-4.91-.1-5.66,1.54-10.5,4.61-13.62,2.44-2.49,5.63-3.8,9.22-3.8,4.01,0,7.1,1.66,10.36,3.42,.33,.17,1.42,.73,1.66,.85,.18-2.62,2.36-4.66,4.99-4.66h6.1c2.73,0,4.96,2.19,5,4.92,.1,6.16-1.36,10.82-4.34,13.84-.92,.93-2.24,1.96-4.05,2.7l8.63,9.37c.8,.87,1.25,1.98,1.31,3.11,2.43,.34,4.29,2.43,4.29,4.95v9.48c0,2.76-2.24,5-5,5h-30.97v17.66h29.02c2.76,0,5,2.24,5,5v9.35c0,2.76-2.24,5-5,5h-29.02v21.55h32.92c2.76,0,5,2.24,5,5v9.48c0,2.76-2.24,5-5,5h-49.21Zm26.25-97.52l-1.29-1.39-1.27,1.39h2.56Z"/>
        <path class="cls-9" d="M231.17,132.41c-1.72,0-3.32-.89-4.24-2.35l-27.79-44.41c-2.47-3.94-4.7-7.61-6.73-11.08,.09,4.7,.12,9.76,.12,15.44v37.4c0,2.76-2.24,5-5,5h-10.65c-2.76,0-5-2.24-5-5V39.89c0-2.76,2.24-5,5-5h12.34c1.71,0,3.31,.88,4.22,2.32l28.05,44.28c1.97,3.12,3.83,6.16,5.58,9.16-.1-4.56-.13-9.22-.13-14.14V39.89c0-2.76,2.24-5,5-5h10.65c2.76,0,5,2.24,5,5V127.41c0,2.76-2.24,5-5,5h-11.43Z"/>
        <path class="cls-9" d="M309.08,132.41c-2.76,0-5-2.24-5-5V54.5h-21.62c-2.76,0-5-2.24-5-5v-9.61c0-2.76,2.24-5,5-5h64.8c2.76,0,5,2.24,5,5v9.61c0,2.76-2.24,5-5,5h-21.75V127.41c0,2.76-2.24,5-5,5h-11.43Z"/>
        <path class="cls-9" d="M387.31,133.84c-23.15,0-36.42-15.45-36.42-42.4V39.89c0-2.76,2.24-5,5-5h11.43c2.76,0,5,2.24,5,5v51.81c0,10.46,2.67,22.92,15.39,22.92,4.03,0,16.3,0,16.3-22.92V39.89c0-2.76,2.24-5,5-5h10.26c.41,0,.73-.02,.97-.04-.02-1.54-.56-3.4-1.45-5-.78-1.41-.84-3.11-.15-4.57s2.05-2.49,3.64-2.78l8.7-1.56c.3-.05,.59-.08,.88-.08,1.93,0,3.73,1.12,4.55,2.93,1.76,3.88,2.66,7.85,2.66,11.81,0,8.47-5.26,14.42-13.63,15.76v39.56c0,27.27-13.89,42.92-38.11,42.92Z"/>
        <path class="cls-9" d="M472.41,133.84c-26.11,0-44.35-20.32-44.35-49.41,0-26.69,14.85-46.22,37.04-50.21-.09-.8,.02-1.63,.32-2.4,.57-1.44,1.26-2.66,1.98-3.7-.4,.1-.81,.15-1.23,.15-.86,0-1.74-.22-2.53-.69l-4.42-2.6c-2.3-1.35-3.13-4.28-1.89-6.64,4.96-9.39,12.13-11.37,17.28-11.37,8.85,0,15.78,6.3,15.78,14.35,0,6.2-3.42,9.52-6.17,12.19-.32,.31-.64,.62-.95,.93,1.93,.39,3.79,.89,5.52,1.49,1.45,.47,3.02,1.12,4.67,1.81,2.66,1.1,6.31,2.61,8.15,2.61,.36,0,.62-.02,.81-.05,.02-.16,.03-.38,.03-.67,0-1.97-.52-4.02-1.55-6.07-.7-1.4-.7-3.05,0-4.45s2.01-2.4,3.54-2.7l8.83-1.69c.31-.06,.63-.09,.94-.09,1.93,0,3.73,1.12,4.55,2.93,1.9,4.18,2.79,8.22,2.79,12.72,0,7.63-3.71,13.23-9.86,15.52,4.14,7.58,6.36,16.86,6.36,26.95,0,35.3-22.92,51.1-45.64,51.1Zm.78-81.16c-5.73,0-10.57,1.95-14.39,5.8-5.57,5.61-8.73,14.96-8.65,25.65-.07,9.9,3.16,19.06,8.64,24.57,3.89,3.92,8.7,5.91,14.28,5.91,15.92,0,23.05-15.75,23.05-31.36,0-14.73-7.17-30.58-22.92-30.58Z"/>
        <path class="cls-9" d="M581.63,132.41c-1.72,0-3.32-.89-4.24-2.35l-27.79-44.41c-2.47-3.94-4.7-7.62-6.73-11.08,.09,4.7,.12,9.76,.12,15.44v37.4c0,2.76-2.24,5-5,5h-10.65c-2.76,0-5-2.24-5-5V39.89c0-2.76,2.24-5,5-5h12.34c1.71,0,3.31,.88,4.22,2.32l28.05,44.28c1.97,3.12,3.83,6.16,5.58,9.16-.1-4.56-.13-9.22-.13-14.14V39.89c0-2.76,2.24-5,5-5h10.65c2.76,0,5,2.24,5,5V127.41c0,2.76-2.24,5-5,5h-11.43Z"/>
        <path class="cls-9" d="M651.16,133.32c-15.22,0-27.05-4.23-36.18-12.94-8.75-8.45-13.75-21.64-13.75-36.21,.15-30.03,21.21-50.19,52.4-50.19,10.78,0,19.46,2.34,23.99,4.52,2.21,1.06,3.32,3.57,2.62,5.92l-2.73,9.22c-.41,1.38-1.39,2.52-2.7,3.12-.66,.31-1.38,.46-2.1,.46s-1.38-.14-2.03-.43c-3.49-1.55-8.62-3.33-17.32-3.33-18.9,0-30.19,11.29-30.19,30.19s10.75,30.32,28.76,30.32c4.42,0,7.77-.4,10.06-.91v-17.53h-12.79c-2.76,0-5-2.24-5-5v-9.09c0-2.76,2.24-5,5-5h28.83c2.76,0,5,2.24,5,5v42.07c0,2.11-1.32,3.99-3.31,4.71-6.48,2.33-16.7,5.1-28.57,5.1Z"/>
        <path class="cls-9" d="M773.36,132.41c-1.79,0-3.44-.95-4.33-2.5l-11.13-19.29c-2.2-3.57-4.07-6.66-5.76-9.53-1.47,2.71-3.21,5.77-5.47,9.58l-10.48,19.14c-.88,1.6-2.56,2.6-4.39,2.6h-12.99c-1.8,0-3.47-.97-4.35-2.54-.89-1.57-.86-3.5,.08-5.04l25.2-41.71-24.18-40.66c-.92-1.55-.94-3.46-.05-5.03s2.55-2.53,4.35-2.53h13.12c1.81,0,3.47,.97,4.36,2.55l11.56,20.52c1.33,2.34,2.59,4.58,3.81,6.78,1.19-2.19,2.45-4.39,3.87-6.84l11.95-20.52c.9-1.54,2.54-2.48,4.32-2.48h12.99c1.82,0,3.49,.99,4.37,2.58,.88,1.59,.83,3.53-.13,5.07l-24.99,39.98,25.67,42.3c.94,1.54,.97,3.47,.08,5.05s-2.55,2.55-4.36,2.55h-13.12Z"/>
        <path class="cls-9" d="M854.87,132.41c-2.14,0-4.05-1.36-4.73-3.39l-8.2-24.14h-23.84l-7.96,24.1c-.68,2.05-2.59,3.43-4.75,3.43h-11.69c-1.61,0-3.13-.78-4.06-2.09-.94-1.31-1.19-2.99-.67-4.52l29.74-87.52c.69-2.03,2.59-3.39,4.73-3.39h13.63c2.14,0,4.04,1.36,4.73,3.39l29.87,87.52c.52,1.53,.27,3.21-.67,4.52-.94,1.31-2.45,2.09-4.07,2.09h-12.08Zm-18.67-46.36l-6.22-18.28-6.19,18.28h12.41Z"/>
        <path class="cls-9" d="M931.39,132.41c-1.72,0-3.32-.89-4.24-2.35l-27.79-44.41c-2.47-3.94-4.7-7.62-6.73-11.08,.09,4.7,.12,9.76,.12,15.44v37.4c0,2.76-2.24,5-5,5h-10.65c-2.76,0-5-2.24-5-5V39.89c0-2.76,2.24-5,5-5h12.34c1.71,0,3.31,.88,4.22,2.32l28.05,44.28c1.97,3.12,3.83,6.16,5.58,9.16-.1-4.56-.13-9.22-.13-14.14V39.89c0-2.76,2.24-5,5-5h10.65c2.76,0,5,2.24,5,5V127.41c0,2.76-2.24,5-5,5h-11.43Z"/>
        <path class="cls-9" d="M1014.55,132.41c-2.76,0-5-2.24-5-5v-36.03h-32.33v36.03c0,2.76-2.24,5-5,5h-11.3c-2.76,0-5-2.24-5-5V39.89c0-2.76,2.24-5,5-5h11.3c2.76,0,5,2.24,5,5v31.62h32.33v-31.62c0-2.76,2.24-5,5-5h11.43c2.76,0,5,2.24,5,5V127.41c0,2.76-2.24,5-5,5h-11.43Z"/>
      </g>
    </g>
  </g>
</svg>